<?xml version="1.0" encoding="UTF-8"?>
<svg width="512px" height="512px" viewBox="0 0 512 512" version="1.1" xmlns="http://www.w3.org/2000/svg" xmlns:xlink="http://www.w3.org/1999/xlink">
    <title>Icon</title>
    <defs>
        <linearGradient x1="49.9925354%" y1="100.045468%" x2="49.9925354%" y2="0.00409802039%" id="linearGradient-1">
            <stop stop-color="#008145" offset="0%"></stop>
            <stop stop-color="#00924C" offset="19.3%"></stop>
            <stop stop-color="#3FA554" offset="43.2%"></stop>
            <stop stop-color="#66B55A" offset="65.39%"></stop>
            <stop stop-color="#7CC05F" offset="85.01%"></stop>
            <stop stop-color="#84C661" offset="100%"></stop>
        </linearGradient>
    </defs>
    <g id="Icon" stroke="none" stroke-width="1" fill="none" fill-rule="evenodd">
        <path d="M255,1 C396.4,1 511,115.6 511.1,257 C511.1,268.5 510.3,279.9 508.8,291 C508.509375,293.228125 506.62334,294.893164 504.414703,294.995053 L504.2,295 L458.97578,294.999255 C457.082109,295.432885 455.651598,297.00329 455.2,298.9 C453.807143,305.678571 452.069388,312.370918 449.906669,319.057106 L449.4,320.6 C448.725,322.528571 449.351786,324.736097 451.011366,326.056947 L451.2,326.2 L488.3,352.5 C490.13871,353.854839 490.759938,356.333507 489.710527,358.39527 L489.6,358.6 L460.4,409.1 C459.140625,411.134375 456.755078,411.94873 454.607083,411.088492 L454.4,411 L413,392 C411,391.1 408.7,391.6 407.2,393.2 C402.2,398.8 396.9,404.1 391.3,409.1 C389.757143,410.546429 389.237117,412.736735 390.008915,414.684616 L390.1,414.9 L409.1,456.3 C410.06875,458.43125 409.348242,460.937891 407.393051,462.183453 L407.2,462.3 L356.7,491.5 C354.667742,492.66129 352.167222,492.136837 350.739173,490.379796 L350.6,490.2 L324.3,453.1 C323.1,451.3 320.8,450.6 318.7,451.3 C312.107143,453.435714 305.428061,455.312755 298.58269,456.770991 L296.774587,457.146332 C294.765722,457.607532 293.300865,459.252397 293.025651,461.273882 L293,461.5 L288.8,506.8 C288.606061,509.127273 286.719559,510.890358 284.417041,510.995075 L284.2,511 L284.2,511.1 L225.8,511.1 C223.472727,511.1 221.521579,509.407438 221.223102,507.116496 L221.2,506.9 L217,461.6 C216.8,459.4 215.1,457.7 213,457.2 C205.7,455.7 198.5,453.8 191.3,451.4 C189.371429,450.725 187.163903,451.351786 185.843053,453.011366 L185.7,453.2 L159.4,490.3 C158.045161,492.13871 155.566493,492.759938 153.50473,491.710527 L153.3,491.6 L102.8,462.4 C100.765625,461.140625 99.9512695,458.755078 100.811508,456.607083 L100.9,456.4 L119.9,415 C120.8,413 120.3,410.7 118.7,409.2 C113.1,404.2 107.8,398.9 102.8,393.3 C101.353571,391.757143 99.1632653,391.237117 97.2153836,392.008915 L97,392.1 L55.6,411.1 C53.46875,412.06875 50.9621094,411.348242 49.7165466,409.393051 L49.6,409.2 L20.4,358.7 C19.2387097,356.667742 19.7631634,354.167222 21.5202041,352.739173 L21.7,352.6 L58.8,326.3 C60.537931,325.141379 61.2504162,322.957313 60.667432,320.917902 L60.6,320.7 C58.4642857,314.107143 56.5872449,307.428061 55.1290087,300.58269 L54.7536676,298.774587 C54.2924679,296.765722 52.6476034,295.300865 50.6261183,295.025651 L50.4,295 L5.1,290.8 C2.77272727,290.606061 1.00964187,288.719559 0.9,286.417041 L0.9,286.2 L0.9,227.9 C0.9,225.572727 2.59256198,223.621579 4.88350447,223.323102 L5.1,223.3 L50.4,219.1 C52.6,218.9 54.3,217.2 54.8,215.1 C56.1928571,208.321429 57.9306122,201.629082 60.0933309,194.942894 L60.6,193.4 C61.275,191.471429 60.6482143,189.263903 58.9886343,187.943053 L58.8,187.8 L21.7,161.5 C19.8612903,160.145161 19.2400624,157.666493 20.2894733,155.60473 L20.4,155.4 L49.6,104.9 C50.859375,102.865625 53.2449219,102.05127 55.3929169,102.911508 L55.6,103 L97,122 C99,122.9 101.3,122.4 102.8,120.8 C107.8,115.2 113.1,109.9 118.7,104.9 C120.242857,103.453571 120.762883,101.263265 119.991085,99.3153836 L119.9,99.1 L100.9,57.7 C99.93125,55.56875 100.651758,53.0621094 102.606949,51.8165466 L102.8,51.7 L153.3,22.5 C155.332258,21.3387097 157.832778,21.8631634 159.260827,23.6202041 L159.4,23.8 L185.7,60.9 C186.9,62.7 189.2,63.4 191.3,62.7 C197.892857,60.5642857 204.571939,58.6872449 211.41731,57.2290087 L213,56.9 C215.124138,56.5137931 216.688942,54.8224732 216.974349,52.7261183 L217,52.5 L217,8 C217,5.6 218.8,3.5 221.2,3.2 C232.3,1.8 243.6,1 255,1 Z" id="Path" fill="#002957" fill-rule="nonzero"></path>
        <path d="M268.3,60.1 C268.3,57.8 270.3,55.9 272.6,56.1 C374.1,64.9 454.4,148.9 456.80328,251.9 C456.9,254.6 454.7,256.8 452,256.8 L452,256.8 L347.4,256.9 C344.6,256.9 341.7,255.9 339.6,254 C323.9,240 303.2,231.4 280.5,231.4 C241.9,231.4 210.6,262.8 210.6,301.3 C210.6,332 235.6,356.9 266.2,356.9 C279.1,356.9 290.8,351.4 299,342.6 C308.8,332.1 302.9,315.4 289.8,312.5 C287.8,312.1 285.8,313.4 285.4,315.5 C283.7,324.6 275.8,331.5 266.2,331.5 C249.5,331.5 236,317.9 236,301.3 C236,276.8 256,256.8 280.5,256.8 C315.5,256.8 344,285.3 344,320.3 C344,369.3 304.1,409.2 255.1,409.2 L255.1,409.2 L255.1,409.3 C255,409.3 255,409.3 255,409.3 L252.478852,409.279562 C169.44282,407.93241 102.6,340.158 102.6,256.8 L102.6,256.8 L102.6,256.7 L102.604729,255.485804 C102.724458,240.121105 105.115385,225.333333 109.5,211.4 C112.4,201.9 116.3,192.7 121,184.1 C125.7,175.5 131.2,167.3 137.4,159.8 C164.4,127.1 204.9,105.8 250.3,104.4 L250.3,104.4 L263.3,104.4 C266,104.4 268.3,102.2 268.3,99.4 L268.3,99.4 Z M380.9,176.5 C365.5,176.5 353,189 353,204.4 C353,219.8 365.5,232.3 380.9,232.3 C396.2,232.3 408.7,219.7 408.8,204.4 C408.8,189 396.3,176.5 380.9,176.5 Z" id="Combined-Shape" fill="url(#linearGradient-1)" fill-rule="nonzero"></path>
    </g>
</svg>