<?xml version="1.0" encoding="UTF-8"?>
<svg width="13px" height="12px" viewBox="0 0 13 13" version="1.1" xmlns="http://www.w3.org/2000/svg" xmlns:xlink="http://www.w3.org/1999/xlink">
    <title>Path</title>
    <g id="Page-1" stroke="none" stroke-width="1" fill="none" fill-rule="evenodd">
        <g id="Community" transform="translate(-771.000000, -21.000000)" fill="#000000" fill-rule="nonzero">
            <g id="Main-Pane" transform="translate(274.000000, 16.000000)">
                <g id="Make-Default-Button" transform="translate(497.000000, 3.000000)">
                    <path d="M5.60737746,2.43953724 L4.07709795,5.54227853 L0.653302618,6.04143555 C0.0393160491,6.13048704 -0.206747271,6.88742468 0.238510165,7.32096481 L2.71554758,9.73472881 L2.12968254,13.1444634 C2.02422683,13.7607934 2.6733653,14.2224551 3.21704806,13.9342095 L6.27995053,12.3242523 L9.342853,13.9342095 C9.88653576,14.2201116 10.5356742,13.7607934 10.4302185,13.1444634 L9.84435348,9.73472881 L12.3213909,7.32096481 C12.7666483,6.88742468 12.520585,6.13048704 11.9065984,6.04143555 L8.48280311,5.54227853 L6.95252361,2.43953724 C6.67833876,1.88648064 5.88390576,1.87945026 5.60737746,2.43953724 Z" id="Path"></path>
                </g>
            </g>
        </g>
    </g>
</svg>