<?xml version="1.0" encoding="UTF-8"?>
<svg width="250px" height="250px" viewBox="0 0 250 250" version="1.1" xmlns="http://www.w3.org/2000/svg" xmlns:xlink="http://www.w3.org/1999/xlink">
    <title>Mark</title>
    <g id="Mark" stroke="none" stroke-width="1" fill="none" fill-rule="evenodd">
        <path d="M124.509996,0 C193.79655,0 249.951,56.1654578 250,125.465595 C250,131.101745 249.607997,136.688885 248.872991,142.128994 C248.730584,143.220998 247.806419,144.037034 246.724178,144.08697 L246.618973,144.089394 L224.458928,144.089029 C223.531022,144.301551 222.830065,145.071207 222.608781,146.000784 C221.926275,149.322962 221.074769,152.602881 220.015028,155.879782 L219.766758,156.635954 C219.436005,157.581147 219.743133,158.663055 220.556334,159.310403 L220.648765,159.380514 L238.827911,172.270143 C239.728886,172.93415 240.03329,174.148945 239.519074,175.159415 L239.464916,175.259753 L225.156801,200.009802 C224.539703,201.006849 223.370775,201.405965 222.318249,200.984362 L222.216778,200.940992 L201.930615,191.629092 C200.950608,191.188002 199.823599,191.433052 199.088593,192.217212 C196.638573,194.961772 194.041552,197.559302 191.29753,200.009802 C190.541524,200.718697 190.28671,201.792166 190.664894,202.746822 L190.709526,202.852382 L200.0196,223.142521 C200.494291,224.187047 200.14124,225.415551 199.183189,226.026001 L199.088593,226.083121 L174.343395,240.39404 C173.34758,240.963189 172.122316,240.706154 171.422566,239.845028 L171.354371,239.75691 L158.467268,221.574201 C157.879263,220.692021 156.752254,220.348951 155.723246,220.692021 C152.49272,221.738735 149.219944,222.658672 145.865685,223.373354 L144.979707,223.557309 C143.995356,223.783343 143.27757,224.589491 143.142714,225.58022 L143.130145,225.691041 L141.072129,247.89257 C140.977098,249.033166 140.052704,249.897255 138.924461,249.948576 L138.818111,249.95099 L138.818111,250 L110.201882,250 C109.061509,250 108.105439,249.170475 107.959183,248.047685 L107.947864,247.94158 L105.889847,225.740051 C105.791846,224.661831 104.95884,223.828661 103.929831,223.583611 C100.352803,222.848461 96.8247746,221.917271 93.2967464,220.741031 C92.3517388,220.410214 91.2700427,220.717401 90.622821,221.530761 L90.5527244,221.623211 L77.6656213,239.80592 C77.001745,240.707072 75.787188,241.011536 74.7769157,240.49722 L74.6765974,240.44305 L49.9313995,226.132131 C48.9345477,225.514911 48.5355104,224.345755 48.9570307,223.293023 L49.000392,223.191531 L58.3104665,202.901392 C58.75147,201.921192 58.5064681,200.793962 57.7224618,200.058812 C54.9784398,197.608312 52.3814191,195.010782 49.9313995,192.266222 C49.2226438,191.510068 48.1493852,191.255204 47.1949155,191.633462 L47.0893767,191.678102 L26.8032144,200.990002 C25.7588936,201.464786 24.5306298,201.111665 23.9202992,200.153426 L23.8631909,200.058812 L9.55507644,175.308763 C8.98603963,174.312753 9.243024,173.087248 10.1039808,172.387362 L10.1920815,172.319153 L28.371227,159.429524 C29.22282,158.861684 29.5719405,157.791273 29.286276,156.791757 L29.253234,156.684964 C28.2067257,153.453805 27.2869683,150.180387 26.5724269,146.82547 L26.3885083,145.939319 C26.1625186,144.954775 25.3565285,144.236848 24.3659929,144.101966 L24.255194,144.089394 L2.05801646,142.030974 C0.917643705,141.935925 0.0537249477,141.01135 0,139.882886 L0,111.203686 C0,110.063089 0.829362007,109.106832 1.9519328,108.960548 L2.05801646,108.949226 L24.255194,106.890806 C25.3332027,106.792786 26.1662093,105.959616 26.4112113,104.930406 C27.0937167,101.608228 27.9452236,98.328309 29.0049642,95.0514083 L29.253234,94.2952362 C29.5839867,93.3500434 29.2768592,92.2681352 28.4636585,91.6207866 L28.371227,91.5506763 L10.1920815,78.6610469 C9.29110659,77.9970404 8.98670249,76.7822453 9.50091794,75.771775 L9.55507644,75.671437 L23.8631909,50.921388 C24.4802896,49.9243408 25.6492169,49.5252252 26.7017429,49.9468282 L26.8032144,49.990198 L47.0893767,59.3020976 C48.0693846,59.7431876 49.1963936,59.4981376 49.9313995,58.7139777 C52.3814191,55.9694178 54.9784398,53.3718879 57.7224618,50.921388 C58.4784678,50.2124933 58.7332824,49.1390244 58.3550985,48.1843676 L58.3104665,48.0788081 L49.000392,27.7886689 C48.5257007,26.7441433 48.8787524,25.5156388 49.8368036,24.9051885 L49.9313995,24.848069 L74.6765974,10.5371496 C75.6724118,9.96800121 76.8976766,10.225036 77.5974261,11.0861616 L77.6656213,11.1742796 L90.5527244,29.3569888 C91.1407291,30.2391688 92.2677381,30.5822388 93.2967464,30.2391688 C96.5272722,29.1924553 99.8000484,28.2725176 103.154307,27.5578361 L103.929831,27.3965889 C104.970667,27.2073089 105.737427,26.3783931 105.877278,25.3509696 L105.889847,25.240149 L105.889847,3.43069986 C105.889847,2.25445991 106.771854,1.22524995 107.947864,1.07821996 C113.386907,0.392079984 118.923951,0 124.509996,0 Z M132.41473,27.1085107 L132.270599,27.112746 C131.269922,27.1807605 130.452317,28.0444433 130.452317,29.0711583 L130.452317,29.0711583 L130.452317,48.2853963 L130.446963,48.4482126 C130.361774,49.7386772 129.271489,50.7299558 128.000431,50.7299558 L128.000431,50.7299558 L121.625525,50.7299558 L120.951624,50.7536713 C98.9618497,51.6253815 79.3683693,61.9897452 66.2619196,77.8156756 C63.2215799,81.4825149 60.5245044,85.4915925 58.2197308,89.696235 C55.9149571,93.9008774 54.0024854,98.3988669 52.580391,103.04353 C50.4619608,109.755313 49.2925873,116.872619 49.2024269,124.26568 L49.2024269,124.26568 L49.1967871,125.19124 L49.1967871,125.240131 L49.2065958,126.460462 C49.8531454,166.654316 82.3821833,199.137152 122.693985,199.789205 L122.693985,199.789205 L123.930298,199.799197 L123.979336,199.799197 L123.979336,199.750306 L124.698837,199.744468 C148.397192,199.359709 167.573884,180.003154 167.573884,156.286037 C167.573884,139.17412 153.598129,125.240131 136.434921,125.240131 C124.420676,125.240131 114.613128,135.018369 114.613128,146.996711 C114.613128,155.112648 121.233223,161.76185 129.422525,161.76185 C134.130148,161.76185 138.004129,158.388358 138.83777,153.93926 C139.033921,152.912545 140.014676,152.276959 140.995431,152.472524 C147.419374,153.890369 150.312601,162.055197 145.506903,167.188772 C141.485808,171.491197 135.748393,174.180213 129.422525,174.180213 C114.416977,174.180213 102.157543,162.006306 102.157543,146.996711 C102.157543,128.173602 117.506355,112.821768 136.434921,112.821768 C147.566488,112.821768 157.717299,117.026411 165.416224,123.871177 C166.446016,124.80011 167.868111,125.289022 169.241167,125.289022 L169.241167,125.289022 L220.53464,125.240131 L220.692289,125.235021 C221.943164,125.153691 222.935592,124.111722 222.89006,122.844462 C221.711546,72.4865358 182.334243,31.4179354 132.56094,27.1155106 L132.56094,27.1155106 L132.41473,27.1085107 Z M185.668809,85.9805044 C193.220621,85.9805044 199.350338,92.0919033 199.350338,99.6211467 C199.3013,107.101499 193.171583,113.261789 185.668809,113.261789 C178.116998,113.261789 171.987281,107.15039 171.987281,99.6211467 C171.987281,92.0919033 178.116998,85.9805044 185.668809,85.9805044 Z" fill="#000000" fill-rule="nonzero"></path>
    </g>
</svg>