<?xml version="1.0" encoding="UTF-8"?>
<svg width="64px" height="960px" viewBox="0 0 64 960" version="1.1" xmlns="http://www.w3.org/2000/svg" xmlns:xlink="http://www.w3.org/1999/xlink">
    <title>MorphicActivityIndicatorSpriteDark</title>
    <g id="MorphicActivityIndicatorSpriteDark" stroke="none" stroke-width="1" fill="none" fill-rule="evenodd" fill-opacity="0.2">
        <path d="M31.874559,0 C49.6119169,0 63.9874559,14.3783572 64,32.1191923 C64,33.5620467 63.8996472,34.9923544 63.7114857,36.3850225 C63.6738534,36.6735934 63.4229714,36.8868849 63.1344571,36.8868849 L63.1344571,36.8868849 L57.4718222,36.884522 C57.2291546,36.9355098 57.0453156,37.1347893 56.9878479,37.3762007 C56.7996864,38.2920996 56.5613485,39.1954519 56.2602901,40.0988042 C56.1724814,40.3497353 56.2602901,40.6383062 56.4860839,40.8014115 L56.4860839,40.8014115 L61.1399451,44.1011566 C61.378283,44.2768085 61.4535476,44.603019 61.3030184,44.8664968 L61.3030184,44.8664968 L57.6401411,51.2025093 C57.4770678,51.4659871 57.1634653,51.5663595 56.8874951,51.4408939 L56.8874951,51.4408939 L51.6942376,49.0570476 C51.4433555,48.9441286 51.1548412,49.0068614 50.9666797,49.2076064 C50.3394747,49.9102137 49.6746374,50.5751813 48.9721678,51.2025093 C48.7714622,51.3907077 48.7087417,51.6792786 48.8216386,51.9302098 L48.8216386,51.9302098 L51.2050176,57.1244854 C51.3304586,57.4005097 51.2301058,57.7267203 50.9666797,57.877279 L50.9666797,57.877279 L44.6319091,61.5408743 C44.3684829,61.6914331 44.0423363,61.6161537 43.8667189,61.3777691 L43.8667189,61.3777691 L40.5676205,56.7229955 C40.4170913,56.4971574 40.128577,56.4093315 39.8651509,56.4971574 C38.9745198,56.7857283 38.0713446,57.0366595 37.1430811,57.2248579 C36.8671109,57.2750441 36.6664053,57.5008822 36.6413171,57.7769065 L36.6413171,57.7769065 L36.1144649,63.4604979 C36.0893767,63.7616154 35.8384947,63.9874534 35.5374363,63.9874534 L35.5374363,63.9874534 L35.5374363,64 L28.2116817,64 C27.9106233,64 27.6597413,63.7741619 27.6346531,63.4730445 L27.6346531,63.4730445 L27.1078009,57.789453 C27.0827127,57.5134287 26.869463,57.3001372 26.6060368,57.2374044 C25.6903175,57.049206 24.7871423,56.8108214 23.8839671,56.509704 C23.6330851,56.4218781 23.3445708,56.509704 23.1814975,56.7355421 L23.1814975,56.7355421 L19.8823991,61.3903156 C19.7067817,61.6287003 19.380635,61.7039796 19.1172089,61.5534209 L19.1172089,61.5534209 L12.7824383,57.8898255 C12.5190122,57.7267203 12.4186593,57.4130563 12.5441004,57.137032 L12.5441004,57.137032 L14.9274794,51.9427563 C15.0403763,51.6918251 14.9776558,51.4032543 14.7769502,51.2150559 C14.0744806,50.5877279 13.4096433,49.9227602 12.7824383,49.2201529 C12.5942768,49.019408 12.3057624,48.9566752 12.0548804,49.0695942 L12.0548804,49.0695942 L6.86162289,51.4534405 C6.58565269,51.5789061 6.25950608,51.4785336 6.10897687,51.2150559 L6.10897687,51.2150559 L2.44609957,44.8790433 C2.29557036,44.6155656 2.37083497,44.289355 2.60917287,44.1137032 L2.60917287,44.1137032 L7.2630341,40.813958 C7.48882791,40.6633993 7.57663661,40.3748285 7.48882791,40.1113507 C7.2003136,39.220545 6.9494316,38.3171927 6.76127009,37.3887473 C6.71109369,37.112723 6.48529988,36.911978 6.20932967,36.8868849 L6.20932967,36.8868849 L0.526852215,36.3599294 C0.225793806,36.3348363 0,36.0839051 0,35.7827877 L0,35.7827877 L0,28.4681435 C0,28.1670261 0.225793806,27.9160949 0.526852215,27.8910018 L0.526852215,27.8910018 L6.20932967,27.3640463 C6.48529988,27.3389531 6.69854959,27.1256616 6.76127009,26.8621839 C6.9494316,25.946285 7.1877695,25.0429328 7.48882791,24.1395805 C7.57663661,23.8886493 7.48882791,23.6000784 7.2630341,23.4369731 L7.2630341,23.4369731 L2.60917287,20.137228 C2.37083497,19.9615762 2.29557036,19.6353656 2.44609957,19.3718879 L2.44609957,19.3718879 L6.10897687,13.0358753 C6.27205018,12.7723976 6.58565269,12.6720251 6.86162289,12.7974907 L6.86162289,12.7974907 L12.0548804,15.181337 C12.3057624,15.294256 12.5942768,15.2315232 12.7824383,15.0307783 C13.4096433,14.3281709 14.0744806,13.6632033 14.7769502,13.0358753 C14.9776558,12.8476769 15.0403763,12.5591061 14.9274794,12.3081749 L14.9274794,12.3081749 L12.5441004,7.11389924 C12.4186593,6.83787493 12.5190122,6.51166438 12.7824383,6.36110567 L12.7824383,6.36110567 L19.1172089,2.69751029 C19.380635,2.54695158 19.7067817,2.62223094 19.8823991,2.86061557 L19.8823991,2.86061557 L23.1814975,7.51538914 C23.3320267,7.74122721 23.620541,7.82905313 23.8839671,7.74122721 C24.7745982,7.45265634 25.6777734,7.20172515 26.6060368,7.01352676 C26.8820071,6.96334052 27.0827127,6.73750245 27.1078009,6.46147814 L27.1078009,6.46147814 L27.1078009,0.878259165 C27.1078009,0.577141737 27.3335947,0.313663987 27.6346531,0.276024309 C29.0270482,0.100372476 30.4445316,0 31.874559,0 Z M34.0823207,6.91315428 C33.7938064,6.88806116 33.5429243,7.12644579 33.5429243,7.41501666 L33.5429243,7.41501666 L33.5429243,12.3458145 L33.5359502,12.4396074 C33.4900525,12.7450233 33.22362,12.9731425 32.9157193,12.9731425 L32.9157193,12.9731425 L31.2849863,12.9731425 L30.859029,12.9909812 C25.3370051,13.2833092 20.4249314,15.9237797 17.122697,19.9239365 C16.3449628,20.8649284 15.6550372,21.8937463 15.0654645,22.9727504 C14.4758918,24.0517546 13.9866719,25.206038 13.622893,26.3979612 C13.1097252,28.0290139 12.814265,29.7533882 12.764786,31.5428047 L12.764786,31.5428047 L12.7573501,32.0815526 L12.7573501,32.0940992 L12.7603093,32.4341798 C12.9395921,42.7284734 21.2425346,51.0450592 31.5345494,51.2246382 L31.5345494,51.2246382 L31.874559,51.2276024 L31.8871031,51.2276024 L31.8871031,51.2150559 L32.1789205,51.2112874 C38.1913432,51.0558451 43.0388083,46.1113943 43.0388083,40.0611645 C43.0388083,35.6698687 39.4637397,32.0940992 35.0733046,32.0940992 C32,32.0940992 29.4911799,34.6034111 29.4911799,37.6773182 C29.4911799,39.760047 31.1846335,41.4663791 33.2794982,41.4663791 C34.4837319,41.4663791 35.4747158,40.6006665 35.6879655,39.4589296 C35.7381419,39.1954519 35.9890239,39.0323466 36.2399059,39.0825328 C37.8831831,39.4463831 38.623285,41.5416585 37.3939632,42.8590472 C36.3653469,43.9631445 34.8976872,44.6532053 33.2794982,44.6532053 C29.4410035,44.6532053 26.3049784,41.5291119 26.3049784,37.6773182 C26.3049784,32.8468928 30.2312819,28.9072731 35.0733046,28.9072731 C37.9208154,28.9072731 40.5174441,29.9862772 42.4868679,31.7427955 C42.750294,31.9811802 43.1140729,32.1066458 43.4653077,32.1066458 L43.4653077,32.1066458 L56.5864367,32.0940992 L56.6770825,32.0874159 C56.9729228,32.0433945 57.1999946,31.7872788 57.1889649,31.4793178 C56.8874951,18.5563615 46.8145825,8.01725152 34.0823207,6.91315428 Z M47.6675813,22.0192119 C49.5993728,22.0192119 51.1673853,23.5875319 51.1673853,25.519702 C51.1548412,27.4393256 49.5868287,29.0201921 47.6675813,29.0201921 C45.7357899,29.0201921 44.1677773,27.4518722 44.1677773,25.519702 C44.1677773,23.5875319 45.7357899,22.0192119 47.6675813,22.0192119 Z" id="Combined-Shape" fill="#000000" fill-rule="nonzero"></path>
        <path d="M31.874559,64 C49.6119169,64 63.9874559,78.3783572 64,96.1191923 C64,97.5620467 63.8996472,98.9923544 63.7114857,100.385023 C63.6990474,100.480401 63.663313,100.567556 63.6106234,100.641504 L63.6022811,100.880423 C63.5917723,101.181357 63.3573586,101.424255 63.0556079,101.438826 L63.0556079,101.438826 L57.3582016,101.767145 C57.0815237,101.782592 56.8609602,101.988311 56.7890826,102.249439 C56.5690713,103.158214 56.2993521,104.052698 55.9669505,104.944993 C55.8704379,105.192707 55.9481222,105.484166 56.1680861,105.655052 L56.1680861,105.655052 L60.7039529,109.115205 C60.9360155,109.299067 60.9998496,109.627706 60.8402169,109.88577 L60.8402169,109.88577 L56.9584473,116.09009 C56.7862781,116.347716 56.4693636,116.437083 56.1979402,116.302063 L56.1979402,116.302063 L51.0910413,113.738426 C50.844253,113.61682 50.5537251,113.669446 50.3586723,113.863502 C49.7073287,114.543792 49.0196893,115.185152 48.2957542,115.787582 C48.0886028,115.968661 48.0158496,116.254868 48.1199203,116.509586 L48.1199203,116.509586 L50.3205699,121.783876 C50.4363014,122.06411 50.3246251,122.38662 50.0561051,122.527893 L50.0561051,122.527893 L43.5973357,125.968177 C43.3288157,126.10945 43.005495,126.022834 42.838304,125.778466 L42.838304,125.778466 L39.7036646,121.011391 C39.5611087,120.780437 39.2758353,120.682596 39.0095046,120.761175 C38.109345,121.018487 37.1979626,121.237745 36.2636966,121.393433 C35.986143,121.433957 35.7776781,121.652653 35.742972,121.927634 L35.742972,121.927634 L35.0180863,127.589376 C34.9825045,127.889435 34.7238937,128.10638 34.4230187,128.095873 L34.4230187,128.095873 L34.4225808,128.108412 L27.1012889,127.852746 C26.8004139,127.84224 26.5575663,127.607784 26.5430023,127.305974 L26.5430023,127.305974 L26.2148255,121.607458 C26.1993857,121.330726 25.9937096,121.110122 25.7326333,121.038234 C24.8240399,120.818192 23.9297343,120.548433 23.0376181,120.215978 C22.789954,120.11945 22.4985504,120.197154 22.3276948,120.417163 L22.3276948,120.417163 L18.8681569,124.953964 C18.684327,125.186075 18.3557518,125.249926 18.0977406,125.090265 L18.0977406,125.090265 L11.8946865,121.207821 C11.6371132,121.035622 11.5477682,120.718647 11.6827659,120.447168 L11.6827659,120.447168 L14.2459707,115.339236 C14.3675562,115.092398 14.3149449,114.801814 14.1209296,114.606725 C13.4407813,113.955264 12.799556,113.267499 12.1972537,112.54343 C12.0162128,112.336241 11.7300636,112.263477 11.4753936,112.367572 L11.4753936,112.367572 L6.20210457,114.568724 C5.92192379,114.684482 5.59947881,114.572788 5.45823654,114.304217 L5.45823654,114.304217 L2.01871421,107.844232 C1.87747195,107.575661 1.96407528,107.252276 2.20839816,107.085049 L2.20839816,107.085049 L6.97458383,103.949732 C7.20549451,103.807145 7.3033207,103.521814 7.22476073,103.255432 C6.96751085,102.3551 6.74830822,101.443543 6.59266361,100.509096 C6.55215088,100.231489 6.33350052,100.022986 6.05857417,99.988277 L6.05857417,99.988277 L0.3979488,99.2633269 C0.0979495254,99.2277423 -0.118949361,98.9690839 -0.108440515,98.6681499 L-0.108440515,98.6681499 L0.146836886,91.3579616 C0.157345733,91.0570276 0.391759364,90.8141293 0.693510113,90.7995583 L0.693510113,90.7995583 L6.39091644,90.4712394 C6.66759427,90.4557928 6.88815784,90.2500735 6.96003538,89.9889452 C7.18004667,89.080171 7.44976592,88.1856869 7.78216748,87.2933917 C7.87868006,87.0456778 7.80099583,86.7542183 7.58103186,86.5833323 L7.58103186,86.5833323 L3.04516508,83.1231798 C2.81310252,82.9393171 2.74926835,82.6106786 2.9089011,82.3526148 L2.9089011,82.3526148 L6.79067073,76.1482945 C6.96283993,75.8906684 7.27975435,75.8013017 7.55117776,75.9363221 L7.55117776,75.9363221 L12.6580767,78.4999583 C12.904865,78.6215642 13.1953929,78.5689386 13.3904457,78.3748827 C14.0417893,77.6945925 14.7294287,77.0532324 15.4533638,76.4508024 C15.6605151,76.2697232 15.7332684,75.983517 15.6291977,75.7287987 L15.6291977,75.7287987 L13.4285481,70.4545085 C13.3128166,70.1742745 13.4244929,69.851765 13.6930129,69.7104914 L13.6930129,69.7104914 L20.1517823,66.2702081 C20.4203023,66.1289345 20.743623,66.2155504 20.910814,66.4599188 L20.910814,66.4599188 L24.0454534,71.2269936 C24.1880092,71.4579475 24.4732827,71.5557889 24.7396134,71.47721 C25.639773,71.2198975 26.5511554,71.0006395 27.4854214,70.8449517 L27.1071935,70.912 L27.1078009,64.8782592 C27.1078009,64.6105992 27.2862058,64.3726793 27.5372943,64.2966771 L27.6346531,64.2760243 C29.0270482,64.1003725 30.4445316,64 31.874559,64 Z M34.0823207,70.9131543 C33.7938064,70.8880612 33.5429243,71.1264458 33.5429243,71.4150167 L33.5429243,71.4150167 L33.5429243,76.3458145 L33.5359502,76.4396074 C33.4900525,76.7450233 33.22362,76.9731425 32.9157193,76.9731425 L32.9157193,76.9731425 L31.2849863,76.9731425 L30.859029,76.9909812 C25.3370051,77.2833092 20.4249314,79.9237797 17.122697,83.9239365 C16.3449628,84.8649284 15.6550372,85.8937463 15.0654645,86.9727504 C14.4758918,88.0517546 13.9866719,89.206038 13.622893,90.3979612 C13.1097252,92.0290139 12.814265,93.7533882 12.764786,95.5428047 L12.764786,95.5428047 L12.7573501,96.0815526 L12.7573501,96.0940992 L12.7603093,96.4341798 C12.9395921,106.728473 21.2425346,115.045059 31.5345494,115.224638 L31.5345494,115.224638 L31.874559,115.227602 L31.8871031,115.227602 L31.8871031,115.215056 L32.1789205,115.211287 C38.1913432,115.055845 43.0388083,110.111394 43.0388083,104.061164 C43.0388083,99.6698687 39.4637397,96.0940992 35.0733046,96.0940992 C32,96.0940992 29.4911799,98.6034111 29.4911799,101.677318 C29.4911799,103.760047 31.1846335,105.466379 33.2794982,105.466379 C34.4837319,105.466379 35.4747158,104.600667 35.6879655,103.45893 C35.7381419,103.195452 35.9890239,103.032347 36.2399059,103.082533 C37.8831831,103.446383 38.623285,105.541658 37.3939632,106.859047 C36.3653469,107.963144 34.8976872,108.653205 33.2794982,108.653205 C29.4410035,108.653205 26.3049784,105.529112 26.3049784,101.677318 C26.3049784,96.8468928 30.2312819,92.9072731 35.0733046,92.9072731 C37.9208154,92.9072731 40.5174441,93.9862772 42.4868679,95.7427955 C42.750294,95.9811802 43.1140729,96.1066458 43.4653077,96.1066458 L43.4653077,96.1066458 L56.5864367,96.0940992 L56.6770825,96.0874159 C56.9729228,96.0433945 57.1999946,95.7872788 57.1889649,95.4793178 C56.8874951,82.5563615 46.8145825,72.0172515 34.0823207,70.9131543 Z M47.6675813,86.0192119 C49.5993728,86.0192119 51.1673853,87.5875319 51.1673853,89.519702 C51.1548412,91.4393256 49.5868287,93.0201921 47.6675813,93.0201921 C45.7357899,93.0201921 44.1677773,91.4518722 44.1677773,89.519702 C44.1677773,87.5875319 45.7357899,86.0192119 47.6675813,86.0192119 Z" id="Combined-Shape-Copy" fill="#000000" fill-rule="nonzero"></path>
        <path d="M31.874559,128 C49.6119169,128 63.9874559,142.378357 64,160.119192 C64,161.562047 63.8996472,162.992354 63.7114857,164.385023 C63.691912,164.535117 63.6146471,164.664845 63.5044024,164.754788 L63.4167889,165.984804 C63.395784,166.285188 63.1530361,166.519757 62.8509607,166.523789 L62.8509607,166.523789 L57.1455669,166.653071 C56.8685185,166.658852 56.6409098,166.856749 56.5599628,167.115209 C56.3083698,168.015752 56.0075978,168.900278 55.6442581,169.780429 C55.5391592,170.024624 55.6066243,170.318617 55.8204905,170.497075 L55.8204905,170.497075 L60.2328365,174.113419 C60.458341,174.305269 60.510667,174.635935 60.3421252,174.888271 L60.3421252,174.888271 L56.2461926,180.953339 C56.0651372,181.2048 55.745297,181.283052 55.4787511,181.138641 L55.4787511,181.138641 L50.4644328,178.398339 C50.2220387,178.268194 49.9298512,178.310648 49.7281448,178.497779 C49.0534562,179.154923 48.3438526,179.771894 47.599334,180.348692 C47.3859892,180.522432 47.3032918,180.805924 47.3984096,181.06412 L47.3984096,181.06412 L49.4136485,186.411998 C49.5195295,186.696101 49.3966659,187.014516 49.123379,187.146333 L49.123379,187.146333 L42.54848,190.359112 C42.2751931,190.490929 41.9550922,190.393082 41.7965315,190.143027 L41.7965315,190.143027 L38.8301701,185.269459 C38.6957613,185.033671 38.4140762,184.925933 38.1451654,184.995169 C37.2365741,185.22091 36.3180949,185.408228 35.3789646,185.531215 C35.1001658,185.562029 34.8841955,185.773316 34.8399139,186.046918 L34.8399139,186.046918 L33.9178778,191.679913 C33.8718458,191.978547 33.6058212,192.186334 33.3054962,192.165333 L33.3054962,192.165333 L33.304621,192.177849 L25.9967116,191.666831 C25.6963865,191.64583 25.4618693,191.403041 25.4578471,191.100907 L25.4578471,191.100907 L25.3287456,185.394409 C25.322973,185.117307 25.1251212,184.88966 24.8667128,184.808704 C23.9663522,184.557087 23.0820059,184.256281 22.2020357,183.892894 C21.9578912,183.787782 21.6639533,183.855268 21.4855236,184.069181 L21.4855236,184.069181 L17.869761,188.482482 C17.6779425,188.708035 17.3473392,188.76038 17.0950572,188.591813 L17.0950572,188.591813 L11.0312772,184.495251 C10.7798704,184.314167 10.7016422,183.994267 10.8460321,183.727665 L10.8460321,183.727665 L13.5859397,178.712299 C13.7160657,178.469854 13.6736277,178.177611 13.486539,177.97587 C12.8295408,177.301069 12.2127088,176.591344 11.636043,175.846697 C11.4623431,175.633315 11.1789076,175.55061 10.9207599,175.645753 L10.9207599,175.645753 L5.57386417,177.661529 C5.28981418,177.767438 4.97146367,177.644559 4.83968043,177.371223 L4.83968043,177.371223 L1.6277036,170.795135 C1.49592036,170.521799 1.59375692,170.201633 1.8437671,170.043035 L1.8437671,170.043035 L6.71647034,167.075965 C6.95221657,166.941523 7.05994106,166.659781 6.99072554,166.39082 C6.7650535,165.482058 6.5777973,164.563406 6.45485923,163.624096 C6.42405953,163.345244 6.21281901,163.129238 5.93927146,163.084955 L5.93927146,163.084955 L0.307394786,162.162894 C0.00882014829,162.116861 -0.198919561,161.85079 -0.177914671,161.550407 L-0.177914671,161.550407 L0.332329114,154.25358 C0.353334004,153.953197 0.596081863,153.718627 0.898157316,153.714596 L0.898157316,153.714596 L6.6035511,153.585314 C6.88059947,153.579532 7.10820817,153.381636 7.18915517,153.123175 C7.4407482,152.222633 7.74152019,151.338107 8.10485991,150.457956 C8.20995879,150.213761 8.14249367,149.919768 7.92862754,149.741309 L7.92862754,149.741309 L3.51628146,146.124965 C3.29077699,145.933116 3.23845102,145.60245 3.40699283,145.350114 L3.40699283,145.350114 L7.50292544,139.285045 C7.68398078,139.033585 8.003821,138.955332 8.27036692,139.099743 L8.27036692,139.099743 L13.2846852,141.840046 C13.5270793,141.97019 13.8192668,141.927736 14.0209732,141.740606 C14.6956618,141.083462 15.4052654,140.46649 16.149784,139.889692 C16.3631288,139.715953 16.4458262,139.43246 16.3507084,139.174265 L16.3507084,139.174265 L14.3354694,133.826386 C14.2295885,133.542284 14.3524521,133.223868 14.625739,133.092052 L14.625739,133.092052 L21.200638,129.879272 C21.4739249,129.747456 21.7940258,129.845303 21.9525865,130.095357 L21.9525865,130.095357 L24.9189479,134.968925 C25.0533567,135.204714 25.3350418,135.312451 25.6039526,135.243215 C26.1017026,135.119549 26.6024201,135.007413 27.1078747,134.911069 L27.1078009,128.878259 C27.1078009,128.577142 27.3335947,128.313664 27.6346531,128.276024 C29.0270482,128.100372 30.4445316,128 31.874559,128 Z M34.0823207,134.913154 C33.7938064,134.888061 33.5429243,135.126446 33.5429243,135.415017 L33.5429243,135.415017 L33.5429243,140.345815 L33.5359502,140.439607 C33.4900525,140.745023 33.22362,140.973143 32.9157193,140.973143 L32.9157193,140.973143 L31.2849863,140.973143 L30.859029,140.990981 C25.3370051,141.283309 20.4249314,143.92378 17.122697,147.923936 C16.3449628,148.864928 15.6550372,149.893746 15.0654645,150.97275 C14.4758918,152.051755 13.9866719,153.206038 13.622893,154.397961 C13.1097252,156.029014 12.814265,157.753388 12.764786,159.542805 L12.764786,159.542805 L12.7573501,160.081553 L12.7573501,160.094099 L12.7603093,160.43418 C12.9395921,170.728473 21.2425346,179.045059 31.5345494,179.224638 L31.5345494,179.224638 L31.874559,179.227602 L31.8871031,179.227602 L31.8871031,179.215056 L32.1789205,179.211287 C38.1913432,179.055845 43.0388083,174.111394 43.0388083,168.061164 C43.0388083,163.669869 39.4637397,160.094099 35.0733046,160.094099 C32,160.094099 29.4911799,162.603411 29.4911799,165.677318 C29.4911799,167.760047 31.1846335,169.466379 33.2794982,169.466379 C34.4837319,169.466379 35.4747158,168.600667 35.6879655,167.45893 C35.7381419,167.195452 35.9890239,167.032347 36.2399059,167.082533 C37.8831831,167.446383 38.623285,169.541658 37.3939632,170.859047 C36.3653469,171.963144 34.8976872,172.653205 33.2794982,172.653205 C29.4410035,172.653205 26.3049784,169.529112 26.3049784,165.677318 C26.3049784,160.846893 30.2312819,156.907273 35.0733046,156.907273 C37.9208154,156.907273 40.5174441,157.986277 42.4868679,159.742796 C42.750294,159.98118 43.1140729,160.106646 43.4653077,160.106646 L43.4653077,160.106646 L56.5864367,160.094099 L56.6770825,160.087416 C56.9729228,160.043395 57.1999946,159.787279 57.1889649,159.479318 C56.8874951,146.556361 46.8145825,136.017252 34.0823207,134.913154 Z M47.6675813,150.019212 C49.5993728,150.019212 51.1673853,151.587532 51.1673853,153.519702 C51.1548412,155.439326 49.5868287,157.020192 47.6675813,157.020192 C45.7357899,157.020192 44.1677773,155.451872 44.1677773,153.519702 C44.1677773,151.587532 45.7357899,150.019212 47.6675813,150.019212 Z" id="Combined-Shape-Copy-2" fill="#000000" fill-rule="nonzero"></path>
        <path d="M31.874559,192 C49.6119169,192 63.9874559,206.378357 64,224.119192 C64,225.562047 63.8996472,226.992354 63.7114857,228.385023 C63.6879521,228.565482 63.5810229,228.716502 63.4336467,228.804331 L63.1928673,231.082039 C63.161392,231.381507 62.9106056,231.607462 62.6085735,231.600948 L62.6085735,231.600948 L56.9021434,231.531036 C56.625062,231.527145 56.3906855,231.716977 56.3007677,231.972456 C56.0178994,232.863669 55.6864411,233.73716 55.2926059,234.604094 C55.1790488,234.844472 55.2362126,235.140641 55.4437204,235.326454 L55.4437204,235.326454 L59.72717,239.094584 C59.9458416,239.294187 59.9865956,239.626478 59.8093501,239.872777 L59.8093501,239.872777 L55.5042448,245.791206 C55.3145239,246.036194 54.9921475,246.103236 54.7308038,245.949611 L54.7308038,245.949611 L49.8151753,243.035981 C49.5774709,242.897456 49.2839797,242.929687 49.0758654,243.109664 C48.3786539,243.742862 47.6479505,244.334692 46.8837555,244.885156 C46.6644773,245.051344 46.5719365,245.331778 46.6579855,245.593135 L46.6579855,245.593135 L48.4853585,251.008087 C48.5812599,251.295711 48.4473586,251.609645 48.1696379,251.731844 L48.1696379,251.731844 L41.4866197,254.713205 C41.208899,254.835404 40.8924079,254.726445 40.7426706,254.47101 L40.7426706,254.47101 L37.9482013,249.496886 C37.8221032,249.25655 37.5443497,249.139047 37.2731864,249.198857 C36.3572704,249.39275 35.4328134,249.547899 34.489963,249.638037 C34.2102587,249.659102 33.9870461,249.862723 33.9332429,250.134613 L33.9332429,250.134613 L32.8151798,255.731998 C32.7587536,256.028843 32.4856395,256.22722 32.1862303,256.195751 L32.1862303,256.195751 L32.1849188,256.208229 L24.8992955,255.442479 C24.5998863,255.411009 24.3739852,255.160184 24.3805097,254.858094 L24.3805097,254.858094 L24.4506408,249.150567 C24.4545424,248.873432 24.2647559,248.639018 24.0093303,248.549094 C23.1182994,248.266208 22.2449899,247.934721 21.3782377,247.540846 C21.1379103,247.427277 20.8417962,247.484464 20.6560097,247.692019 L20.6560097,247.692019 L16.8884278,251.976443 C16.6888545,252.195165 16.3566257,252.23594 16.1103804,252.058671 L16.1103804,252.058671 L10.1932622,247.752981 C9.94832832,247.563234 9.88131207,247.240799 10.0349183,246.979398 L10.0349183,246.979398 L12.9481906,242.062709 C13.0866985,241.824953 13.0544855,241.531407 12.8745514,241.32326 C12.2415036,240.62594 11.6498164,239.895121 11.0994898,239.130802 C10.9333426,238.911489 10.6529662,238.818941 10.3916553,238.905018 L10.3916553,238.905018 L4.97766712,240.732962 C4.69009398,240.828893 4.37622582,240.694979 4.25406215,240.41721 L4.25406215,240.41721 L1.27354413,233.733032 C1.15138047,233.455263 1.26033105,233.138707 1.51572393,232.98893 L1.51572393,232.98893 L6.48900811,230.193722 C6.72930267,230.06759 6.84679421,229.789779 6.78700746,229.518566 C6.59318822,228.602482 6.43810659,227.677854 6.34802483,226.734827 C6.3269757,226.45507 6.12340237,226.231822 5.8515669,226.17802 L5.8515669,226.17802 L0.255300499,225.059971 C-0.0414857346,225.003546 -0.239813167,224.730387 -0.208337825,224.430919 L-0.208337825,224.430919 L0.556250691,217.156346 C0.587726033,216.856878 0.838512369,216.630923 1.14054449,216.637437 L1.14054449,216.637437 L6.8469746,216.707348 C7.12405595,216.71124 7.35843249,216.521407 7.44835033,216.265929 C7.73121856,215.374716 8.06267686,214.501225 8.45651206,213.634291 C8.57006919,213.393913 8.51290538,213.097744 8.30539764,212.91193 L8.30539764,212.91193 L4.02194804,209.143801 C3.80327639,208.944198 3.76252238,208.611907 3.93976789,208.365607 L3.93976789,208.365607 L8.24487323,202.447179 C8.43459412,202.20219 8.75697046,202.135148 9.01831415,202.288773 L9.01831415,202.288773 L13.9339427,205.202404 C14.1716471,205.340929 14.4651383,205.308697 14.6732526,205.12872 C15.3704641,204.495523 16.1011675,203.903692 16.8653625,203.353229 C17.0846407,203.187041 17.1771815,202.906607 17.0911325,202.64525 L17.0911325,202.64525 L15.2637595,197.230298 C15.1678581,196.942673 15.3017594,196.62874 15.5794801,196.506541 L15.5794801,196.506541 L22.2624982,193.525179 C22.5402189,193.402981 22.8567101,193.511939 23.0064474,193.767375 L23.0064474,193.767375 L25.8009167,198.741499 C25.9270148,198.981834 26.2047683,199.099337 26.4759316,199.039528 C26.6859463,198.995069 26.8964101,198.952647 27.1074418,198.912579 L27.1078009,192.878259 C27.1078009,192.577142 27.3335947,192.313664 27.6346531,192.276024 C29.0270482,192.100372 30.4445316,192 31.874559,192 Z M34.0823207,198.913154 C33.7938064,198.888061 33.5429243,199.126446 33.5429243,199.415017 L33.5429243,199.415017 L33.5429243,204.345815 L33.5359502,204.439607 C33.4900525,204.745023 33.22362,204.973143 32.9157193,204.973143 L32.9157193,204.973143 L31.2849863,204.973143 L30.859029,204.990981 C25.3370051,205.283309 20.4249314,207.92378 17.122697,211.923936 C16.3449628,212.864928 15.6550372,213.893746 15.0654645,214.97275 C14.4758918,216.051755 13.9866719,217.206038 13.622893,218.397961 C13.1097252,220.029014 12.814265,221.753388 12.764786,223.542805 L12.764786,223.542805 L12.7573501,224.081553 L12.7573501,224.094099 L12.7603093,224.43418 C12.9395921,234.728473 21.2425346,243.045059 31.5345494,243.224638 L31.5345494,243.224638 L31.874559,243.227602 L31.8871031,243.227602 L31.8871031,243.215056 L32.1789205,243.211287 C38.1913432,243.055845 43.0388083,238.111394 43.0388083,232.061164 C43.0388083,227.669869 39.4637397,224.094099 35.0733046,224.094099 C32,224.094099 29.4911799,226.603411 29.4911799,229.677318 C29.4911799,231.760047 31.1846335,233.466379 33.2794982,233.466379 C34.4837319,233.466379 35.4747158,232.600667 35.6879655,231.45893 C35.7381419,231.195452 35.9890239,231.032347 36.2399059,231.082533 C37.8831831,231.446383 38.623285,233.541658 37.3939632,234.859047 C36.3653469,235.963144 34.8976872,236.653205 33.2794982,236.653205 C29.4410035,236.653205 26.3049784,233.529112 26.3049784,229.677318 C26.3049784,224.846893 30.2312819,220.907273 35.0733046,220.907273 C37.9208154,220.907273 40.5174441,221.986277 42.4868679,223.742796 C42.750294,223.98118 43.1140729,224.106646 43.4653077,224.106646 L43.4653077,224.106646 L56.5864367,224.094099 L56.6770825,224.087416 C56.9729228,224.043395 57.1999946,223.787279 57.1889649,223.479318 C56.8874951,210.556361 46.8145825,200.017252 34.0823207,198.913154 Z M47.6675813,214.019212 C49.5993728,214.019212 51.1673853,215.587532 51.1673853,217.519702 C51.1548412,219.439326 49.5868287,221.020192 47.6675813,221.020192 C45.7357899,221.020192 44.1677773,219.451872 44.1677773,217.519702 C44.1677773,215.587532 45.7357899,214.019212 47.6675813,214.019212 Z" id="Combined-Shape-Copy-3" fill="#000000" fill-rule="nonzero"></path>
        <path d="M31.874559,256 C49.6119169,256 63.9874559,270.378357 64,288.119192 C64,289.562047 63.8996472,290.992354 63.7114857,292.385023 C63.6862991,292.578158 63.5655901,292.737572 63.4020079,292.821891 L62.9307892,296.170791 C62.8888817,296.468978 62.6303625,296.686042 62.3287417,296.668992 L62.3287417,296.668992 L56.6282276,296.399971 C56.3514509,296.386412 56.1105921,296.56795 56.0118129,296.820134 C55.6980141,297.700933 55.3362734,298.562323 54.9124225,299.414985 C54.7905455,299.651253 54.8373383,299.949237 55.0382349,300.142179 L55.0382349,300.142179 L59.1875693,304.057504 C59.3991417,304.264616 59.4282741,304.598127 59.2425408,304.838091 L59.2425408,304.838091 L54.7335078,310.602668 C54.5353525,310.840886 54.2108328,310.896637 53.9550098,310.733984 L53.9550098,310.733984 L49.14406,307.650576 C48.9113348,307.50384 48.6168976,307.525808 48.402629,307.698413 C47.6837438,308.306892 46.932831,308.872861 46.1498906,309.396319 C45.9249461,309.554753 45.8226747,309.831787 45.89955,310.095988 L45.89955,310.095988 L47.5368308,315.571415 C47.6226358,315.862212 47.4778599,316.171281 47.1960437,316.283713 L47.1960437,316.283713 L40.4130487,319.030025 C40.1312325,319.142456 39.8187368,319.022519 39.6780052,318.762013 L39.6780052,318.762013 L37.0588327,313.693393 C36.941199,313.448803 36.6677155,313.321679 36.39463,313.371988 C35.4725052,313.533799 34.5431967,313.65659 33.5977749,313.713768 C33.3175059,313.725058 33.0873229,313.920765 33.0240637,314.190612 L33.0240637,314.190612 L31.7113358,319.745567 C31.6445843,320.040263 31.3647132,320.228987 31.0665847,320.187088 L31.0665847,320.187088 L31.0648386,320.199512 L23.8103777,319.179964 C23.5122492,319.138065 23.2952393,318.879509 23.3123027,318.57783 L23.3123027,318.57783 L23.5815808,312.876227 C23.595152,312.599398 23.413662,312.358503 23.1615303,312.259719 C22.2809148,311.945909 21.419706,311.584146 20.5672278,311.160262 C20.3310104,311.038375 20.0330809,311.085192 19.840164,311.286137 L19.840164,311.286137 L15.9253529,315.436465 C15.7182679,315.648088 15.3848185,315.677244 15.1449097,315.491489 L15.1449097,315.491489 L9.38166253,310.981918 C9.14349993,310.783738 9.08777735,310.45916 9.25041273,310.20328 L9.25041273,310.20328 L12.3335004,305.391257 C12.4802214,305.15848 12.4582726,304.863989 12.2857124,304.649689 C11.6773864,303.930701 11.1115648,303.179678 10.5882478,302.396618 C10.4298557,302.17164 10.1528799,302.069364 9.8887242,302.146268 L9.8887242,302.146268 L4.41423979,303.784153 C4.12349387,303.86999 3.81449045,303.725203 3.7020952,303.44334 L3.7020952,303.44334 L0.95666728,296.659215 C0.844272031,296.377352 0.964203897,296.064791 1.22466833,295.924019 L1.22466833,295.924019 L6.29247426,293.304079 C6.53702438,293.18641 6.66413984,292.912868 6.6138547,292.639734 C6.45212439,291.717444 6.32940629,290.787967 6.27229058,289.84237 C6.26101765,289.562049 6.06535955,289.331833 5.79556736,289.268577 L5.79556736,289.268577 L0.241729408,287.955901 C-0.0529068332,287.889153 -0.241580358,287.60924 -0.199672912,287.311053 L-0.199672912,287.311053 L0.818328802,280.067594 C0.860236248,279.769407 1.11875552,279.552342 1.42037633,279.569393 L1.42037633,279.569393 L7.12089034,279.838413 C7.39766712,279.851972 7.63852593,279.670435 7.73730506,279.41825 C8.05110387,278.537452 8.41284463,277.676061 8.83669549,276.8234 C8.95857252,276.587131 8.91177967,276.289148 8.71088314,276.096206 L8.71088314,276.096206 L4.56154873,272.180881 C4.34997632,271.973768 4.32084392,271.640258 4.5065772,271.400294 L4.5065772,271.400294 L9.01561015,265.635717 C9.21376545,265.397499 9.53828515,265.341748 9.7941082,265.5044 L9.7941082,265.5044 L14.605058,268.587809 C14.8377832,268.734545 15.1322204,268.712576 15.346489,268.539972 C16.0653742,267.931492 16.816287,267.365524 17.5992274,266.842066 C17.8241719,266.683632 17.9264433,266.406598 17.849568,266.142397 L17.849568,266.142397 L16.2122872,260.666969 C16.1264822,260.376173 16.2712581,260.067104 16.5530743,259.954672 L16.5530743,259.954672 L23.3360693,257.20836 C23.6178855,257.095928 23.9303812,257.215866 24.0711128,257.476372 L24.0711128,257.476372 L26.6902853,262.544991 C26.7718406,262.714565 26.9283072,262.827678 27.1076166,262.864345 L27.1078009,256.878259 C27.1078009,256.577142 27.3335947,256.313664 27.6346531,256.276024 C29.0270482,256.100372 30.4445316,256 31.874559,256 Z M34.0823207,262.913154 C33.7938064,262.888061 33.5429243,263.126446 33.5429243,263.415017 L33.5429243,263.415017 L33.5429243,268.345815 L33.5359502,268.439607 C33.4900525,268.745023 33.22362,268.973143 32.9157193,268.973143 L32.9157193,268.973143 L31.2849863,268.973143 L30.859029,268.990981 C25.3370051,269.283309 20.4249314,271.92378 17.122697,275.923936 C16.3449628,276.864928 15.6550372,277.893746 15.0654645,278.97275 C14.4758918,280.051755 13.9866719,281.206038 13.622893,282.397961 C13.1097252,284.029014 12.814265,285.753388 12.764786,287.542805 L12.764786,287.542805 L12.7573501,288.081553 L12.7573501,288.094099 L12.7603093,288.43418 C12.9395921,298.728473 21.2425346,307.045059 31.5345494,307.224638 L31.5345494,307.224638 L31.874559,307.227602 L31.8871031,307.227602 L31.8871031,307.215056 L32.1789205,307.211287 C38.1913432,307.055845 43.0388083,302.111394 43.0388083,296.061164 C43.0388083,291.669869 39.4637397,288.094099 35.0733046,288.094099 C32,288.094099 29.4911799,290.603411 29.4911799,293.677318 C29.4911799,295.760047 31.1846335,297.466379 33.2794982,297.466379 C34.4837319,297.466379 35.4747158,296.600667 35.6879655,295.45893 C35.7381419,295.195452 35.9890239,295.032347 36.2399059,295.082533 C37.8831831,295.446383 38.623285,297.541658 37.3939632,298.859047 C36.3653469,299.963144 34.8976872,300.653205 33.2794982,300.653205 C29.4410035,300.653205 26.3049784,297.529112 26.3049784,293.677318 C26.3049784,288.846893 30.2312819,284.907273 35.0733046,284.907273 C37.9208154,284.907273 40.5174441,285.986277 42.4868679,287.742796 C42.750294,287.98118 43.1140729,288.106646 43.4653077,288.106646 L43.4653077,288.106646 L56.5864367,288.094099 L56.6770825,288.087416 C56.9729228,288.043395 57.1999946,287.787279 57.1889649,287.479318 C56.8874951,274.556361 46.8145825,264.017252 34.0823207,262.913154 Z M47.6675813,278.019212 C49.5993728,278.019212 51.1673853,279.587532 51.1673853,281.519702 C51.1548412,283.439326 49.5868287,285.020192 47.6675813,285.020192 C45.7357899,285.020192 44.1677773,283.451872 44.1677773,281.519702 C44.1677773,279.587532 45.7357899,278.019212 47.6675813,278.019212 Z" id="Combined-Shape-Copy-4" fill="#000000" fill-rule="nonzero"></path>
        <path d="M31.874559,320 C49.6119169,320 63.9874559,334.378357 64,352.119192 C64,353.562047 63.8996472,354.992354 63.7114857,356.385023 C63.6869336,356.573292 63.5716108,356.729519 63.4142875,356.815377 L62.6308738,361.249733 C62.5785854,361.546275 62.3126481,361.754186 62.0118061,361.726619 L62.0118061,361.726619 L56.3241534,361.258817 C56.0480184,361.235607 55.8009707,361.408628 55.6934507,361.657212 C55.3491036,362.526522 54.9575211,363.374764 54.504171,364.212114 C54.3741225,364.443985 54.4104874,364.743419 54.604528,364.943256 L54.604528,364.943256 L58.6146919,369.001005 C58.8189073,369.215375 58.8363826,369.549699 58.6423878,369.783035 L58.6423878,369.783035 L53.9349208,375.386737 C53.7285725,375.617895 53.4023048,375.662286 53.1523141,375.490805 L53.1523141,375.490805 L48.4519044,372.241375 C48.224442,372.086606 47.9294175,372.098286 47.7092556,372.263307 C46.9695727,372.846327 46.1993653,373.385745 45.3986335,373.881559 C45.1682967,374.032047 45.0564193,374.305342 45.1240273,374.572065 L45.1240273,374.572065 L46.569221,380.101298 C46.6448251,380.394911 46.489351,380.69874 46.2037827,380.801268 L46.2037827,380.801268 L39.3290748,383.309183 C39.0435065,383.411711 38.7353869,383.280941 38.6038325,383.015682 L38.6038325,383.015682 L36.1631478,377.858743 C36.0541219,377.610197 35.7852415,377.473605 35.5105667,377.514353 C34.5833564,377.643883 33.6503287,377.734168 32.7034874,377.758316 C32.422995,377.759818 32.1861222,377.947373 32.1134841,378.214847 L32.1134841,378.214847 L30.6076906,383.720605 C30.5306951,384.012791 30.2444081,384.191633 29.9479235,384.139355 L29.9479235,384.139355 L29.9457448,384.151711 L22.7312849,382.879607 C22.4348002,382.827329 22.226946,382.561356 22.2545275,382.260457 L22.2545275,382.260457 L22.7226246,376.571725 C22.7458487,376.295538 22.5728764,376.048456 22.3243458,375.940933 C21.4552186,375.596581 20.6071597,375.204983 19.7699942,374.751606 C19.5381745,374.621549 19.2387925,374.65794 19.0389803,374.85203 L19.0389803,374.85203 L14.9817097,378.863205 C14.7673653,379.067472 14.4331014,379.084973 14.1998216,378.890958 L14.1998216,378.890958 L8.59746698,374.183 C8.36636584,373.976629 8.3220048,373.650304 8.49347119,373.400256 L8.49347119,373.400256 L11.7426179,368.698762 C11.8973734,368.471248 11.8857155,368.17617 11.7207394,367.955978 C11.1378762,367.216198 10.5986097,366.445885 10.1029398,365.645039 C9.95249592,365.41467 9.67925822,365.30279 9.41257949,365.370428 L9.41257949,365.370428 L3.88426863,366.816259 C3.59070416,366.891897 3.28694195,366.736414 3.18445205,366.4508 L3.18445205,366.4508 L0.677459118,359.574994 C0.574969221,359.28938 0.705736252,358.981195 0.970954891,358.849599 L0.970954891,358.849599 L6.12710824,356.408119 C6.37561598,356.299056 6.51220048,356.030117 6.47147822,355.755394 C6.34203388,354.828022 6.25182881,353.894828 6.22774876,352.947814 C6.22626577,352.66727 6.03876127,352.430366 5.77134104,352.357733 L5.77134104,352.357733 L0.266698048,350.852031 C-0.0254292328,350.775041 -0.20421898,350.488713 -0.151930487,350.19217 L-0.151930487,350.19217 L1.11824415,342.988652 C1.17053264,342.692109 1.43646987,342.484199 1.7373119,342.511765 L1.7373119,342.511765 L7.42496462,342.979567 C7.7010996,343.002777 7.94814724,342.829756 8.05566731,342.581173 C8.40001439,341.711862 8.79159688,340.863621 9.24494701,340.026271 C9.37499545,339.7944 9.33863056,339.494965 9.14459001,339.295129 L9.14459001,339.295129 L5.13442612,335.23738 C4.93021072,335.02301 4.91273542,334.688686 5.10673018,334.45535 L5.10673018,334.45535 L9.81419718,328.851647 C10.0205455,328.62049 10.3468131,328.576099 10.5968039,328.74758 L10.5968039,328.74758 L15.2972136,331.99701 C15.524676,332.151779 15.8197005,332.140099 16.0398624,331.975078 C16.7795453,331.392058 17.5497526,330.85264 18.3504845,330.356825 C18.5808213,330.206338 18.6926987,329.933043 18.6250907,329.666319 L18.6250907,329.666319 L17.179897,324.137087 C17.1042929,323.843473 17.259767,323.539645 17.5453353,323.437117 L17.5453353,323.437117 L24.4200432,320.929201 C24.7056115,320.826673 25.0137311,320.957444 25.1452854,321.222702 L25.1452854,321.222702 L27.1070173,325.369 L27.1078009,320.878259 C27.1078009,320.610599 27.2862058,320.372679 27.5372943,320.296677 L27.6346531,320.276024 C29.0270482,320.100372 30.4445316,320 31.874559,320 Z M34.0823207,326.913154 C33.7938064,326.888061 33.5429243,327.126446 33.5429243,327.415017 L33.5429243,327.415017 L33.5429243,332.345815 L33.5359502,332.439607 C33.4900525,332.745023 33.22362,332.973143 32.9157193,332.973143 L32.9157193,332.973143 L31.2849863,332.973143 L30.859029,332.990981 C25.3370051,333.283309 20.4249314,335.92378 17.122697,339.923936 C16.3449628,340.864928 15.6550372,341.893746 15.0654645,342.97275 C14.4758918,344.051755 13.9866719,345.206038 13.622893,346.397961 C13.1097252,348.029014 12.814265,349.753388 12.764786,351.542805 L12.764786,351.542805 L12.7573501,352.081553 L12.7573501,352.094099 L12.7603093,352.43418 C12.9395921,362.728473 21.2425346,371.045059 31.5345494,371.224638 L31.5345494,371.224638 L31.874559,371.227602 L31.8871031,371.227602 L31.8871031,371.215056 L32.1789205,371.211287 C38.1913432,371.055845 43.0388083,366.111394 43.0388083,360.061164 C43.0388083,355.669869 39.4637397,352.094099 35.0733046,352.094099 C32,352.094099 29.4911799,354.603411 29.4911799,357.677318 C29.4911799,359.760047 31.1846335,361.466379 33.2794982,361.466379 C34.4837319,361.466379 35.4747158,360.600667 35.6879655,359.45893 C35.7381419,359.195452 35.9890239,359.032347 36.2399059,359.082533 C37.8831831,359.446383 38.623285,361.541658 37.3939632,362.859047 C36.3653469,363.963144 34.8976872,364.653205 33.2794982,364.653205 C29.4410035,364.653205 26.3049784,361.529112 26.3049784,357.677318 C26.3049784,352.846893 30.2312819,348.907273 35.0733046,348.907273 C37.9208154,348.907273 40.5174441,349.986277 42.4868679,351.742796 C42.750294,351.98118 43.1140729,352.106646 43.4653077,352.106646 L43.4653077,352.106646 L56.5864367,352.094099 L56.6770825,352.087416 C56.9729228,352.043395 57.1999946,351.787279 57.1889649,351.479318 C56.8874951,338.556361 46.8145825,328.017252 34.0823207,326.913154 Z M47.6675813,342.019212 C49.5993728,342.019212 51.1673853,343.587532 51.1673853,345.519702 C51.1548412,347.439326 49.5868287,349.020192 47.6675813,349.020192 C45.7357899,349.020192 44.1677773,347.451872 44.1677773,345.519702 C44.1677773,343.587532 45.7357899,342.019212 47.6675813,342.019212 Z" id="Combined-Shape-Copy-5" fill="#000000" fill-rule="nonzero"></path>
        <path d="M31.874559,384 C49.6119169,384 63.9874559,398.378357 64,416.119192 C64,417.562047 63.8996472,418.992354 63.7114857,420.385023 C63.6899815,420.54992 63.5988448,420.690237 63.4708438,420.780221 L62.2934867,426.31755 C62.2308808,426.612088 61.9578496,426.81059 61.6581529,426.772541 L61.6581529,426.772541 L55.990291,426.106528 C55.7151343,426.073696 55.4621988,426.237989 55.3460688,426.482669 C54.971593,427.339432 54.5506458,428.173491 54.0683488,428.994509 C53.9302874,429.2217 53.95618,429.522222 54.1431282,429.728708 L54.1431282,429.728708 L58.0092358,433.923938 C58.2058453,434.145305 58.2116422,434.480035 58.0096224,434.706458 L58.0096224,434.706458 L53.1094566,440.142459 C52.8951668,440.366274 52.5675486,440.399252 52.3236948,440.21915 L52.3236948,440.21915 L47.7395519,436.807658 C47.5176294,436.645045 47.222377,436.646421 46.99659,436.803659 C46.2370107,437.360509 45.4484471,437.872718 44.6308993,438.340286 C44.3954509,438.482643 44.2741038,438.751867 44.3323621,439.020787 L44.3323621,439.020787 L45.583708,444.597088 C45.6490191,444.893161 45.4830363,445.191379 45.1940637,445.283878 L45.1940637,445.283878 L38.2360187,447.550342 C37.9470462,447.642841 37.6436781,447.501397 37.5214613,447.231709 L37.5214613,447.231709 L35.262238,441.992732 C35.1619526,441.740533 34.898003,441.594641 34.6220734,441.625778 C33.6909074,441.72287 32.7552972,441.780537 31.8081899,441.771626 C31.527816,441.763338 31.2845419,441.942512 31.2026133,442.207289 L31.2026133,442.207289 L29.505589,447.657141 C29.4184432,447.946462 29.1260891,448.115204 28.8316096,448.05261 L28.8316096,448.05261 L28.829001,448.064883 L21.6633317,446.541773 C21.3688522,446.479179 21.1704069,446.206115 21.2084728,445.906362 L21.2084728,445.906362 L21.8748187,440.237432 C21.9076674,439.962223 21.7434235,439.709255 21.4987967,439.593124 C20.6422167,439.218649 19.808341,438.797693 18.9875082,438.315375 C18.7603686,438.177307 18.4598989,438.203229 18.2534348,438.390227 L18.2534348,438.390227 L14.0586478,442.257361 C13.8373051,442.454024 13.5026341,442.459848 13.2762674,442.25781 L13.2762674,442.25781 L7.84163098,437.3572 C7.61787286,437.14289 7.58492742,436.815216 7.76501591,436.571304 L7.76501591,436.571304 L11.1762631,431.986068 C11.3388644,431.764093 11.3375118,431.468788 11.1803207,431.242973 C10.6236306,430.483302 10.1115761,429.694638 9.64415727,428.876981 C9.50184477,428.641502 9.23267807,428.520154 8.96380125,428.578444 L8.96380125,428.578444 L3.38839933,429.830459 C3.09237397,429.895805 2.79422306,429.729817 2.70176338,429.4408 L2.70176338,429.4408 L0.436259816,422.481689 C0.34380014,422.192672 0.485243017,421.889239 0.754892738,421.766978 L0.754892738,421.766978 L5.99311153,419.506933 C6.24527411,419.406609 6.39116124,419.142601 6.36005148,418.866624 C6.26305082,417.935299 6.20546869,416.999526 6.21445362,416.052249 C6.22276237,415.771824 6.04363993,415.52852 5.77891748,415.446598 L5.77891748,415.446598 L0.330175997,413.749704 C0.0409135894,413.662566 -0.127774553,413.370173 -0.0651687189,413.075636 L-0.0651687189,413.075636 L1.45563132,405.920834 C1.51823716,405.626297 1.79126835,405.427794 2.09096507,405.465843 L2.09096507,405.465843 L7.75882697,406.131856 C8.03398372,406.164689 8.2869192,406.000396 8.40304922,405.755716 C8.77752502,404.898952 9.19847217,404.064894 9.68076923,403.243876 C9.81883063,403.016684 9.79293802,402.716163 9.60598984,402.509677 L9.60598984,402.509677 L5.73988224,398.314447 C5.54327265,398.09308 5.53747575,397.75835 5.73949564,397.531926 L5.73949564,397.531926 L10.6396614,392.095926 C10.8539512,391.872111 11.1815694,391.839133 11.4254232,392.019234 L11.4254232,392.019234 L16.0095661,395.430727 C16.2314886,395.59334 16.526741,395.591963 16.752528,395.434726 C17.5121073,394.877876 18.3006709,394.365667 19.1182187,393.898099 C19.353667,393.755742 19.4750142,393.486517 19.4167559,393.217597 L19.4167559,393.217597 L18.16541,387.641297 C18.1000989,387.345223 18.2660817,387.047006 18.5550543,386.954507 L18.5550543,386.954507 L25.5130993,384.688042 C25.8020718,384.595543 26.1054399,384.736987 26.2276567,385.006675 L26.2276567,385.006675 L27.1068331,387.046 L27.1078009,384.878259 C27.1078009,384.610599 27.2862058,384.372679 27.5372943,384.296677 L27.6346531,384.276024 C29.0270482,384.100372 30.4445316,384 31.874559,384 Z M34.0823207,390.913154 C33.7938064,390.888061 33.5429243,391.126446 33.5429243,391.415017 L33.5429243,391.415017 L33.5429243,396.345815 L33.5359502,396.439607 C33.4900525,396.745023 33.22362,396.973143 32.9157193,396.973143 L32.9157193,396.973143 L31.2849863,396.973143 L30.859029,396.990981 C25.3370051,397.283309 20.4249314,399.92378 17.122697,403.923936 C16.3449628,404.864928 15.6550372,405.893746 15.0654645,406.97275 C14.4758918,408.051755 13.9866719,409.206038 13.622893,410.397961 C13.1097252,412.029014 12.814265,413.753388 12.764786,415.542805 L12.764786,415.542805 L12.7573501,416.081553 L12.7573501,416.094099 L12.7603093,416.43418 C12.9395921,426.728473 21.2425346,435.045059 31.5345494,435.224638 L31.5345494,435.224638 L31.874559,435.227602 L31.8871031,435.227602 L31.8871031,435.215056 L32.1789205,435.211287 C38.1913432,435.055845 43.0388083,430.111394 43.0388083,424.061164 C43.0388083,419.669869 39.4637397,416.094099 35.0733046,416.094099 C32,416.094099 29.4911799,418.603411 29.4911799,421.677318 C29.4911799,423.760047 31.1846335,425.466379 33.2794982,425.466379 C34.4837319,425.466379 35.4747158,424.600667 35.6879655,423.45893 C35.7381419,423.195452 35.9890239,423.032347 36.2399059,423.082533 C37.8831831,423.446383 38.623285,425.541658 37.3939632,426.859047 C36.3653469,427.963144 34.8976872,428.653205 33.2794982,428.653205 C29.4410035,428.653205 26.3049784,425.529112 26.3049784,421.677318 C26.3049784,416.846893 30.2312819,412.907273 35.0733046,412.907273 C37.9208154,412.907273 40.5174441,413.986277 42.4868679,415.742796 C42.750294,415.98118 43.1140729,416.106646 43.4653077,416.106646 L43.4653077,416.106646 L56.5864367,416.094099 L56.6770825,416.087416 C56.9729228,416.043395 57.1999946,415.787279 57.1889649,415.479318 C56.8874951,402.556361 46.8145825,392.017252 34.0823207,390.913154 Z M47.6675813,406.019212 C49.5993728,406.019212 51.1673853,407.587532 51.1673853,409.519702 C51.1548412,411.439326 49.5868287,413.020192 47.6675813,413.020192 C45.7357899,413.020192 44.1677773,411.451872 44.1677773,409.519702 C44.1677773,407.587532 45.7357899,406.019212 47.6675813,406.019212 Z" id="Combined-Shape-Copy-6" fill="#000000" fill-rule="nonzero"></path>
        <path d="M31.874559,448 C49.6119169,448 63.9874559,462.378357 64,480.119192 C64,481.562047 63.8996472,482.992354 63.7114857,484.385023 C63.6976872,484.490832 63.6552184,484.58652 63.5927367,484.665284 L61.9190387,491.372943 C61.8461918,491.665116 61.5663993,491.853969 61.268213,491.805484 L61.268213,491.805484 L55.6270474,490.942071 C55.3532041,490.899656 55.0946889,491.055022 54.9700905,491.2955 C54.5659422,492.138672 54.1161432,492.957532 53.6054868,493.761218 C53.4595807,493.983452 53.4749695,494.284694 53.6545975,494.497579 L53.6545975,494.497579 L57.3719386,498.825179 C57.5607028,499.053272 57.5548142,499.388001 57.3450154,499.607236 L57.3450154,499.607236 L52.258121,504.868912 C52.0361506,505.085112 51.7075812,505.106636 51.4701613,504.918134 L51.4701613,504.918134 L47.0078703,501.348735 C46.7917582,501.178476 46.4966375,501.169548 46.2655006,501.318809 C45.4869502,501.848812 44.6809911,502.333188 43.8476235,502.771939 C43.6073504,502.905992 43.4766814,503.170818 43.525519,503.441607 L43.525519,503.441607 L44.5814925,509.058183 C44.636431,509.356355 44.4601417,509.648598 44.168117,509.730956 L44.168117,509.730956 L37.1352122,511.753207 C36.8431875,511.835565 36.5449405,511.68362 36.4322102,511.40983 L36.4322102,511.40983 L34.3572008,506.095199 C34.2657781,505.839653 34.0070809,505.684638 33.7302327,505.706127 C32.7962455,505.770663 31.8591927,505.795642 30.9129733,505.753683 C30.6330595,505.735615 30.3836805,505.90619 30.2925612,506.167946 L30.2925612,506.167946 L28.4063735,511.555253 C28.3091836,511.841357 28.0111187,511.999793 27.719003,511.92696 L27.719003,511.92696 L27.7159678,511.939134 L20.6078194,510.166874 C20.3157037,510.094041 20.1269091,509.814217 20.175413,509.515975 L20.175413,509.515975 L21.0391958,503.873753 C21.0816292,503.599859 20.9263138,503.341313 20.685889,503.216715 C19.8428997,502.812575 19.0242231,502.362773 18.220723,501.852102 C17.9985403,501.706191 17.697349,501.721611 17.4844845,501.901289 L17.4844845,501.901289 L13.1572918,505.619672 C12.9292205,505.80849 12.5945502,505.802631 12.3753724,505.592816 L12.3753724,505.592816 L7.1150754,500.505526 C6.89893291,500.283537 6.8774432,499.954912 7.0659344,499.717434 L7.0659344,499.717434 L10.6351259,495.254042 C10.8053751,495.037877 10.8143292,494.742704 10.6651148,494.511541 C10.1352759,493.732905 9.65105729,492.926851 9.21245904,492.093379 C9.07845133,491.853077 8.81368357,491.72241 8.54293624,491.771281 L8.54293624,491.771281 L2.92723602,492.827954 C2.62911043,492.882929 2.33693407,492.706636 2.25461727,492.414569 L2.25461727,492.414569 L0.233363239,485.380633 C0.151046432,485.088565 0.302992828,484.790252 0.576745104,484.677477 L0.576745104,484.677477 L5.89064737,482.60162 C6.14615758,482.510158 6.3011696,482.251401 6.27971023,481.974507 C6.21527144,481.040364 6.1903824,480.103152 6.23242137,479.156765 C6.25051174,478.876801 6.07998958,478.627394 5.81828744,478.536283 L5.81828744,478.536283 L0.432085917,476.650265 C0.146040805,476.553084 -0.0123402112,476.254982 0.0605066878,475.96281 L0.0605066878,475.96281 L1.83007928,468.865442 C1.90292617,468.573269 2.18271869,468.384416 2.48090495,468.4329 L2.48090495,468.4329 L8.12207062,469.296313 C8.39591391,469.338729 8.65442907,469.183363 8.77902754,468.942885 C9.18317583,468.099713 9.63297478,467.280853 10.1436312,466.477167 C10.2895373,466.254932 10.2741485,465.95369 10.0945205,465.740805 L10.0945205,465.740805 L6.37717943,461.413206 C6.18841521,461.185112 6.19430376,460.850384 6.40410264,460.631149 L6.40410264,460.631149 L11.490997,455.369473 C11.7129674,455.153273 12.0415368,455.131749 12.2789567,455.320251 L12.2789567,455.320251 L16.7412477,458.889649 C16.9573598,459.059908 17.2524805,459.068837 17.4836174,458.919575 C18.2621678,458.389573 19.0681268,457.905196 19.9014945,457.466445 C20.1417676,457.332392 20.2724366,457.067567 20.223599,456.796777 L20.223599,456.796777 L19.1676255,451.180202 C19.1126869,450.88203 19.2889763,450.589787 19.581001,450.507429 L19.581001,450.507429 L26.6139058,448.485178 C26.8177904,448.427677 27.024708,448.484388 27.169405,448.617037 C27.2529683,448.437091 27.4256787,448.302151 27.6346531,448.276024 C29.0270482,448.100372 30.4445316,448 31.874559,448 Z M34.0823207,454.913154 C33.7938064,454.888061 33.5429243,455.126446 33.5429243,455.415017 L33.5429243,455.415017 L33.5429243,460.345815 L33.5359502,460.439607 C33.4900525,460.745023 33.22362,460.973143 32.9157193,460.973143 L32.9157193,460.973143 L31.2849863,460.973143 L30.859029,460.990981 C25.3370051,461.283309 20.4249314,463.92378 17.122697,467.923936 C16.3449628,468.864928 15.6550372,469.893746 15.0654645,470.97275 C14.4758918,472.051755 13.9866719,473.206038 13.622893,474.397961 C13.1097252,476.029014 12.814265,477.753388 12.764786,479.542805 L12.764786,479.542805 L12.7573501,480.081553 L12.7573501,480.094099 L12.7603093,480.43418 C12.9395921,490.728473 21.2425346,499.045059 31.5345494,499.224638 L31.5345494,499.224638 L31.874559,499.227602 L31.8871031,499.227602 L31.8871031,499.215056 L32.1789205,499.211287 C38.1913432,499.055845 43.0388083,494.111394 43.0388083,488.061164 C43.0388083,483.669869 39.4637397,480.094099 35.0733046,480.094099 C32,480.094099 29.4911799,482.603411 29.4911799,485.677318 C29.4911799,487.760047 31.1846335,489.466379 33.2794982,489.466379 C34.4837319,489.466379 35.4747158,488.600667 35.6879655,487.45893 C35.7381419,487.195452 35.9890239,487.032347 36.2399059,487.082533 C37.8831831,487.446383 38.623285,489.541658 37.3939632,490.859047 C36.3653469,491.963144 34.8976872,492.653205 33.2794982,492.653205 C29.4410035,492.653205 26.3049784,489.529112 26.3049784,485.677318 C26.3049784,480.846893 30.2312819,476.907273 35.0733046,476.907273 C37.9208154,476.907273 40.5174441,477.986277 42.4868679,479.742796 C42.750294,479.98118 43.1140729,480.106646 43.4653077,480.106646 L43.4653077,480.106646 L56.5864367,480.094099 L56.6770825,480.087416 C56.9729228,480.043395 57.1999946,479.787279 57.1889649,479.479318 C56.8874951,466.556361 46.8145825,456.017252 34.0823207,454.913154 Z M47.6675813,470.019212 C49.5993728,470.019212 51.1673853,471.587532 51.1673853,473.519702 C51.1548412,475.439326 49.5868287,477.020192 47.6675813,477.020192 C45.7357899,477.020192 44.1677773,475.451872 44.1677773,473.519702 C44.1677773,471.587532 45.7357899,470.019212 47.6675813,470.019212 Z" id="Combined-Shape-Copy-7" fill="#000000" fill-rule="nonzero"></path>
        <path d="M31.874559,512 C49.6119169,512 63.9874559,526.378357 64,544.119192 C64,545.562047 63.8996472,546.992354 63.7114857,548.385023 C63.6857006,548.582747 63.5597993,548.745129 63.3902744,548.827774 C63.5267453,548.96936 63.5825363,549.179809 63.5241754,549.383338 L63.5241754,549.383338 L61.5079862,556.414625 C61.424987,556.704077 61.138774,556.883051 60.8424615,556.824189 L60.8424615,556.824189 L55.234865,555.764428 C54.9626688,555.712481 54.6988889,555.858731 54.5659738,556.094714 C54.1326454,556.923268 53.6545427,557.725931 53.1161491,558.511306 C52.962576,558.728313 52.9674422,559.029909 53.1395312,559.248933 L53.1395312,559.248933 L56.7035767,563.703629 C56.8842656,563.938172 56.8666988,564.272491 56.6493765,564.484271 L56.6493765,564.484271 L51.3819511,569.565211 C51.1525707,569.773533 50.8234502,569.783577 50.5927536,569.586904 L50.5927536,569.586904 L46.2577512,565.863948 C46.0477126,565.68625 45.7530834,565.667028 45.5168781,565.808132 C44.7203051,566.31064 43.8979325,566.766594 43.0497604,567.175994 C42.8049553,567.30158 42.6651235,567.561684 42.704481,567.834013 L42.704481,567.834013 L43.5637956,573.484019 C43.6082946,573.783927 43.4219135,574.06984 43.1271925,574.141956 L43.1271925,574.141956 L36.0279963,575.917531 C35.7332753,575.989647 35.4405128,575.827385 35.3374063,575.549829 L35.3374063,575.549829 L33.4491388,570.166018 C33.3666903,569.907437 33.1135606,569.743488 32.8361311,569.755302 C31.9004606,569.787203 30.9631068,569.779465 30.0189283,569.704508 C29.7398155,569.676683 29.4846355,569.83845 29.3844365,570.096867 L29.3844365,570.096867 L27.3113835,575.415065 C27.204268,575.697603 26.9008553,575.84554 26.6114594,575.762557 L26.6114594,575.762557 L26.6080011,575.774617 L19.5660338,573.755366 C19.2766379,573.672383 19.097724,573.386141 19.1566069,573.089773 L19.1566069,573.089773 L20.2167742,567.481134 C20.2687405,567.208887 20.1225428,566.945079 19.8866129,566.812166 C19.0582415,566.378852 18.2557614,565.900753 17.4705729,565.362351 C17.2536177,565.208775 16.9520719,565.213674 16.7330664,565.385814 L16.7330664,565.385814 L12.27874,568.950915 C12.044218,569.131658 11.7099559,569.114123 11.4982341,568.896787 L11.4982341,568.896787 L6.41868544,563.629013 C6.21042192,563.399616 6.20041413,563.070442 6.39707837,562.839687 L6.39707837,562.839687 L10.1198658,558.503577 C10.2975553,558.293485 10.3168053,557.998805 10.1757492,557.762575 C9.67340713,556.965922 9.21761441,556.14346 8.80837108,555.295189 C8.68283144,555.050356 8.42278519,554.910528 8.15049722,554.949921 L8.15049722,554.949921 L2.50134057,555.809965 C2.20147798,555.854503 1.91563214,555.66812 1.84355849,555.373358 L1.84355849,555.373358 L0.0690165853,548.273166 C-0.00305706271,547.978403 0.159207729,547.685575 0.436729036,547.582423 L0.436729036,547.582423 L5.8198406,545.693282 C6.07838715,545.610793 6.2423352,545.357604 6.23055237,545.08013 C6.19875395,544.144307 6.20658832,543.206796 6.28163011,542.262453 C6.30948007,541.983291 6.14776594,541.728085 5.88940295,541.627897 L5.88940295,541.627897 L0.572303648,539.555051 C0.289824333,539.447947 0.141943405,539.1445 0.224942617,538.855047 L0.224942617,538.855047 L2.2411318,531.82376 C2.32413101,531.534307 2.61034396,531.355334 2.90665648,531.414196 L2.90665648,531.414196 L8.51425302,532.473957 C8.78644921,532.525903 9.05022909,532.379654 9.18314421,532.143671 C9.6164726,531.315117 10.0945753,530.512454 10.6329689,529.727079 C10.786542,529.510071 10.7816758,529.208476 10.6095868,528.989452 L10.6095868,528.989452 L7.04554126,524.534755 C6.86485237,524.300213 6.8824192,523.965894 7.09974147,523.754114 L7.09974147,523.754114 L12.3671669,518.673174 C12.5965473,518.464852 12.9256678,518.454808 13.1563644,518.651481 L13.1563644,518.651481 L17.4913668,522.374437 C17.7014054,522.552134 17.9960346,522.571357 18.2322399,522.430253 C19.0288129,521.927744 19.8511855,521.47179 20.6993576,521.062391 C20.9441627,520.936805 21.0839945,520.676701 21.044637,520.404372 L21.044637,520.404372 L20.1853224,514.754365 C20.1408234,514.454458 20.3272045,514.168545 20.6219255,514.096429 L20.6219255,514.096429 L27.3159862,512.42031 C27.4032111,512.343522 27.5127634,512.291264 27.6346531,512.276024 C29.0270482,512.100372 30.4445316,512 31.874559,512 Z M34.0823207,518.913154 C33.7938064,518.888061 33.5429243,519.126446 33.5429243,519.415017 L33.5429243,519.415017 L33.5429243,524.345815 L33.5359502,524.439607 C33.4900525,524.745023 33.22362,524.973143 32.9157193,524.973143 L32.9157193,524.973143 L31.2849863,524.973143 L30.859029,524.990981 C25.3370051,525.283309 20.4249314,527.92378 17.122697,531.923936 C16.3449628,532.864928 15.6550372,533.893746 15.0654645,534.97275 C14.4758918,536.051755 13.9866719,537.206038 13.622893,538.397961 C13.1097252,540.029014 12.814265,541.753388 12.764786,543.542805 L12.764786,543.542805 L12.7573501,544.081553 L12.7573501,544.094099 L12.7603093,544.43418 C12.9395921,554.728473 21.2425346,563.045059 31.5345494,563.224638 L31.5345494,563.224638 L31.874559,563.227602 L31.8871031,563.227602 L31.8871031,563.215056 L32.1789205,563.211287 C38.1913432,563.055845 43.0388083,558.111394 43.0388083,552.061164 C43.0388083,547.669869 39.4637397,544.094099 35.0733046,544.094099 C32,544.094099 29.4911799,546.603411 29.4911799,549.677318 C29.4911799,551.760047 31.1846335,553.466379 33.2794982,553.466379 C34.4837319,553.466379 35.4747158,552.600667 35.6879655,551.45893 C35.7381419,551.195452 35.9890239,551.032347 36.2399059,551.082533 C37.8831831,551.446383 38.623285,553.541658 37.3939632,554.859047 C36.3653469,555.963144 34.8976872,556.653205 33.2794982,556.653205 C29.4410035,556.653205 26.3049784,553.529112 26.3049784,549.677318 C26.3049784,544.846893 30.2312819,540.907273 35.0733046,540.907273 C37.9208154,540.907273 40.5174441,541.986277 42.4868679,543.742796 C42.750294,543.98118 43.1140729,544.106646 43.4653077,544.106646 L43.4653077,544.106646 L56.5864367,544.094099 L56.6770825,544.087416 C56.9729228,544.043395 57.1999946,543.787279 57.1889649,543.479318 C56.8874951,530.556361 46.8145825,520.017252 34.0823207,518.913154 Z M47.6675813,534.019212 C49.5993728,534.019212 51.1673853,535.587532 51.1673853,537.519702 C51.1548412,539.439326 49.5868287,541.020192 47.6675813,541.020192 C45.7357899,541.020192 44.1677773,539.451872 44.1677773,537.519702 C44.1677773,535.587532 45.7357899,534.019212 47.6675813,534.019212 Z" id="Combined-Shape-Copy-8" fill="#000000" fill-rule="nonzero"></path>
        <path d="M31.874559,576 C49.6119169,576 63.9874559,590.378357 64,608.119192 C64,609.562047 63.8996472,610.992354 63.7114857,612.385023 C63.6738534,612.673593 63.4229714,612.886885 63.1344571,612.886885 L63.1344571,612.886885 L60.940904,612.886 L62.9984596,613.772986 C63.2460768,613.876894 63.3819953,614.132133 63.3437902,614.388703 L63.3211793,614.484686 L61.0608299,621.441326 C60.9677795,621.727706 60.6754948,621.896582 60.3814171,621.827415 L60.3814171,621.827415 L54.8142216,620.572597 C54.5440042,620.511182 54.275281,620.648137 54.1342111,620.879337 C53.6722306,621.692264 53.1664066,622.477753 52.6009318,623.243859 C52.4398787,623.455375 52.4342165,623.756956 52.5985568,623.981853 L52.5985568,623.981853 L56.0049646,628.558219 C56.177358,628.798925 56.1481343,629.132427 55.9235534,629.336493 L55.9235534,629.336493 L50.4820145,634.230508 C50.2455035,634.430698 49.916233,634.429249 49.6925407,634.224645 L49.6925407,634.224645 L45.4901083,630.352667 C45.2863992,630.167748 44.9926203,630.138255 44.7516345,630.27103 C43.9380095,630.745432 43.1002253,631.172408 42.238282,631.551957 C41.9892431,631.668923 41.8404191,631.923988 41.8702484,632.197525 L41.8702484,632.197525 L42.5318571,637.874079 C42.5658624,638.175358 42.3696166,638.454592 42.0725583,638.516378 L42.0725583,638.516378 L34.9157202,640.043113 C34.6186618,640.104899 34.3317406,639.93252 34.2383834,639.651534 L34.2383834,639.651534 L32.5391585,634.205103 C32.4657845,633.943803 32.2185308,633.771119 31.940858,633.773244 C31.0046442,633.772471 30.0681315,633.732024 29.127144,633.624162 C28.8491723,633.586612 28.5885022,633.739376 28.4793457,633.994138 L28.4793457,633.994138 L26.2219531,639.236748 C26.1050424,639.515375 25.7966516,639.652633 25.5103281,639.559601 L25.5103281,639.559601 L25.506451,639.571534 L18.5392443,637.307751 C18.2529207,637.214719 18.0841056,636.922407 18.1532957,636.628275 L18.1532957,636.628275 L19.4085558,631.060052 C19.4699917,630.789784 19.3330899,630.521034 19.1019423,630.379969 C18.2891979,629.918009 17.5038922,629.412195 16.7379719,628.846719 C16.5265086,628.685664 16.2249755,628.680036 16.0000958,628.844428 L16.0000958,628.844428 L11.4240626,632.251904 C11.1833756,632.424352 10.8499292,632.395162 10.6459212,632.170569 L10.6459212,632.170569 L5.75330954,626.728731 C5.55317873,626.492206 5.55466504,626.162883 5.75926273,625.939131 L5.75926273,625.939131 L9.63111037,621.735586 C9.8160237,621.531824 9.84554626,621.237995 9.71282039,620.996986 C9.23858709,620.183287 8.81177553,619.345419 8.43238572,618.483383 C8.31546709,618.234318 8.06045918,618.085499 7.78696231,618.115365 L7.78696231,618.115365 L2.11123186,618.777733 C1.80999759,618.811778 1.53083054,618.615533 1.46908786,618.318435 L1.46908786,618.318435 L-0.0565799144,611.160638 C-0.118322593,610.863539 0.0540629003,610.576553 0.335015121,610.483148 L0.335015121,610.483148 L5.7807775,608.783026 C6.04204537,608.709611 6.21472971,608.462298 6.21263778,608.184581 C6.21351847,607.248219 6.25406671,606.311553 6.36201989,605.370404 C6.3995955,605.092384 6.24688643,604.83169 5.99217737,604.722545 L5.99217737,604.722545 L0.750658355,602.465399 C0.472088994,602.348502 0.334888325,602.040078 0.427938728,601.753698 L0.427938728,601.753698 L2.68828809,594.797058 C2.78133849,594.510678 3.07362317,594.341803 3.36770093,594.41097 L3.36770093,594.41097 L8.93489635,595.665788 C9.20511381,595.727202 9.47383704,595.590248 9.61490688,595.359047 C10.0768874,594.546121 10.5827114,593.760632 11.1481862,592.994525 C11.3092393,592.78301 11.3149015,592.481428 11.1505611,592.256532 L11.1505611,592.256532 L7.74415342,587.680165 C7.57176001,587.43946 7.60098372,587.105957 7.8255646,586.901891 L7.8255646,586.901891 L13.2671035,582.007877 C13.5036145,581.807687 13.832885,581.809135 14.0565773,582.01374 L14.0565773,582.01374 L18.2590097,585.885717 C18.4627188,586.070636 18.7564977,586.10013 18.9974835,585.967355 C19.8111085,585.492953 20.6488927,585.065977 21.510836,584.686428 C21.7598749,584.569462 21.9086989,584.314396 21.8788696,584.040859 L21.8788696,584.040859 L21.2172609,578.364305 C21.1832556,578.063027 21.3795014,577.783793 21.6765597,577.722006 L21.6765597,577.722006 L27.2107093,576.540712 C27.3049772,576.399471 27.4566611,576.298278 27.6346531,576.276024 C29.0270482,576.100372 30.4445316,576 31.874559,576 Z M34.0823207,582.913154 C33.7938064,582.888061 33.5429243,583.126446 33.5429243,583.415017 L33.5429243,583.415017 L33.5429243,588.345815 L33.5359502,588.439607 C33.4900525,588.745023 33.22362,588.973143 32.9157193,588.973143 L32.9157193,588.973143 L31.2849863,588.973143 L30.859029,588.990981 C25.3370051,589.283309 20.4249314,591.92378 17.122697,595.923936 C16.3449628,596.864928 15.6550372,597.893746 15.0654645,598.97275 C14.4758918,600.051755 13.9866719,601.206038 13.622893,602.397961 C13.1097252,604.029014 12.814265,605.753388 12.764786,607.542805 L12.764786,607.542805 L12.7573501,608.081553 L12.7573501,608.094099 L12.7603093,608.43418 C12.9395921,618.728473 21.2425346,627.045059 31.5345494,627.224638 L31.5345494,627.224638 L31.874559,627.227602 L31.8871031,627.227602 L31.8871031,627.215056 L32.1789205,627.211287 C38.1913432,627.055845 43.0388083,622.111394 43.0388083,616.061164 C43.0388083,611.669869 39.4637397,608.094099 35.0733046,608.094099 C32,608.094099 29.4911799,610.603411 29.4911799,613.677318 C29.4911799,615.760047 31.1846335,617.466379 33.2794982,617.466379 C34.4837319,617.466379 35.4747158,616.600667 35.6879655,615.45893 C35.7381419,615.195452 35.9890239,615.032347 36.2399059,615.082533 C37.8831831,615.446383 38.623285,617.541658 37.3939632,618.859047 C36.3653469,619.963144 34.8976872,620.653205 33.2794982,620.653205 C29.4410035,620.653205 26.3049784,617.529112 26.3049784,613.677318 C26.3049784,608.846893 30.2312819,604.907273 35.0733046,604.907273 C37.9208154,604.907273 40.5174441,605.986277 42.4868679,607.742796 C42.750294,607.98118 43.1140729,608.106646 43.4653077,608.106646 L43.4653077,608.106646 L56.5864367,608.094099 L56.6770825,608.087416 C56.9729228,608.043395 57.1999946,607.787279 57.1889649,607.479318 C56.8874951,594.556361 46.8145825,584.017252 34.0823207,582.913154 Z M47.6675813,598.019212 C49.5993728,598.019212 51.1673853,599.587532 51.1673853,601.519702 C51.1548412,603.439326 49.5868287,605.020192 47.6675813,605.020192 C45.7357899,605.020192 44.1677773,603.451872 44.1677773,601.519702 C44.1677773,599.587532 45.7357899,598.019212 47.6675813,598.019212 Z" id="Combined-Shape-Copy-9" fill="#000000" fill-rule="nonzero"></path>
        <path d="M31.874559,640 C49.6119169,640 63.9874559,654.378357 64,672.119192 C64,673.562047 63.8996472,674.992354 63.7114857,676.385023 C63.6738534,676.673593 63.4229714,676.886885 63.1344571,676.886885 L63.1344571,676.886885 L58.615083,676.886 L62.7821853,678.85575 C63.0260253,678.968237 63.1529533,679.228063 63.1058172,679.483144 L63.0798703,679.57828 L60.5781146,686.451797 C60.4751264,686.734755 60.1771261,686.893327 59.8856414,686.813939 L59.8856414,686.813939 L54.3656299,685.365593 C54.0977203,685.294786 53.8243812,685.422279 53.6753285,685.648415 C53.1852587,686.444723 52.6523296,687.21208 52.0604626,687.957986 C51.8921259,688.163752 51.875942,688.464952 52.0323335,688.695447 L52.0323335,688.695447 L55.2769532,693.387907 C55.4408411,693.634482 55.3999961,693.966762 55.1684303,694.162866 L55.1684303,694.162866 L49.5594076,698.863993 C49.3160541,699.055806 48.9870347,699.042867 48.7706193,698.830581 L48.7706193,698.830581 L44.705877,694.814299 C44.5087456,694.622383 44.2161749,694.582655 43.9707022,694.706939 C43.1410164,695.152657 42.2888413,695.550134 41.414177,695.899371 C41.1612078,696.007574 41.0035727,696.257291 41.0238376,696.531702 L41.0238376,696.531702 L41.4869344,702.227888 C41.5104045,702.530169 41.3045332,702.802384 41.0054995,702.853766 L41.0054995,702.853766 L33.7997388,704.1298 C33.5007051,704.181182 33.2199746,703.998894 33.1364806,703.714821 L33.1364806,703.714821 L31.6283685,698.212407 C31.5641585,697.948704 31.3230819,697.767497 31.0455041,697.75993 C30.1098876,697.726484 29.175357,697.653378 28.238707,697.512742 C27.9622152,697.465514 27.6963724,697.609087 27.5783914,697.859884 L27.5783914,697.859884 L25.1394095,703.020519 C25.012846,703.294896 24.6998529,703.421308 24.4169505,703.31834 L24.4169505,703.31834 L24.4126594,703.33013 L17.5287018,700.824574 C17.2457994,700.721606 17.0872886,700.423581 17.1667017,700.132043 L17.1667017,700.132043 L18.6155253,694.61102 C18.686356,694.343061 18.5589168,694.069697 18.3328331,693.92065 C17.5367061,693.430607 16.7695313,692.897695 16.0238124,692.305833 C15.8180987,692.137497 15.5169457,692.121348 15.2864657,692.277792 L15.2864657,692.277792 L10.594301,695.523491 C10.3477423,695.687434 10.0155177,695.646625 9.81947221,695.415049 L9.81947221,695.415049 L5.11975836,689.805776 C4.92800408,689.56241 4.94098269,689.23334 5.15326455,689.016865 L5.15326455,689.016865 L9.16945517,684.951007 C9.36136708,684.753821 9.40112614,684.461202 9.2768922,684.215708 C8.83134549,683.385954 8.4340351,682.533701 8.08496103,681.658949 C7.97680587,681.405955 7.72714698,681.248328 7.45277443,681.268631 L7.45277443,681.268631 L1.75738518,681.732515 C1.45514625,681.756026 1.1829981,681.550158 1.13166161,681.251086 L1.13166161,681.251086 L-0.14327324,674.044404 C-0.194609725,673.745332 -0.0123135555,673.464536 0.271727282,673.380994 L0.271727282,673.380994 L5.77350565,671.871962 C6.03717653,671.807709 6.21838677,671.566574 6.22598828,671.288953 C6.25954702,670.353192 6.33275972,669.418512 6.47349277,668.481704 C6.52074825,668.205164 6.3772303,667.9393 6.12648548,667.821332 L6.12648548,667.821332 L0.966932741,665.382635 C0.692612728,665.256087 0.566259476,664.943062 0.669247702,664.660105 L0.669247702,664.660105 L3.17100336,657.786587 C3.27399158,657.50363 3.57199188,657.345057 3.86347659,657.424446 L3.86347659,657.424446 L9.38348813,658.872791 C9.65139765,658.943599 9.92473681,658.816106 10.0737895,658.58997 C10.5638593,657.793661 11.0967884,657.026304 11.6886554,656.280399 C11.8569921,656.074633 11.873176,655.773433 11.7167845,655.542938 L11.7167845,655.542938 L8.47216477,650.850477 C8.30827686,650.603902 8.34912185,650.271623 8.58068773,650.075518 L8.58068773,650.075518 L14.1897104,645.374392 C14.4330639,645.182578 14.7620833,645.195517 14.9784987,645.407804 L14.9784987,645.407804 L19.043241,649.424085 C19.2403724,649.616001 19.532943,649.655729 19.7784158,649.531446 C20.6081016,649.085728 21.4602767,648.68825 22.334941,648.339014 C22.5879102,648.23081 22.7455453,647.981094 22.7252804,647.706683 L22.7252804,647.706683 L22.2621836,642.010497 C22.2387135,641.708215 22.4445848,641.436 22.7436185,641.384618 L22.7436185,641.384618 L27.1759943,640.599529 C27.2648146,640.427996 27.4328199,640.301258 27.6346531,640.276024 C29.0270482,640.100372 30.4445316,640 31.874559,640 Z M34.0823207,646.913154 C33.7938064,646.888061 33.5429243,647.126446 33.5429243,647.415017 L33.5429243,647.415017 L33.5429243,652.345815 L33.5359502,652.439607 C33.4900525,652.745023 33.22362,652.973143 32.9157193,652.973143 L32.9157193,652.973143 L31.2849863,652.973143 L30.859029,652.990981 C25.3370051,653.283309 20.4249314,655.92378 17.122697,659.923936 C16.3449628,660.864928 15.6550372,661.893746 15.0654645,662.97275 C14.4758918,664.051755 13.9866719,665.206038 13.622893,666.397961 C13.1097252,668.029014 12.814265,669.753388 12.764786,671.542805 L12.764786,671.542805 L12.7573501,672.081553 L12.7573501,672.094099 L12.7603093,672.43418 C12.9395921,682.728473 21.2425346,691.045059 31.5345494,691.224638 L31.5345494,691.224638 L31.874559,691.227602 L31.8871031,691.227602 L31.8871031,691.215056 L32.1789205,691.211287 C38.1913432,691.055845 43.0388083,686.111394 43.0388083,680.061164 C43.0388083,675.669869 39.4637397,672.094099 35.0733046,672.094099 C32,672.094099 29.4911799,674.603411 29.4911799,677.677318 C29.4911799,679.760047 31.1846335,681.466379 33.2794982,681.466379 C34.4837319,681.466379 35.4747158,680.600667 35.6879655,679.45893 C35.7381419,679.195452 35.9890239,679.032347 36.2399059,679.082533 C37.8831831,679.446383 38.623285,681.541658 37.3939632,682.859047 C36.3653469,683.963144 34.8976872,684.653205 33.2794982,684.653205 C29.4410035,684.653205 26.3049784,681.529112 26.3049784,677.677318 C26.3049784,672.846893 30.2312819,668.907273 35.0733046,668.907273 C37.9208154,668.907273 40.5174441,669.986277 42.4868679,671.742796 C42.750294,671.98118 43.1140729,672.106646 43.4653077,672.106646 L43.4653077,672.106646 L56.5864367,672.094099 L56.6770825,672.087416 C56.9729228,672.043395 57.1999946,671.787279 57.1889649,671.479318 C56.8874951,658.556361 46.8145825,648.017252 34.0823207,646.913154 Z M47.6675813,662.019212 C49.5993728,662.019212 51.1673853,663.587532 51.1673853,665.519702 C51.1548412,667.439326 49.5868287,669.020192 47.6675813,669.020192 C45.7357899,669.020192 44.1677773,667.451872 44.1677773,665.519702 C44.1677773,663.587532 45.7357899,662.019212 47.6675813,662.019212 Z" id="Combined-Shape-Copy-10" fill="#000000" fill-rule="nonzero"></path>
        <path d="M31.874559,704 C49.6119169,704 63.9874559,718.378357 64,736.119192 C64,737.562047 63.8996472,738.992354 63.7114857,740.385023 C63.6738534,740.673593 63.4229714,740.886885 63.1344571,740.886885 L63.1344571,740.886885 L57.1321914,740.886984 C57.1685036,741.067262 57.2855771,741.22497 57.4569543,741.313029 L57.4569543,741.313029 L62.5282547,743.930307 C62.7979911,744.066351 62.913343,744.383595 62.8005425,744.662786 L62.8005425,744.662786 L60.0604285,751.444806 C59.9476279,751.723997 59.6442751,751.872073 59.3557385,751.78256 L59.3557385,751.78256 L53.8896362,750.142451 C53.624361,750.062337 53.3467389,750.180212 53.189885,750.401009 C52.6723229,751.179729 52.1129381,751.92802 51.4953999,752.652815 C51.3199846,752.852581 51.2932989,753.153033 51.441551,753.388845 L51.441551,753.388845 L54.5204297,758.191683 C54.6756124,758.443827 54.6231959,758.774479 54.3849271,758.962382 L54.3849271,758.962382 L48.6152544,763.464893 C48.3653549,763.648097 48.0369876,763.623683 47.8281127,763.403973 L47.8281127,763.403973 L43.9060127,759.248281 C43.7156991,759.049602 43.4246932,758.999687 43.1750325,759.115328 C42.3302968,759.531819 41.4647691,759.899314 40.5784494,760.217813 C40.3218581,760.317122 40.1556041,760.561184 40.1662798,760.836136 L40.1662798,760.836136 L40.4303005,766.545014 C40.4432068,766.84793 40.2279607,767.112794 39.927316,767.153709 L39.927316,767.153709 L32.6814119,768.177488 C32.3807672,768.218403 32.1065695,768.026428 32.0330403,767.739614 L32.0330403,767.739614 L30.7178784,762.18792 C30.6629106,761.922137 30.428305,761.732627 30.1511604,761.715376 C29.217281,761.649298 28.285871,761.543622 27.3546998,761.370383 C27.0800246,761.313535 26.8093332,761.447743 26.6826713,761.69427 L26.6826713,761.69427 L24.0650716,766.766642 C23.9290096,767.036435 23.6117955,767.151846 23.332659,767.039067 L23.332659,767.039067 L23.3279589,767.0507 L16.5356375,764.306424 C16.256501,764.193646 16.1084877,763.890271 16.1980269,763.601681 L16.1980269,763.601681 L17.8386489,758.134585 C17.918788,757.869261 17.8009668,757.591616 17.5802225,757.43477 C16.8016826,756.917241 16.0535736,756.357879 15.3289647,755.740353 C15.1292511,755.56494 14.8288451,755.538291 14.5930458,755.686596 L14.5930458,755.686596 L9.79046613,758.766563 C9.53833606,758.921802 9.20773804,758.869423 9.0198939,758.631146 L9.0198939,758.631146 L4.51880378,752.861273 C4.33565966,752.611363 4.36011476,752.282946 4.57982216,752.074012 L4.57982216,752.074012 L8.73546265,748.150793 C8.93413931,747.960426 8.98408643,747.669372 8.86849579,747.419692 C8.45217849,746.574894 8.08485333,745.709294 7.76652031,744.822893 C7.66726038,744.566279 7.42325469,744.400034 7.14834073,744.410749 L7.14834073,744.410749 L1.44023164,744.675584 C1.13735628,744.688534 0.872558598,744.473293 0.831690852,744.172612 L0.831690852,744.172612 L-0.190957769,736.925825 C-0.231825514,736.625144 -0.0398407689,736.350881 0.246942625,736.277303 L0.246942625,736.277303 L5.79803391,734.961199 C6.06378657,734.906187 6.25330193,734.671523 6.27058762,734.394337 C6.33678351,733.460317 6.44257148,732.528761 6.61591294,731.597435 C6.67279072,731.322713 6.53863873,731.052002 6.29216366,730.925356 L6.29216366,730.925356 L1.22086331,728.308078 C0.951126861,728.172033 0.835774967,727.85479 0.948575541,727.575599 L0.948575541,727.575599 L3.68868948,720.793579 C3.80149006,720.514388 4.10484291,720.366312 4.39337945,720.455825 L4.39337945,720.455825 L9.85948181,722.095934 C10.124757,722.176048 10.4023791,722.058172 10.559233,721.837375 C11.0767951,721.058655 11.6361798,720.310365 12.2537181,719.585569 C12.4291333,719.385804 12.4558191,719.085352 12.307567,718.849539 L12.307567,718.849539 L9.22868832,714.046702 C9.0735056,713.794557 9.1259221,713.463906 9.36419085,713.276003 L9.36419085,713.276003 L15.1338636,708.773492 C15.3837631,708.590288 15.7121304,708.614702 15.9210053,708.834412 L15.9210053,708.834412 L19.8431053,712.990104 C20.0334188,713.188783 20.3244248,713.238697 20.5740855,713.123056 C21.4188212,712.706565 22.2843489,712.339071 23.1706686,712.020572 C23.4272599,711.921263 23.5935139,711.6772 23.5828382,711.402249 L23.5828382,711.402249 L23.3188175,705.693371 C23.3059112,705.390455 23.5211573,705.12559 23.821802,705.084676 L23.821802,705.084676 L27.170159,704.611095 C27.2573229,704.433711 27.4283097,704.301822 27.6346531,704.276024 C29.0270482,704.100372 30.4445316,704 31.874559,704 Z M34.0823207,710.913154 C33.7938064,710.888061 33.5429243,711.126446 33.5429243,711.415017 L33.5429243,711.415017 L33.5429243,716.345815 L33.5359502,716.439607 C33.4900525,716.745023 33.22362,716.973143 32.9157193,716.973143 L32.9157193,716.973143 L31.2849863,716.973143 L30.859029,716.990981 C25.3370051,717.283309 20.4249314,719.92378 17.122697,723.923936 C16.3449628,724.864928 15.6550372,725.893746 15.0654645,726.97275 C14.4758918,728.051755 13.9866719,729.206038 13.622893,730.397961 C13.1097252,732.029014 12.814265,733.753388 12.764786,735.542805 L12.764786,735.542805 L12.7573501,736.081553 L12.7573501,736.094099 L12.7603093,736.43418 C12.9395921,746.728473 21.2425346,755.045059 31.5345494,755.224638 L31.5345494,755.224638 L31.874559,755.227602 L31.8871031,755.227602 L31.8871031,755.215056 L32.1789205,755.211287 C38.1913432,755.055845 43.0388083,750.111394 43.0388083,744.061164 C43.0388083,739.669869 39.4637397,736.094099 35.0733046,736.094099 C32,736.094099 29.4911799,738.603411 29.4911799,741.677318 C29.4911799,743.760047 31.1846335,745.466379 33.2794982,745.466379 C34.4837319,745.466379 35.4747158,744.600667 35.6879655,743.45893 C35.7381419,743.195452 35.9890239,743.032347 36.2399059,743.082533 C37.8831831,743.446383 38.623285,745.541658 37.3939632,746.859047 C36.3653469,747.963144 34.8976872,748.653205 33.2794982,748.653205 C29.4410035,748.653205 26.3049784,745.529112 26.3049784,741.677318 C26.3049784,736.846893 30.2312819,732.907273 35.0733046,732.907273 C37.9208154,732.907273 40.5174441,733.986277 42.4868679,735.742796 C42.750294,735.98118 43.1140729,736.106646 43.4653077,736.106646 L43.4653077,736.106646 L56.5864367,736.094099 L56.6770825,736.087416 C56.9729228,736.043395 57.1999946,735.787279 57.1889649,735.479318 C56.8874951,722.556361 46.8145825,712.017252 34.0823207,710.913154 Z M47.6675813,726.019212 C49.5993728,726.019212 51.1673853,727.587532 51.1673853,729.519702 C51.1548412,731.439326 49.5868287,733.020192 47.6675813,733.020192 C45.7357899,733.020192 44.1677773,731.451872 44.1677773,729.519702 C44.1677773,727.587532 45.7357899,726.019212 47.6675813,726.019212 Z" id="Combined-Shape-Copy-11" fill="#000000" fill-rule="nonzero"></path>
        <path d="M31.874559,768 C49.6119169,768 63.9874559,782.378357 64,800.119192 C64,801.562047 63.8996472,802.992354 63.7114857,804.385023 C63.6738534,804.673593 63.4229714,804.886885 63.1344571,804.886885 L63.1344571,804.886885 L57.0905715,804.88663 C57.0503407,805.097801 57.0069314,805.308822 56.9600111,805.519709 C56.8935803,805.792278 57.0182029,806.067507 57.2601079,806.202678 L57.2601079,806.202678 L62.2369773,808.995347 C62.5018016,809.140722 62.6060116,809.461798 62.4835361,809.736883 L62.4835361,809.736883 L59.5084022,816.419143 C59.3859268,816.694227 59.0775909,816.831625 58.7923541,816.732098 L58.7923541,816.732098 L53.3868205,814.902224 C53.1245029,814.8129 52.8429361,814.921015 52.678472,815.136203 C52.1340483,815.896386 51.5488893,816.624699 50.9064323,817.327501 C50.7241522,817.521023 50.6869971,817.820361 50.8269291,818.061203 L50.8269291,818.061203 L53.7363156,822.968566 C53.8826041,823.225973 53.8186799,823.554594 53.5739986,823.734067 L53.5739986,823.734067 L47.6507052,828.032476 C47.3945643,828.206847 47.067249,828.170988 46.8661691,827.944123 L46.8661691,827.944123 L43.0914899,823.654083 C42.9082261,823.448883 42.6191394,823.388843 42.365595,823.4957 C41.5068386,823.882457 40.6290127,824.219521 39.7321175,824.506894 C39.4722167,824.597187 39.2975463,824.835299 39.2986198,825.110456 L39.2986198,825.110456 L39.3632427,830.82507 C39.3655696,831.128252 39.1412109,831.385443 38.8393215,831.41584 L38.8393215,831.41584 L31.562102,832.186118 C31.2602125,832.216515 30.9928817,832.015088 30.9294069,831.725883 L30.9294069,831.725883 L29.8087976,826.131672 C29.7631389,825.864133 29.53529,825.66655 29.2589163,825.639638 C28.3279119,825.541008 27.4007574,825.402891 26.4761993,825.19726 C26.2036754,825.13086 25.9284651,825.255539 25.7932767,825.497496 L25.7932767,825.497496 L23.0002483,830.475425 C22.8548536,830.740305 22.5338049,830.844575 22.2587744,830.722124 L22.2587744,830.722124 L22.2536712,830.733586 L15.5612614,827.753933 C15.2862308,827.631481 15.1488953,827.323125 15.2484516,827.037836 L15.2484516,827.037836 L17.0788731,821.631327 C17.1682231,821.368962 17.0601632,821.087374 16.8450272,820.92292 C16.0850232,820.378535 15.3568913,819.793406 14.6542752,819.150967 C14.4608051,818.968691 14.1615121,818.931575 13.9206807,819.07156 L13.9206807,819.07156 L9.01353732,821.982043 C8.75614308,822.128388 8.42757445,822.064504 8.24816047,821.819816 L8.24816047,821.819816 L3.95117798,815.896372 C3.77686715,815.640223 3.81276894,815.31286 4.0396342,815.11172 L4.0396342,815.11172 L8.32966155,811.335921 C8.53486091,811.152603 8.59493523,810.86347 8.48812872,810.609908 C8.10154806,809.751095 7.76465566,808.873203 7.47745151,807.976232 C7.38720775,807.71631 7.14915255,807.541652 6.87403212,807.542765 L6.87403212,807.542765 L1.16015763,807.608229 C0.857014848,807.610601 0.599890259,807.38625 0.569541044,807.084325 L0.569541044,807.084325 L-0.199575405,799.806263 C-0.22992462,799.504339 -0.0284852021,799.236944 0.260691347,799.173418 L0.260691347,799.173418 L5.8543324,798.051847 C6.12184305,798.006143 6.31943264,797.778236 6.34638145,797.501822 C6.44513385,796.570681 6.5833682,795.643385 6.78910688,794.718676 C6.85553766,794.446106 6.73091508,794.170878 6.48901004,794.035707 L6.48901004,794.035707 L1.51214068,791.243037 C1.24731643,791.097662 1.14310644,790.776587 1.26558193,790.501502 L1.26558193,790.501502 L4.24071575,783.819242 C4.36319124,783.544158 4.67152706,783.406759 4.95676389,783.506287 L4.95676389,783.506287 L10.3622975,785.336161 C10.6246151,785.425485 10.9061819,785.317369 11.070646,785.102181 C11.6150697,784.341998 12.2002286,783.613686 12.8426857,782.910884 C13.0249658,782.717362 13.0621209,782.418024 12.9221889,782.177181 L12.9221889,782.177181 L10.0128024,777.269818 C9.86651391,777.012412 9.93043806,776.683791 10.1751194,776.504317 L10.1751194,776.504317 L16.0984128,772.205908 C16.3545537,772.031537 16.681869,772.067396 16.8829489,772.294262 L16.8829489,772.294262 L20.6576281,776.584302 C20.8408919,776.789502 21.1299786,776.849542 21.383523,776.742684 C22.2422794,776.355928 23.1201052,776.018863 24.0170005,775.731491 C24.2769013,775.641197 24.4515717,775.403085 24.4504982,775.127929 L24.4504982,775.127929 L24.3858753,769.413315 C24.3835484,769.110132 24.607907,768.852941 24.9097965,768.822544 L24.9097965,768.822544 L27.1859715,768.58104 C27.277049,768.418934 27.4401421,768.300343 27.6346531,768.276024 C29.0270482,768.100372 30.4445316,768 31.874559,768 Z M34.0823207,774.913154 C33.7938064,774.888061 33.5429243,775.126446 33.5429243,775.415017 L33.5429243,775.415017 L33.5429243,780.345815 L33.5359502,780.439607 C33.4900525,780.745023 33.22362,780.973143 32.9157193,780.973143 L32.9157193,780.973143 L31.2849863,780.973143 L30.859029,780.990981 C25.3370051,781.283309 20.4249314,783.92378 17.122697,787.923936 C16.3449628,788.864928 15.6550372,789.893746 15.0654645,790.97275 C14.4758918,792.051755 13.9866719,793.206038 13.622893,794.397961 C13.1097252,796.029014 12.814265,797.753388 12.764786,799.542805 L12.764786,799.542805 L12.7573501,800.081553 L12.7573501,800.094099 L12.7603093,800.43418 C12.9395921,810.728473 21.2425346,819.045059 31.5345494,819.224638 L31.5345494,819.224638 L31.874559,819.227602 L31.8871031,819.227602 L31.8871031,819.215056 L32.1789205,819.211287 C38.1913432,819.055845 43.0388083,814.111394 43.0388083,808.061164 C43.0388083,803.669869 39.4637397,800.094099 35.0733046,800.094099 C32,800.094099 29.4911799,802.603411 29.4911799,805.677318 C29.4911799,807.760047 31.1846335,809.466379 33.2794982,809.466379 C34.4837319,809.466379 35.4747158,808.600667 35.6879655,807.45893 C35.7381419,807.195452 35.9890239,807.032347 36.2399059,807.082533 C37.8831831,807.446383 38.623285,809.541658 37.3939632,810.859047 C36.3653469,811.963144 34.8976872,812.653205 33.2794982,812.653205 C29.4410035,812.653205 26.3049784,809.529112 26.3049784,805.677318 C26.3049784,800.846893 30.2312819,796.907273 35.0733046,796.907273 C37.9208154,796.907273 40.5174441,797.986277 42.4868679,799.742796 C42.750294,799.98118 43.1140729,800.106646 43.4653077,800.106646 L43.4653077,800.106646 L56.5864367,800.094099 L56.6770825,800.087416 C56.9729228,800.043395 57.1999946,799.787279 57.1889649,799.479318 C56.8874951,786.556361 46.8145825,776.017252 34.0823207,774.913154 Z M47.6675813,790.019212 C49.5993728,790.019212 51.1673853,791.587532 51.1673853,793.519702 C51.1548412,795.439326 49.5868287,797.020192 47.6675813,797.020192 C45.7357899,797.020192 44.1677773,795.451872 44.1677773,793.519702 C44.1677773,791.587532 45.7357899,790.019212 47.6675813,790.019212 Z" id="Combined-Shape-Copy-12" fill="#000000" fill-rule="nonzero"></path>
        <path d="M31.874559,832 C49.6119169,832 63.9874559,846.378357 64,864.119192 C64,865.562047 63.8996472,866.992354 63.7114857,868.385023 C63.6738534,868.673593 63.4229714,868.886885 63.1344571,868.886885 L63.1344571,868.886885 L57.0899556,868.886853 C56.9957339,869.390032 56.8860178,869.891696 56.7562544,870.391889 C56.6803516,870.661974 56.7952929,870.941384 57.0323332,871.084915 L57.0323332,871.084915 L61.908708,874.049573 C62.1682974,874.204102 62.2612385,874.528619 62.1292374,874.799262 L62.1292374,874.799262 L58.9227084,881.37362 C58.7907072,881.644263 58.4777641,881.770817 58.1961745,881.661395 L58.1961745,881.661395 L52.8577955,879.643985 C52.598755,879.545561 52.3135866,879.643784 52.1417127,879.853101 C51.5710907,880.593821 50.9608704,881.301268 50.2942773,881.981221 C50.1053544,882.168263 50.0577752,882.466122 50.1892167,882.711702 L50.1892167,882.711702 L52.9255664,887.717611 C53.0627824,887.979967 52.9874284,888.306157 52.7366327,888.476981 L52.7366327,888.476981 L46.6669353,892.566052 C46.4048649,892.731377 46.0790004,892.684117 45.8859605,892.450372 L45.8859605,892.450372 L42.263301,888.031211 C42.0873102,887.819741 41.800495,887.749648 41.5433758,887.847592 C40.6716449,888.204143 39.7825904,888.510366 38.8762124,888.766262 C38.6133187,888.84743 38.4304447,889.079301 38.4219148,889.354328 L38.4219148,889.354328 L38.2870611,895.067716 C38.2788057,895.370795 38.0456079,895.619999 37.7428415,895.639842 L37.7428415,895.639842 L30.4431728,896.155679 C30.1404064,896.175522 29.880268,895.964888 29.8269251,895.673644 L29.8269251,895.673644 L28.9022335,890.043731 C28.8659397,889.774762 28.6451251,889.569348 28.3698589,889.532807 C27.4428638,889.401746 26.5210943,889.231355 25.6042759,888.993583 C25.3342354,888.917713 25.0548415,889.032711 24.9112912,889.269802 L24.9112912,889.269802 L21.9462371,894.147224 C21.7916868,894.406868 21.4671946,894.499871 21.1966051,894.367895 L21.1966051,894.367895 L21.1911051,894.379172 L14.6067605,891.167773 C14.336171,891.035797 14.2096806,890.722836 14.3191327,890.441196 L14.3191327,890.441196 L16.3371235,885.101861 C16.4355755,884.842774 16.3374088,884.557586 16.1281432,884.385724 C15.3876009,883.815147 14.6803333,883.204963 14.000566,882.538394 C13.8135751,882.349477 13.5157598,882.301938 13.2701896,882.433434 L13.2701896,882.433434 L8.26446115,885.170887 C8.00211633,885.30816 7.6759774,885.232847 7.50521218,884.982048 L7.50521218,884.982048 L3.41757251,878.912249 C3.25230734,878.650173 3.29961208,878.324262 3.5333588,878.131162 L3.5333588,878.131162 L7.95254628,874.507383 C8.16401834,874.331338 8.23414667,874.044478 8.13625441,873.787342 C7.77988138,872.915561 7.47383219,872.026447 7.21810684,871.119999 C7.13698919,870.857086 6.9051745,870.674226 6.6301828,870.665737 L6.6301828,870.665737 L0.917504396,870.53175 C0.61446352,870.52354 0.365325287,870.290353 0.345531577,869.987553 L0.345531577,869.987553 L-0.169115649,862.687083 C-0.188909358,862.384283 0.0217393096,862.124081 0.312956697,862.070686 L0.312956697,862.070686 L5.94233253,861.145014 C6.21127525,861.108674 6.41669833,860.887801 6.45327744,860.612496 C6.58446602,859.685369 6.75497835,858.763461 6.99286358,857.846496 C7.06876642,857.576411 6.95382509,857.297001 6.71678481,857.15347 L6.71678481,857.15347 L1.84040999,854.188811 C1.58082058,854.034283 1.48787944,853.709766 1.61988064,853.439123 L1.61988064,853.439123 L4.8264096,846.864764 C4.95841079,846.594122 5.27135391,846.467568 5.55294352,846.57699 L5.55294352,846.57699 L10.8913225,848.594399 C11.150363,848.692823 11.4355314,848.594601 11.6074053,848.385283 C12.1780273,847.644563 12.7882476,846.937116 13.4548407,846.257164 C13.6437636,846.070121 13.6913428,845.772263 13.5599013,845.526683 L13.5599013,845.526683 L10.8235516,840.520773 C10.6863356,840.258418 10.7616895,839.932228 11.0124853,839.761403 L11.0124853,839.761403 L17.0821827,835.672333 C17.3442531,835.507007 17.6701176,835.554267 17.8631574,835.788012 L17.8631574,835.788012 L21.485817,840.207174 C21.6618078,840.418644 21.948623,840.488736 22.2057422,840.390793 C23.0774731,840.034242 23.9665276,839.728018 24.8729056,839.472122 C25.1357993,839.390954 25.3186733,839.159083 25.3272032,838.884057 L25.3272032,838.884057 L25.4620569,833.170668 C25.4703123,832.86759 25.7035101,832.618385 26.0062765,832.598543 L26.0062765,832.598543 L27.2315737,832.511342 C27.326577,832.385544 27.4692568,832.296703 27.6346531,832.276024 C29.0270482,832.100372 30.4445316,832 31.874559,832 Z M34.0823207,838.913154 C33.7938064,838.888061 33.5429243,839.126446 33.5429243,839.415017 L33.5429243,839.415017 L33.5429243,844.345815 L33.5359502,844.439607 C33.4900525,844.745023 33.22362,844.973143 32.9157193,844.973143 L32.9157193,844.973143 L31.2849863,844.973143 L30.859029,844.990981 C25.3370051,845.283309 20.4249314,847.92378 17.122697,851.923936 C16.3449628,852.864928 15.6550372,853.893746 15.0654645,854.97275 C14.4758918,856.051755 13.9866719,857.206038 13.622893,858.397961 C13.1097252,860.029014 12.814265,861.753388 12.764786,863.542805 L12.764786,863.542805 L12.7573501,864.081553 L12.7573501,864.094099 L12.7603093,864.43418 C12.9395921,874.728473 21.2425346,883.045059 31.5345494,883.224638 L31.5345494,883.224638 L31.874559,883.227602 L31.8871031,883.227602 L31.8871031,883.215056 L32.1789205,883.211287 C38.1913432,883.055845 43.0388083,878.111394 43.0388083,872.061164 C43.0388083,867.669869 39.4637397,864.094099 35.0733046,864.094099 C32,864.094099 29.4911799,866.603411 29.4911799,869.677318 C29.4911799,871.760047 31.1846335,873.466379 33.2794982,873.466379 C34.4837319,873.466379 35.4747158,872.600667 35.6879655,871.45893 C35.7381419,871.195452 35.9890239,871.032347 36.2399059,871.082533 C37.8831831,871.446383 38.623285,873.541658 37.3939632,874.859047 C36.3653469,875.963144 34.8976872,876.653205 33.2794982,876.653205 C29.4410035,876.653205 26.3049784,873.529112 26.3049784,869.677318 C26.3049784,864.846893 30.2312819,860.907273 35.0733046,860.907273 C37.9208154,860.907273 40.5174441,861.986277 42.4868679,863.742796 C42.750294,863.98118 43.1140729,864.106646 43.4653077,864.106646 L43.4653077,864.106646 L56.5864367,864.094099 L56.6770825,864.087416 C56.9729228,864.043395 57.1999946,863.787279 57.1889649,863.479318 C56.8874951,850.556361 46.8145825,840.017252 34.0823207,838.913154 Z M47.6675813,854.019212 C49.5993728,854.019212 51.1673853,855.587532 51.1673853,857.519702 C51.1548412,859.439326 49.5868287,861.020192 47.6675813,861.020192 C45.7357899,861.020192 44.1677773,859.451872 44.1677773,857.519702 C44.1677773,855.587532 45.7357899,854.019212 47.6675813,854.019212 Z" id="Combined-Shape-Copy-13" fill="#000000" fill-rule="nonzero"></path>
        <path d="M31.874559,896 C49.6119169,896 63.9874559,910.378357 64,928.119192 C64,929.562047 63.8996472,930.992354 63.7114857,932.385023 C63.6738534,932.673593 63.4229714,932.886885 63.1344571,932.886885 L63.1344571,932.886885 L57.0890454,932.886705 C56.9381692,933.681753 56.7552442,934.47181 56.5221832,935.256426 C56.4369008,935.523698 56.5420208,935.806949 56.7739075,935.958665 L56.7739075,935.958665 L61.5438467,939.091701 C61.797885,939.255195 61.8794441,939.582758 61.738078,939.848629 L61.738078,939.848629 L58.3040605,946.307076 C58.1626945,946.572947 57.8455253,946.688502 57.567926,946.56932 L57.567926,946.56932 L52.3032056,944.366832 C52.0477579,944.259428 51.7593352,944.347639 51.580261,944.55083 C50.9841358,945.271184 50.3495977,945.956904 49.6596807,946.613179 C49.4643452,946.793514 49.4063998,947.089531 49.5291907,947.339548 L49.5291907,947.339548 L52.0891697,952.437905 C52.2171461,952.70489 52.1304542,953.028251 51.8738495,953.190219 L51.8738495,953.190219 L45.6651431,957.064969 C45.3974626,957.221048 45.073446,957.162444 44.8886813,956.922104 L44.8886813,956.922104 L41.4224551,952.379206 C41.2539517,952.161723 40.9697574,952.081663 40.7093766,952.170574 C39.8257333,952.496485 38.9265334,952.771494 38.0117769,952.995602 C37.7462105,953.067546 37.5553558,953.292893 37.5372328,953.567454 L37.5372328,953.567454 L37.2030669,959.272656 C37.1842392,959.575262 36.9424863,959.816176 36.6392118,959.825441 L36.6392118,959.825441 L29.3259875,960.086209 C29.022713,960.095473 28.7700842,959.875889 28.726938,959.58296 L28.726938,959.58296 L27.9992908,953.924206 C27.972406,953.654134 27.7588947,953.441139 27.4850715,953.395014 C26.5632151,953.231681 25.6479537,953.029225 24.7399919,952.759601 C24.4727637,952.674352 24.1895266,952.77953 24.0377894,953.011467 L24.0377894,953.011467 L20.904322,957.782438 C20.7408044,958.036531 20.4132641,958.118152 20.1474453,957.976813 L20.1474453,957.976813 L20.1415551,957.987891 L13.6732977,954.548658 C13.4074789,954.40732 13.2919878,954.090134 13.4112023,953.812485 L13.4112023,953.812485 L15.614304,948.54683 C15.7217379,948.291337 15.6335839,948.002897 15.4304438,947.823836 C14.7102654,947.227762 14.0247238,946.593266 13.3686335,945.90338 C13.1883496,945.708053 12.8923748,945.650149 12.6423651,945.772994 L12.6423651,945.772994 L7.54415024,948.334082 C7.27717447,948.462116 6.95386259,948.375467 6.79195418,948.118861 L6.79195418,948.118861 L2.9186375,941.910103 C2.76261934,941.642419 2.8212694,941.318357 3.0616128,941.133533 L3.0616128,941.133533 L7.6045763,937.666189 C7.82206341,937.497631 7.90216031,937.213393 7.81330157,936.952998 C7.48757036,936.069311 7.21273725,935.170057 6.98880225,934.255237 C6.91690955,933.989653 6.6916178,933.798814 6.41708986,933.780733 L6.41708986,933.780733 L0.712567562,933.447458 C0.409997802,933.428677 0.169149462,933.186937 0.159935374,932.883631 L0.159935374,932.883631 L-0.0996156111,925.569647 C-0.108829699,925.266341 0.110771576,925.013649 0.403674997,924.97045 L0.403674997,924.97045 L6.06192708,924.241804 C6.33197421,924.214872 6.54498051,924.001303 6.59114534,923.727442 C6.75461028,922.805458 6.95719283,921.890063 7.22693479,920.981958 C7.31221722,920.714687 7.20709717,920.431436 6.97521045,920.27972 L6.97521045,920.27972 L2.20527127,917.146684 C1.95123298,916.98319 1.86967394,916.655627 2.01104001,916.389756 L2.01104001,916.389756 L5.44505745,909.931309 C5.58642352,909.665438 5.90359267,909.549882 6.18119198,909.669065 L6.18119198,909.669065 L11.4459124,911.871552 C11.7013601,911.978956 11.9897827,911.890746 12.168857,911.687554 C12.7649822,910.9672 13.3995203,910.28148 14.0894373,909.625206 C14.2847728,909.444871 14.3427181,909.148854 14.2199273,908.898837 L14.2199273,908.898837 L11.6599483,903.800479 C11.5319719,903.533495 11.6186638,903.210134 11.8752685,903.048166 L11.8752685,903.048166 L18.0839749,899.173415 C18.3516554,899.017337 18.675672,899.07594 18.8604367,899.31628 L18.8604367,899.31628 L22.3266629,903.859178 C22.4951663,904.076662 22.7793606,904.156721 23.0397414,904.067811 C23.9233847,903.7419 24.8225846,903.466891 25.7373411,903.242782 C26.0029075,903.170839 26.1937622,902.945491 26.2118852,902.67093 L26.2118852,902.67093 L26.5460511,896.965728 C26.5648788,896.663122 26.8066317,896.422208 27.1099061,896.412944 L27.1099061,896.412944 L27.3364081,896.40311 C27.4200579,896.335737 27.5220952,896.290097 27.6346531,896.276024 C29.0270482,896.100372 30.4445316,896 31.874559,896 Z M34.0823207,902.913154 C33.7938064,902.888061 33.5429243,903.126446 33.5429243,903.415017 L33.5429243,903.415017 L33.5429243,908.345815 L33.5359502,908.439607 C33.4900525,908.745023 33.22362,908.973143 32.9157193,908.973143 L32.9157193,908.973143 L31.2849863,908.973143 L30.859029,908.990981 C25.3370051,909.283309 20.4249314,911.92378 17.122697,915.923936 C16.3449628,916.864928 15.6550372,917.893746 15.0654645,918.97275 C14.4758918,920.051755 13.9866719,921.206038 13.622893,922.397961 C13.1097252,924.029014 12.814265,925.753388 12.764786,927.542805 L12.764786,927.542805 L12.7573501,928.081553 L12.7573501,928.094099 L12.7603093,928.43418 C12.9395921,938.728473 21.2425346,947.045059 31.5345494,947.224638 L31.5345494,947.224638 L31.874559,947.227602 L31.8871031,947.227602 L31.8871031,947.215056 L32.1789205,947.211287 C38.1913432,947.055845 43.0388083,942.111394 43.0388083,936.061164 C43.0388083,931.669869 39.4637397,928.094099 35.0733046,928.094099 C32,928.094099 29.4911799,930.603411 29.4911799,933.677318 C29.4911799,935.760047 31.1846335,937.466379 33.2794982,937.466379 C34.4837319,937.466379 35.4747158,936.600667 35.6879655,935.45893 C35.7381419,935.195452 35.9890239,935.032347 36.2399059,935.082533 C37.8831831,935.446383 38.623285,937.541658 37.3939632,938.859047 C36.3653469,939.963144 34.8976872,940.653205 33.2794982,940.653205 C29.4410035,940.653205 26.3049784,937.529112 26.3049784,933.677318 C26.3049784,928.846893 30.2312819,924.907273 35.0733046,924.907273 C37.9208154,924.907273 40.5174441,925.986277 42.4868679,927.742796 C42.750294,927.98118 43.1140729,928.106646 43.4653077,928.106646 L43.4653077,928.106646 L56.5864367,928.094099 L56.6770825,928.087416 C56.9729228,928.043395 57.1999946,927.787279 57.1889649,927.479318 C56.8874951,914.556361 46.8145825,904.017252 34.0823207,902.913154 Z M47.6675813,918.019212 C49.5993728,918.019212 51.1673853,919.587532 51.1673853,921.519702 C51.1548412,923.439326 49.5868287,925.020192 47.6675813,925.020192 C45.7357899,925.020192 44.1677773,923.451872 44.1677773,921.519702 C44.1677773,919.587532 45.7357899,918.019212 47.6675813,918.019212 Z" id="Combined-Shape-Copy-14" fill="#000000" fill-rule="nonzero"></path>
    </g>
</svg>