<?xml version="1.0" encoding="UTF-8"?>
<svg width="12px" height="12px" viewBox="0 0 12 12" version="1.1" xmlns="http://www.w3.org/2000/svg" xmlns:xlink="http://www.w3.org/1999/xlink">
    <title>Shape</title>
    <g id="Page-1" stroke="none" stroke-width="1" fill="none" fill-rule="evenodd">
        <g id="Community" transform="translate(-893.000000, -21.000000)" fill="#812B00" fill-rule="nonzero">
            <g id="Main-Pane" transform="translate(274.000000, 16.000000)">
                <g id="Remove-Button" transform="translate(619.000000, 3.000000)">
                    <path d="M2.89285714,8.75 C2.71607143,8.75 2.57142857,8.60535714 2.57142857,8.42857143 L2.57142857,7.57142857 C2.57142857,7.39464286 2.71607143,7.25 2.89285714,7.25 L9.10714286,7.25 C9.28392857,7.25 9.42857143,7.39464286 9.42857143,7.57142857 L9.42857143,8.42857143 C9.42857143,8.60535714 9.28392857,8.75 9.10714286,8.75 L2.89285714,8.75 Z M12,3.28571429 L12,12.7142857 C12,13.4241071 11.4241071,14 10.7142857,14 L1.28571429,14 C0.575892857,14 0,13.4241071 0,12.7142857 L0,3.28571429 C0,2.57589286 0.575892857,2 1.28571429,2 L10.7142857,2 C11.4241071,2 12,2.57589286 12,3.28571429 Z M10.7142857,12.5535714 L10.7142857,3.44642857 C10.7142857,3.35803571 10.6419643,3.28571429 10.5535714,3.28571429 L1.44642857,3.28571429 C1.35803571,3.28571429 1.28571429,3.35803571 1.28571429,3.44642857 L1.28571429,12.5535714 C1.28571429,12.6419643 1.35803571,12.7142857 1.44642857,12.7142857 L10.5535714,12.7142857 C10.6419643,12.7142857 10.7142857,12.6419643 10.7142857,12.5535714 Z" id="Shape"></path>
                </g>
            </g>
        </g>
    </g>
</svg>