<?xml version="1.0" encoding="UTF-8"?>
<svg width="17px" height="17px" viewBox="0 0 17 17" version="1.1" xmlns="http://www.w3.org/2000/svg" xmlns:xlink="http://www.w3.org/1999/xlink">
    <title>SettingsIcon</title>
    <g id="SettingsIcon" stroke="none" stroke-width="1" fill="none" fill-rule="evenodd">
        <g id="Group" fill="#000000">
            <path d="M3.5,12 C4.52522718,12 5.40631615,12.6171291 5.79205454,13.5001748 L17,13.5 L17,15.5 L5.79161532,15.50083 C5.40564763,16.3833391 4.52483825,17 3.5,17 C2.47516175,17 1.59435237,16.3833391 1.20838468,15.50083 L0,15.5 L0,13.5 L1.20794546,13.5001748 C1.59368385,12.6171291 2.47477282,12 3.5,12 Z M12.5,6 C13.5252272,6 14.4063162,6.61712907 14.7920545,7.50017484 L17,7.5 L17,9.5 L14.7916153,9.50083003 C14.4056476,10.3833391 13.5248383,11 12.5,11 C11.4751617,11 10.5943524,10.3833391 10.2083847,9.50083003 L0,9.5 L0,7.5 L10.2079455,7.50017484 C10.5936838,6.61712907 11.4747728,6 12.5,6 Z M6.5,0 C7.52522718,0 8.40631615,0.617129067 8.79205454,1.50017484 L17,1.5 L17,3.5 L8.79161532,3.50083003 C8.40564763,4.38333908 7.52483825,5 6.5,5 C5.47516175,5 4.59435237,4.38333908 4.20838468,3.50083003 L0,3.5 L0,1.5 L4.20794546,1.50017484 C4.59368385,0.617129067 5.47477282,0 6.5,0 Z" id="Shape"></path>
        </g>
    </g>
</svg>