<?xml version="1.0" encoding="UTF-8"?>
<svg width="12px" height="11px" viewBox="0 0 12 11" version="1.1" xmlns="http://www.w3.org/2000/svg" xmlns:xlink="http://www.w3.org/1999/xlink">
    <title>SyncWorking</title>
    <g id="Page-1" stroke="none" stroke-width="1" fill="none" fill-rule="evenodd" fill-opacity="0.1">
        <g id="Community" transform="translate(-968.000000, -5.000000)" fill="#000000" fill-rule="nonzero">
            <path d="M974,5 C977.037566,5 979.5,7.46243388 979.5,10.5 C979.5,13.5375661 977.037566,16 974,16 C970.962434,16 968.5,13.5375661 968.5,10.5 C968.5,7.46243388 970.962434,5 974,5 Z M974,6 C971.514719,6 969.5,8.01471863 969.5,10.5 C969.5,12.9852814 971.514719,15 974,15 C976.485281,15 978.5,12.9852814 978.5,10.5 C978.5,8.01471863 976.485281,6 974,6 Z M972,9.75 C972.414214,9.75 972.75,10.0857864 972.75,10.5 C972.75,10.9142136 972.414214,11.25 972,11.25 C971.585786,11.25 971.25,10.9142136 971.25,10.5 C971.25,10.0857864 971.585786,9.75 972,9.75 Z M974,9.75 C974.414214,9.75 974.75,10.0857864 974.75,10.5 C974.75,10.9142136 974.414214,11.25 974,11.25 C973.585786,11.25 973.25,10.9142136 973.25,10.5 C973.25,10.0857864 973.585786,9.75 974,9.75 Z M976,9.75 C976.414214,9.75 976.75,10.0857864 976.75,10.5 C976.75,10.9142136 976.414214,11.25 976,11.25 C975.585786,11.25 975.25,10.9142136 975.25,10.5 C975.25,10.0857864 975.585786,9.75 976,9.75 Z" id="SyncWorking"></path>
        </g>
    </g>
</svg>