<?xml version="1.0" encoding="UTF-8"?>
<svg width="12px" height="11px" viewBox="0 0 12 11" version="1.1" xmlns="http://www.w3.org/2000/svg" xmlns:xlink="http://www.w3.org/1999/xlink">
    <title>Combined Shape</title>
    <g id="Page-1" stroke="none" stroke-width="1" fill="none" fill-rule="evenodd">
        <g id="Community" transform="translate(-968.000000, -5.000000)" fill="#ECA731">
            <path d="M974,5 C977.037566,5 979.5,7.46243388 979.5,10.5 C979.5,13.5375661 977.037566,16 974,16 C970.962434,16 968.5,13.5375661 968.5,10.5 C968.5,7.46243388 970.962434,5 974,5 Z M974,11.9835824 C973.758029,11.9835824 973.550842,12.0697845 973.378438,12.2421885 C973.206034,12.4145926 973.119832,12.62178 973.119832,12.8637506 C973.119832,13.1057212 973.206034,13.3113963 973.378438,13.4807757 C973.550842,13.6501552 973.758029,13.7348449 974,13.7348449 C974.241971,13.7348449 974.449158,13.6501552 974.621562,13.4807757 C974.793966,13.3113963 974.880168,13.1057212 974.880168,12.8637506 C974.880168,12.62178 974.793966,12.4145926 974.621562,12.2421885 C974.449158,12.0697845 974.241971,11.9835824 974,11.9835824 Z M974.852946,7.26515512 L973.147054,7.26515512 L973.355753,11.1941532 L974.644247,11.1941532 L974.852946,7.26515512 Z" id="Combined-Shape"></path>
        </g>
    </g>
</svg>