<?xml version="1.0" encoding="UTF-8"?>
<svg width="54px" height="54px" viewBox="0 0 54 54" version="1.1" xmlns="http://www.w3.org/2000/svg" xmlns:xlink="http://www.w3.org/1999/xlink">
    <title>BarItemIconLink</title>
    <g id="Page-1" stroke="none" stroke-width="1" fill="none" fill-rule="evenodd">
        <g id="Community" transform="translate(-1009.000000, -137.000000)">
            <g id="Right-Pane" transform="translate(984.500000, 0.000000)">
                <g id="BarItemIconLink" transform="translate(24.500000, 137.000000)">
                    <rect id="Rectangle" fill="#002957" x="0" y="26" width="54" height="28"></rect>
                    <circle id="Oval" stroke="#002957" fill="#FFFFFF" cx="27" cy="18" r="17.5"></circle>
                    <path d="M29.7578039,15.2413572 C32.0916717,17.5776469 32.0596404,21.3233118 29.7718664,23.6237812 C29.7675695,23.6284687 29.7624914,23.6335468 29.7578039,23.6382343 L27.1328033,26.2632349 C24.8175683,28.5784699 21.0508096,28.5781574 18.7359262,26.2632349 C16.4206913,23.9483906 16.4206913,20.1812022 18.7359262,17.8663579 L20.1853797,16.4169044 C20.5697548,16.0325293 21.2317081,16.2879981 21.2515518,16.8312014 C21.2768643,17.5234672 21.401005,18.2189752 21.6300675,18.8906159 C21.7076457,19.1180379 21.652216,19.3696004 21.4822941,19.5395224 L20.971083,20.0507334 C19.8763171,21.1454993 19.8419812,22.9280779 20.9259658,24.0335469 C22.0206536,25.1499143 23.8199509,25.156555 24.9230371,24.0534688 L27.5480377,21.4288587 C28.6492489,20.3276475 28.6446396,18.5477252 27.5480377,17.4511234 C27.4034674,17.3068265 27.2578423,17.1947171 27.1440923,17.1163968 C26.9809204,17.0043466 26.8803047,16.8217698 26.8727251,16.6239748 C26.8572563,16.2112012 27.0035063,15.7858496 27.3296783,15.4596776 L28.1521004,14.6372165 C28.3677645,14.4215524 28.7060849,14.395068 28.9561631,14.5695993 C29.2425571,14.7695796 29.5108046,14.9943653 29.7578039,15.2413572 Z M35.2630787,9.73580902 C32.9481953,7.42088658 29.1814366,7.42057408 26.8662016,9.73580902 L24.241201,12.3608097 C24.2365135,12.3654972 24.2314354,12.3705753 24.2271385,12.3752628 C21.9394035,14.6757321 21.9073332,18.4213971 24.241201,20.7576867 C24.4881857,21.0046675 24.7564204,21.2294404 25.0428027,21.4294056 C25.2928809,21.6039369 25.6312404,21.5774135 25.8468654,21.3617884 L26.6692875,20.5393273 C26.9954595,20.2131553 27.1417095,19.7878037 27.1262408,19.3750301 C27.1186611,19.1772351 27.0180455,18.9946583 26.8548735,18.8826081 C26.7411235,18.8042878 26.5954984,18.6921784 26.4509281,18.5478815 C25.3543263,17.4512797 25.3497169,15.6713573 26.4509281,14.5701461 L29.0759287,11.9455361 C30.1790149,10.8424499 31.9782732,10.8490905 33.073,11.965458 C34.1569847,13.070927 34.1226878,14.8535056 33.0278828,15.9482715 L32.5166718,16.4594825 C32.3467498,16.6294045 32.2913201,16.880967 32.3688983,17.1083889 C32.5979608,17.7800297 32.7221015,18.4755377 32.747414,19.1678035 C32.7672968,19.7110068 33.429211,19.9664756 33.8135861,19.5821005 L35.2630396,18.132647 C37.5783136,15.8178418 37.5783136,12.0506533 35.2630787,9.73580902 L35.2630787,9.73580902 Z" id="Shape" fill="#002957" fill-rule="nonzero"></path>
                </g>
            </g>
        </g>
    </g>
</svg>