<?xml version="1.0" encoding="UTF-8"?>
<svg width="54px" height="54px" viewBox="0 0 54 54" version="1.1" xmlns="http://www.w3.org/2000/svg" xmlns:xlink="http://www.w3.org/1999/xlink">
    <title>BarItemLibraryIconMagnify</title>
    <g id="BarItemLibraryIconMagnify" stroke="none" stroke-width="1" fill="none" fill-rule="evenodd">
        <g id="Group">
            <rect id="Rectangle" stroke="#008145" fill="#FFFFFF" x="0.5" y="8.5" width="53" height="37"></rect>
            <polygon id="Shape" fill="#008145" points="26.5 26 26.5 46 0 46 0 26"></polygon>
            <polygon id="Shape-Copy" fill="#008145" points="54 26 54 46 27.5 46 27.5 26"></polygon>
        </g>
        <path d="M10.908,37.386 C11.308,37.386 11.652,37.298 11.94,37.122 C12.228,36.946 12.447,36.693 12.597,36.363 C12.747,36.033 12.822,35.642 12.822,35.19 C12.822,34.498 12.654,33.96 12.318,33.576 C11.982,33.192 11.512,33 10.908,33 C10.508,33 10.165,33.088 9.879,33.264 C9.593,33.44 9.375,33.692 9.225,34.02 C9.075,34.348 9,34.738 9,35.19 C9,35.886 9.167,36.426 9.501,36.81 C9.835,37.194 10.304,37.386 10.908,37.386 Z M10.908,36.588 C10.652,36.588 10.462,36.479 10.338,36.261 C10.214,36.043 10.152,35.686 10.152,35.19 C10.152,34.694 10.213,34.338 10.335,34.122 C10.457,33.906 10.648,33.798 10.908,33.798 C11.172,33.798 11.364,33.906 11.484,34.122 C11.604,34.338 11.664,34.694 11.664,35.19 C11.664,35.69 11.604,36.048 11.484,36.264 C11.364,36.48 11.172,36.588 10.908,36.588 Z M14.358,37.278 L14.358,35.118 C14.51,34.874 14.67,34.752 14.838,34.752 C14.918,34.752 14.978,34.779 15.018,34.833 C15.058,34.887 15.078,34.984 15.078,35.124 L15.078,35.124 L15.078,37.278 L16.146,37.278 L16.146,34.932 C16.146,34.628 16.068,34.392 15.912,34.224 C15.756,34.056 15.542,33.972 15.27,33.972 C15.078,33.972 14.904,34.01 14.748,34.086 C14.592,34.162 14.442,34.28 14.298,34.44 L14.298,34.44 L14.22,34.08 L13.29,34.08 L13.29,37.278 L14.358,37.278 Z" id="On" fill="#FFFFFF" fill-rule="nonzero"></path>
        <path d="M37.908,37.674 C38.308,37.674 38.652,37.586 38.94,37.41 C39.228,37.234 39.447,36.981 39.597,36.651 C39.747,36.321 39.822,35.93 39.822,35.478 C39.822,34.786 39.654,34.248 39.318,33.864 C38.982,33.48 38.512,33.288 37.908,33.288 C37.508,33.288 37.165,33.376 36.879,33.552 C36.593,33.728 36.375,33.98 36.225,34.308 C36.075,34.636 36,35.026 36,35.478 C36,36.174 36.167,36.714 36.501,37.098 C36.835,37.482 37.304,37.674 37.908,37.674 Z M37.908,36.876 C37.652,36.876 37.462,36.767 37.338,36.549 C37.214,36.331 37.152,35.974 37.152,35.478 C37.152,34.982 37.213,34.626 37.335,34.41 C37.457,34.194 37.648,34.086 37.908,34.086 C38.172,34.086 38.364,34.194 38.484,34.41 C38.604,34.626 38.664,34.982 38.664,35.478 C38.664,35.978 38.604,36.336 38.484,36.552 C38.364,36.768 38.172,36.876 37.908,36.876 Z M41.502,37.566 L41.502,35.1 L42.132,35.1 L42.252,34.368 L41.502,34.368 L41.502,34.188 C41.502,34.036 41.53,33.929 41.586,33.867 C41.642,33.805 41.734,33.774 41.862,33.774 C42.026,33.774 42.186,33.814 42.342,33.894 L42.342,33.894 L42.63,33.21 C42.51,33.146 42.37,33.095 42.21,33.057 C42.05,33.019 41.888,33 41.724,33 C41.308,33 40.989,33.107 40.767,33.321 C40.545,33.535 40.434,33.808 40.434,34.14 L40.434,34.14 L40.434,34.368 L39.978,34.368 L39.978,35.1 L40.434,35.1 L40.434,37.566 L41.502,37.566 Z M43.68,37.566 L43.68,35.1 L44.31,35.1 L44.43,34.368 L43.68,34.368 L43.68,34.188 C43.68,34.036 43.708,33.929 43.764,33.867 C43.82,33.805 43.912,33.774 44.04,33.774 C44.204,33.774 44.364,33.814 44.52,33.894 L44.52,33.894 L44.808,33.21 C44.688,33.146 44.548,33.095 44.388,33.057 C44.228,33.019 44.066,33 43.902,33 C43.486,33 43.167,33.107 42.945,33.321 C42.723,33.535 42.612,33.808 42.612,34.14 L42.612,34.14 L42.612,34.368 L42.156,34.368 L42.156,35.1 L42.612,35.1 L42.612,37.566 L43.68,37.566 Z" id="Off" fill="#FFFFFF" fill-rule="nonzero"></path>
        <path d="M10.72,20.24 L10.904,17.808 C10.9733333,16.9333333 11.008,16.1626667 11.008,15.496 L11.008,15.496 L12.264,19.616 L12.976,19.616 L14.168,15.504 C14.1786667,16.0266667 14.224,16.776 14.304,17.752 L14.304,17.752 L14.496,20.24 L15.232,20.24 L14.776,14.728 L13.744,14.728 L12.64,18.736 L11.48,14.728 L10.456,14.728 L10,20.24 L10.72,20.24 Z M19.512,20.336 L19.68,19.824 C19.5626667,19.7813333 19.4746667,19.7186667 19.416,19.636 C19.3573333,19.5533333 19.328,19.4266667 19.328,19.256 L19.328,19.256 L19.328,17.328 C19.328,16.88 19.2053333,16.5346667 18.96,16.292 C18.7146667,16.0493333 18.344,15.928 17.848,15.928 C17.4,15.928 16.9146667,16.024 16.392,16.216 L16.392,16.216 L16.576,16.752 C17.024,16.6026667 17.4026667,16.528 17.712,16.528 C18.0106667,16.528 18.232,16.592 18.376,16.72 C18.52,16.848 18.592,17.0613333 18.592,17.36 L18.592,17.36 L18.592,17.672 L17.944,17.672 C17.352,17.672 16.8946667,17.792 16.572,18.032 C16.2493333,18.272 16.088,18.616 16.088,19.064 C16.088,19.4426667 16.208,19.7493333 16.448,19.984 C16.688,20.2186667 17.016,20.336 17.432,20.336 C17.9866667,20.336 18.4053333,20.1253333 18.688,19.704 C18.752,19.9066667 18.8506667,20.056 18.984,20.152 C19.1173333,20.248 19.2933333,20.3093333 19.512,20.336 L19.512,20.336 Z M17.6,19.784 C17.36,19.784 17.1786667,19.72 17.056,19.592 C16.9333333,19.464 16.872,19.2746667 16.872,19.024 C16.872,18.448 17.2613333,18.16 18.04,18.16 L18.04,18.16 L18.592,18.16 L18.592,19.128 C18.352,19.5653333 18.0213333,19.784 17.6,19.784 Z M22.088,21.944 C22.7333333,21.944 23.224,21.8333333 23.56,21.612 C23.896,21.3906667 24.064,21.0746667 24.064,20.664 C24.064,20.44 24.004,20.24 23.884,20.064 C23.764,19.888 23.5946667,19.7493333 23.376,19.648 C23.1573333,19.5466667 22.9066667,19.496 22.624,19.496 L22.624,19.496 L21.952,19.496 C21.584,19.496 21.4,19.3813333 21.4,19.152 C21.4,19.0773333 21.4186667,19.004 21.456,18.932 C21.4933333,18.86 21.544,18.8026667 21.608,18.76 C21.7733333,18.8133333 21.952,18.84 22.144,18.84 C22.64,18.84 23.032,18.7066667 23.32,18.44 C23.608,18.1733333 23.752,17.8293333 23.752,17.408 C23.752,16.9226667 23.504,16.568 23.008,16.344 C23.2853333,16.344 23.52,16.336 23.712,16.32 C23.904,16.304 24.08,16.2693333 24.24,16.216 L24.24,16.216 L24.024,15.552 C23.8106667,15.648 23.6306667,15.7213333 23.484,15.772 C23.3373333,15.8226667 23.152,15.8626667 22.928,15.892 C22.704,15.9213333 22.4266667,15.9333333 22.096,15.928 C21.792,15.928 21.516,15.9906667 21.268,16.116 C21.02,16.2413333 20.8253333,16.416 20.684,16.64 C20.5426667,16.864 20.472,17.1173333 20.472,17.4 C20.472,17.672 20.5293333,17.9026667 20.644,18.092 C20.7586667,18.2813333 20.9386667,18.44 21.184,18.568 C21.0346667,18.6693333 20.92,18.784 20.84,18.912 C20.76,19.04 20.72,19.1733333 20.72,19.312 C20.72,19.5413333 20.812,19.732 20.996,19.884 C21.18,20.036 21.4506667,20.112 21.808,20.112 L21.808,20.112 L22.472,20.112 C22.7386667,20.112 22.9466667,20.1626667 23.096,20.264 C23.2453333,20.3653333 23.32,20.5146667 23.32,20.712 C23.32,20.9306667 23.2253333,21.0946667 23.036,21.204 C22.8466667,21.3133333 22.5306667,21.368 22.088,21.368 C21.784,21.368 21.5493333,21.3426667 21.384,21.292 C21.2186667,21.2413333 21.104,21.1666667 21.04,21.068 C20.976,20.9693333 20.944,20.8346667 20.944,20.664 L20.944,20.664 L20.28,20.664 C20.28,20.9573333 20.336,21.1973333 20.448,21.384 C20.56,21.5706667 20.748,21.7106667 21.012,21.804 C21.276,21.8973333 21.6346667,21.944 22.088,21.944 Z M22.112,18.352 C21.8293333,18.352 21.6106667,18.2653333 21.456,18.092 C21.3013333,17.9186667 21.224,17.688 21.224,17.4 C21.224,17.1173333 21.3,16.8893333 21.452,16.716 C21.604,16.5426667 21.8186667,16.456 22.096,16.456 C22.6986667,16.456 23,16.768 23,17.392 C23,17.696 22.924,17.932 22.772,18.1 C22.62,18.268 22.4,18.352 22.112,18.352 Z M25.736,20.24 L25.736,17.248 C25.8853333,17.008 26.0453333,16.824 26.216,16.696 C26.3866667,16.568 26.584,16.504 26.808,16.504 C27.0266667,16.504 27.192,16.5653333 27.304,16.688 C27.416,16.8106667 27.472,17.0213333 27.472,17.32 L27.472,17.32 L27.472,20.24 L28.208,20.24 L28.208,17.216 C28.208,16.816 28.1,16.5013333 27.884,16.272 C27.668,16.0426667 27.368,15.928 26.984,15.928 C26.7173333,15.928 26.4733333,15.992 26.252,16.12 C26.0306667,16.248 25.8453333,16.424 25.696,16.648 L25.696,16.648 L25.632,16.024 L25,16.024 L25,20.24 L25.736,20.24 Z M30.048,15 C30.2026667,15 30.328,14.9533333 30.424,14.86 C30.52,14.7666667 30.568,14.648 30.568,14.504 C30.568,14.36 30.52,14.24 30.424,14.144 C30.328,14.048 30.2026667,14 30.048,14 C29.8986667,14 29.776,14.048 29.68,14.144 C29.584,14.24 29.536,14.36 29.536,14.504 C29.536,14.648 29.584,14.7666667 29.68,14.86 C29.776,14.9533333 29.8986667,15 30.048,15 Z M30.424,20.24 L30.424,16.024 L29.688,16.024 L29.688,20.24 L30.424,20.24 Z M32.672,20.24 L32.672,16.592 L34.288,16.592 L34.288,20.24 L35.024,20.24 L35.024,16.024 L32.672,16.024 L32.672,15.464 C32.672,15.2506667 32.7253333,15.0933333 32.832,14.992 C32.9386667,14.8906667 33.1333333,14.84 33.416,14.84 C33.7306667,14.84 34.0266667,14.9066667 34.304,15.04 L34.304,15.04 L34.56,14.528 C34.3733333,14.432 34.188,14.36 34.004,14.312 C33.82,14.264 33.616,14.24 33.392,14.24 C32.9013333,14.24 32.536,14.352 32.296,14.576 C32.056,14.8 31.936,15.0986667 31.936,15.472 L31.936,15.472 L31.936,16.024 L31.264,16.024 L31.264,16.592 L31.936,16.592 L31.936,20.24 L32.672,20.24 Z M38.104,20.336 C38.6373333,20.336 39.128,20.16 39.576,19.808 L39.576,19.808 L39.256,19.368 C39.0693333,19.496 38.8906667,19.5893333 38.72,19.648 C38.5493333,19.7066667 38.3626667,19.736 38.16,19.736 C37.84,19.736 37.5786667,19.6266667 37.376,19.408 C37.1733333,19.1893333 37.056,18.848 37.024,18.384 L37.024,18.384 L39.712,18.384 C39.7226667,18.256 39.728,18.1306667 39.728,18.008 C39.728,17.3573333 39.5786667,16.848 39.28,16.48 C38.9813333,16.112 38.552,15.928 37.992,15.928 C37.6346667,15.928 37.324,16.024 37.06,16.216 C36.796,16.408 36.5933333,16.6733333 36.452,17.012 C36.3106667,17.3506667 36.24,17.7386667 36.24,18.176 C36.24,18.848 36.404,19.376 36.732,19.76 C37.06,20.144 37.5173333,20.336 38.104,20.336 Z M39,17.84 L37.024,17.84 C37.0773333,16.9546667 37.4053333,16.512 38.008,16.512 C38.3386667,16.512 38.5866667,16.6213333 38.752,16.84 C38.9173333,17.0586667 39,17.376 39,17.792 L39,17.792 L39,17.84 Z M41.64,20.24 L41.64,17.832 C41.7306667,17.4266667 41.856,17.128 42.016,16.936 C42.176,16.744 42.3866667,16.648 42.648,16.648 C42.7653333,16.648 42.888,16.664 43.016,16.696 L43.016,16.696 L43.152,15.976 C43.024,15.944 42.8853333,15.928 42.736,15.928 C42.48,15.928 42.256,16.008 42.064,16.168 C41.872,16.328 41.72,16.5653333 41.608,16.88 L41.608,16.88 L41.536,16.024 L40.904,16.024 L40.904,20.24 L41.64,20.24 Z" id="Magnifer" fill="#000000" fill-rule="nonzero"></path>
    </g>
</svg>