<?xml version="1.0" encoding="UTF-8"?>
<svg width="54px" height="54px" viewBox="0 0 54 54" version="1.1" xmlns="http://www.w3.org/2000/svg" xmlns:xlink="http://www.w3.org/1999/xlink">
    <title>BarItemLibraryIconGmail</title>
    <g id="BarItemLibraryIconGmail" stroke="none" stroke-width="1" fill="none" fill-rule="evenodd">
        <g id="Group" transform="translate(0.084802, 0.000000)">
            <path d="M27,0 C36.9411255,0 45,8.0588745 45,18 C45,20.8738745 44.326498,23.5904442 43.1287212,26.0004819 L54,26 L54,54 L0,54 L0,26 L10.8712788,26.0004819 C9.67350198,23.5904442 9,20.8738745 9,18 C9,8.0588745 17.0588745,0 27,0 Z" id="Shape" fill="#002957"></path>
            <path d="M27,1 C17.6111593,1 10,8.61115925 10,18 C10,27.3888407 17.6111593,35 27,35 C36.3888407,35 44,27.3888407 44,18 C44,8.61115925 36.3888407,1 27,1 Z" id="Path" fill="#FFFFFF"></path>
        </g>
        <path d="M36.6774194,18.233871 C36.6774194,23.9395161 32.7701613,28 27,28 C21.4677419,28 17,23.5322581 17,18 C17,12.4677419 21.4677419,8 27,8 C29.6935484,8 31.9596774,8.98790323 33.7056452,10.6169355 L30.983871,13.233871 C27.4233871,9.7983871 20.8024194,12.3790323 20.8024194,18 C20.8024194,21.4879032 23.5887097,24.3145161 27,24.3145161 C30.9596774,24.3145161 32.4435484,21.4758065 32.6774194,20.0040323 L27,20.0040323 L27,16.5645161 L36.5201613,16.5645161 C36.6129032,17.0766129 36.6774194,17.5685484 36.6774194,18.233871 Z" id="Path" fill="#002957" fill-rule="nonzero"></path>
    </g>
</svg>