<?xml version="1.0" encoding="UTF-8"?>
<svg width="54px" height="54px" viewBox="0 0 54 54" version="1.1" xmlns="http://www.w3.org/2000/svg" xmlns:xlink="http://www.w3.org/1999/xlink">
    <title>BarItemLibraryIconEmail</title>
    <g id="BarItemLibraryIconEmail" stroke="none" stroke-width="1" fill="none" fill-rule="evenodd">
        <g id="Group" transform="translate(0.084802, 0.000000)">
            <path d="M27,0 C36.9411255,0 45,8.0588745 45,18 C45,20.8738745 44.326498,23.5904442 43.1287212,26.0004819 L54,26 L54,54 L0,54 L0,26 L10.8712788,26.0004819 C9.67350198,23.5904442 9,20.8738745 9,18 C9,8.0588745 17.0588745,0 27,0 Z" id="Shape" fill="#002957"></path>
            <path d="M27,1 C17.6111593,1 10,8.61115925 10,18 C10,27.3888407 17.6111593,35 27,35 C36.3888407,35 44,27.3888407 44,18 C44,8.61115925 36.3888407,1 27,1 Z" id="Path" fill="#FFFFFF"></path>
        </g>
        <path d="M36.6210938,14.953125 C36.7734375,14.8320312 37,14.9453125 37,15.1367188 L37,23.125 C37,24.1601562 36.1601562,25 35.125,25 L18.875,25 C17.8398438,25 17,24.1601562 17,23.125 L17,15.140625 C17,14.9453125 17.2226562,14.8359375 17.3789062,14.9570312 C18.2539062,15.6367188 19.4140625,16.5 23.3984375,19.3945312 C24.2226562,19.9960938 25.6132812,21.2617188 27,21.2539062 C28.3945312,21.265625 29.8125,19.9726562 30.6054688,19.3945312 C34.5898438,16.5 35.7460938,15.6328125 36.6210938,14.953125 Z M27,20 C27.90625,20.015625 29.2109375,18.859375 29.8671875,18.3828125 C35.0507812,14.6210938 35.4453125,14.2929688 36.640625,13.3554688 C36.8671875,13.1796875 37,12.90625 37,12.6171875 L37,11.875 C37,10.8398438 36.1601562,10 35.125,10 L18.875,10 C17.8398438,10 17,10.8398437 17,11.875 L17,12.6171875 C17,12.90625 17.1328125,13.1757812 17.359375,13.3554687 C18.5546875,14.2890625 18.9492188,14.6210938 24.1328125,18.3828125 C24.7890625,18.859375 26.09375,20.015625 27,20 Z" id="Shape" fill="#002957" fill-rule="nonzero"></path>
    </g>
</svg>