<?xml version="1.0" encoding="UTF-8"?>
<svg width="54px" height="54px" viewBox="0 0 54 54" version="1.1" xmlns="http://www.w3.org/2000/svg" xmlns:xlink="http://www.w3.org/1999/xlink">
    <title>BarItemLibraryIconCalendar</title>
    <g id="BarItemLibraryIconCalendar" stroke="none" stroke-width="1" fill="none" fill-rule="evenodd">
        <g id="Group" transform="translate(0.084802, 0.000000)">
            <path d="M27,0 C36.9411255,0 45,8.0588745 45,18 C45,20.8738745 44.326498,23.5904442 43.1287212,26.0004819 L54,26 L54,54 L0,54 L0,26 L10.8712788,26.0004819 C9.67350198,23.5904442 9,20.8738745 9,18 C9,8.0588745 17.0588745,0 27,0 Z" id="Shape" fill="#002957"></path>
            <path d="M27,1 C17.6111593,1 10,8.61115925 10,18 C10,27.3888407 17.6111593,35 27,35 C36.3888407,35 44,27.3888407 44,18 C44,8.61115925 36.3888407,1 27,1 Z" id="Path" fill="#FFFFFF"></path>
        </g>
        <path d="M18.5574597,15.5 L35.1199597,15.5 C35.3777722,15.5 35.5887097,15.7109375 35.5887097,15.96875 L35.5887097,26.125 C35.5887097,27.1601562 34.7488659,28 33.7137097,28 L19.9637097,28 C18.9285534,28 18.0887097,27.1601562 18.0887097,26.125 L18.0887097,15.96875 C18.0887097,15.7109375 18.2996472,15.5 18.5574597,15.5 Z M35.5887097,13.78125 L35.5887097,12.375 C35.5887097,11.3398438 34.7488659,10.5 33.7137097,10.5 L31.8387097,10.5 L31.8387097,8.46875 C31.8387097,8.2109375 31.6277722,8 31.3699597,8 L29.8074597,8 C29.5496472,8 29.3387097,8.2109375 29.3387097,8.46875 L29.3387097,10.5 L24.3387097,10.5 L24.3387097,8.46875 C24.3387097,8.2109375 24.1277722,8 23.8699597,8 L22.3074597,8 C22.0496472,8 21.8387097,8.2109375 21.8387097,8.46875 L21.8387097,10.5 L19.9637097,10.5 C18.9285534,10.5 18.0887097,11.3398438 18.0887097,12.375 L18.0887097,13.78125 C18.0887097,14.0390625 18.2996472,14.25 18.5574597,14.25 L35.1199597,14.25 C35.3777722,14.25 35.5887097,14.0390625 35.5887097,13.78125 Z" id="Shape" fill="#002957" fill-rule="nonzero"></path>
    </g>
</svg>