<?xml version="1.0" encoding="UTF-8"?>
<svg width="54px" height="54px" viewBox="0 0 54 54" version="1.1" xmlns="http://www.w3.org/2000/svg" xmlns:xlink="http://www.w3.org/1999/xlink">
    <title>BarItemLibraryIconSkype</title>
    <g id="BarItemLibraryIconSkype" stroke="none" stroke-width="1" fill="none" fill-rule="evenodd">
        <g id="Group" transform="translate(0.084802, 0.000000)">
            <path d="M27,0 C36.9411255,0 45,8.0588745 45,18 C45,20.8738745 44.326498,23.5904442 43.1287212,26.0004819 L54,26 L54,54 L0,54 L0,26 L10.8712788,26.0004819 C9.67350198,23.5904442 9,20.8738745 9,18 C9,8.0588745 17.0588745,0 27,0 Z" id="Shape" fill="#002957"></path>
            <path d="M27,1 C17.6111593,1 10,8.61115925 10,18 C10,27.3888407 17.6111593,35 27,35 C36.3888407,35 44,27.3888407 44,18 C44,8.61115925 36.3888407,1 27,1 Z" id="Path" fill="#FFFFFF"></path>
        </g>
        <path d="M28.6736111,11 L18.6597222,11 C17.7430556,11 17,11.7430556 17,12.6597222 L17,22.6736111 C17,23.5902778 17.7430556,24.3333333 18.6597222,24.3333333 L28.6736111,24.3333333 C29.5902778,24.3333333 30.3333333,23.5902778 30.3333333,22.6736111 L30.3333333,12.6597222 C30.3333333,11.7430556 29.5902778,11 28.6736111,11 Z M35.25,12.3090278 L31.4444444,14.9340278 L31.4444444,20.3993056 L35.25,23.0208333 C35.9861111,23.5277778 37,23.0104167 37,22.125 L37,13.2048611 C37,12.3229167 35.9895833,11.8020833 35.25,12.3090278 Z" id="Shape" fill="#002957" fill-rule="nonzero"></path>
    </g>
</svg>