<?xml version="1.0" encoding="UTF-8"?>
<svg width="54px" height="54px" viewBox="0 0 54 54" version="1.1" xmlns="http://www.w3.org/2000/svg" xmlns:xlink="http://www.w3.org/1999/xlink">
    <title>BarItemLibraryIconCopyPaste</title>
    <g id="BarItemLibraryIconCopyPaste" stroke="none" stroke-width="1" fill="none" fill-rule="evenodd">
        <g id="Group" transform="translate(0.084802, 0.000000)">
            <rect id="Rectangle" stroke="#008145" fill="#FFFFFF" x="0.5" y="8.5" width="53" height="37"></rect>
            <polygon id="Shape" fill="#008145" points="26.5 26 26.5 46 0 46 0 26"></polygon>
            <polygon id="Shape-Copy" fill="#008145" points="54 26 54 46 27.5 46 27.5 26"></polygon>
        </g>
        <path d="M5.784,19.704 C6.13066667,19.704 6.43733333,19.6453333 6.704,19.528 C6.97066667,19.4106667 7.18933333,19.264 7.36,19.088 L7.36,19.088 L6.984,18.608 C6.78666667,18.752 6.6,18.864 6.424,18.944 C6.248,19.024 6.04266667,19.064 5.808,19.064 C5.34933333,19.064 4.98133333,18.884 4.704,18.524 C4.42666667,18.164 4.288,17.6053333 4.288,16.848 C4.288,16.0693333 4.428,15.504 4.708,15.152 C4.988,14.8 5.35733333,14.624 5.816,14.624 C6.18933333,14.624 6.544,14.76 6.88,15.032 L6.88,15.032 L7.296,14.544 C7.06133333,14.352 6.83066667,14.2133333 6.604,14.128 C6.37733333,14.0426667 6.09866667,14 5.768,14 C5.34133333,14 4.95466667,14.1093333 4.608,14.328 C4.26133333,14.5466667 3.98666667,14.8706667 3.784,15.3 C3.58133333,15.7293333 3.48,16.2453333 3.48,16.848 C3.48,17.4506667 3.57733333,17.9666667 3.772,18.396 C3.96666667,18.8253333 4.23866667,19.1506667 4.588,19.372 C4.93733333,19.5933333 5.336,19.704 5.784,19.704 Z M9.856,19.704 C10.2453333,19.704 10.5813333,19.612 10.864,19.428 C11.1466667,19.244 11.3626667,18.9853333 11.512,18.652 C11.6613333,18.3186667 11.736,17.9333333 11.736,17.496 C11.736,16.8186667 11.572,16.2826667 11.244,15.888 C10.916,15.4933333 10.456,15.296 9.864,15.296 C9.46933333,15.296 9.13066667,15.388 8.848,15.572 C8.56533333,15.756 8.34933333,16.0146667 8.2,16.348 C8.05066667,16.6813333 7.976,17.0666667 7.976,17.504 C7.976,18.1813333 8.14133333,18.7173333 8.472,19.112 C8.80266667,19.5066667 9.264,19.704 9.856,19.704 Z M9.856,19.112 C9.13066667,19.112 8.768,18.576 8.768,17.504 C8.768,16.4266667 9.13333333,15.888 9.864,15.888 C10.584,15.888 10.944,16.424 10.944,17.496 C10.944,18.5733333 10.5813333,19.112 9.856,19.112 Z M12.952,21.312 L13.688,21.224 L13.688,19.224 C13.9546667,19.544 14.3226667,19.704 14.792,19.704 C15.32,19.704 15.728,19.5013333 16.016,19.096 C16.304,18.6906667 16.448,18.1573333 16.448,17.496 C16.448,16.7973333 16.3226667,16.256 16.072,15.872 C15.8213333,15.488 15.4266667,15.296 14.888,15.296 C14.648,15.296 14.4186667,15.3533333 14.2,15.468 C13.9813333,15.5826667 13.7946667,15.7466667 13.64,15.96 L13.64,15.96 L13.584,15.392 L12.952,15.392 L12.952,21.312 Z M14.616,19.104 C14.424,19.104 14.248,19.06 14.088,18.972 C13.928,18.884 13.7946667,18.7573333 13.688,18.592 L13.688,18.592 L13.688,16.536 C13.816,16.344 13.9653333,16.1866667 14.136,16.064 C14.3066667,15.9413333 14.496,15.88 14.704,15.88 C15.3386667,15.88 15.656,16.4186667 15.656,17.496 C15.656,18.568 15.3093333,19.104 14.616,19.104 Z M17.432,21.312 C17.9813333,21.2533333 18.404,21.0813333 18.7,20.796 C18.996,20.5106667 19.2266667,20.1226667 19.392,19.632 L19.392,19.632 L20.8,15.392 L20.04,15.392 L18.936,19.072 L17.808,15.392 L17.024,15.392 L18.44,19.608 L18.688,19.608 C18.6026667,19.848 18.5106667,20.0386667 18.412,20.18 C18.3133333,20.3213333 18.1813333,20.4373333 18.016,20.528 C17.8506667,20.6186667 17.6293333,20.688 17.352,20.736 L17.352,20.736 L17.432,21.312 Z M27.984,19.704 L28.512,19.272 L27.616,18.432 C27.904,18 28.1413333,17.4746667 28.328,16.856 L28.328,16.856 L27.64,16.656 C27.5333333,17.1253333 27.3733333,17.576 27.16,18.008 L27.16,18.008 L25.752,16.68 C26.104,16.472 26.38,16.2546667 26.58,16.028 C26.78,15.8013333 26.88,15.5306667 26.88,15.216 C26.88,14.9866667 26.8186667,14.7786667 26.696,14.592 C26.5733333,14.4053333 26.4013333,14.26 26.18,14.156 C25.9586667,14.052 25.704,14 25.416,14 C24.968,14 24.6173333,14.116 24.364,14.348 C24.1106667,14.58 23.984,14.8773333 23.984,15.24 C23.984,15.496 24.0466667,15.7253333 24.172,15.928 C24.2973333,16.1306667 24.4933333,16.36 24.76,16.616 C24.392,16.8506667 24.1146667,17.092 23.928,17.34 C23.7413333,17.588 23.648,17.8773333 23.648,18.208 C23.648,18.5066667 23.724,18.7693333 23.876,18.996 C24.028,19.2226667 24.2386667,19.3973333 24.508,19.52 C24.7773333,19.6426667 25.088,19.704 25.44,19.704 C25.8133333,19.704 26.144,19.6413333 26.432,19.516 C26.72,19.3906667 26.9786667,19.2026667 27.208,18.952 L27.208,18.952 L27.984,19.704 Z M25.336,16.288 C25.1173333,16.08 24.9573333,15.9 24.856,15.748 C24.7546667,15.596 24.704,15.424 24.704,15.232 C24.704,15.0293333 24.768,14.864 24.896,14.736 C25.024,14.608 25.2,14.544 25.424,14.544 C25.648,14.544 25.8266667,14.6066667 25.96,14.732 C26.0933333,14.8573333 26.16,15.032 26.16,15.256 C26.16,15.4533333 26.0906667,15.6333333 25.952,15.796 C25.8133333,15.9586667 25.608,16.1226667 25.336,16.288 Z M25.52,19.12 C25.184,19.12 24.9133333,19.0373333 24.708,18.872 C24.5026667,18.7066667 24.4,18.4773333 24.4,18.184 C24.4,17.9493333 24.464,17.74 24.592,17.556 C24.72,17.372 24.9173333,17.192 25.184,17.016 L25.184,17.016 L26.784,18.544 C26.5973333,18.736 26.4026667,18.88 26.2,18.976 C25.9973333,19.072 25.7706667,19.12 25.52,19.12 Z M32.512,19.608 L32.512,17.584 L33.208,17.584 C33.8533333,17.584 34.3706667,17.4373333 34.76,17.144 C35.1493333,16.8506667 35.344,16.4026667 35.344,15.8 C35.344,15.2346667 35.1573333,14.8093333 34.784,14.524 C34.4106667,14.2386667 33.8826667,14.096 33.2,14.096 L33.2,14.096 L31.752,14.096 L31.752,19.608 L32.512,19.608 Z M33.176,16.984 L32.512,16.984 L32.512,14.688 L33.192,14.688 C33.624,14.688 33.956,14.776 34.188,14.952 C34.42,15.128 34.536,15.4133333 34.536,15.808 C34.536,16.2506667 34.42,16.5573333 34.188,16.728 C33.956,16.8986667 33.6186667,16.984 33.176,16.984 L33.176,16.984 Z M39.384,19.704 L39.552,19.192 C39.4346667,19.1493333 39.3466667,19.0866667 39.288,19.004 C39.2293333,18.9213333 39.2,18.7946667 39.2,18.624 L39.2,18.624 L39.2,16.696 C39.2,16.248 39.0773333,15.9026667 38.832,15.66 C38.5866667,15.4173333 38.216,15.296 37.72,15.296 C37.272,15.296 36.7866667,15.392 36.264,15.584 L36.264,15.584 L36.448,16.12 C36.896,15.9706667 37.2746667,15.896 37.584,15.896 C37.8826667,15.896 38.104,15.96 38.248,16.088 C38.392,16.216 38.464,16.4293333 38.464,16.728 L38.464,16.728 L38.464,17.04 L37.816,17.04 C37.224,17.04 36.7666667,17.16 36.444,17.4 C36.1213333,17.64 35.96,17.984 35.96,18.432 C35.96,18.8106667 36.08,19.1173333 36.32,19.352 C36.56,19.5866667 36.888,19.704 37.304,19.704 C37.8586667,19.704 38.2773333,19.4933333 38.56,19.072 C38.624,19.2746667 38.7226667,19.424 38.856,19.52 C38.9893333,19.616 39.1653333,19.6773333 39.384,19.704 L39.384,19.704 Z M37.472,19.152 C37.232,19.152 37.0506667,19.088 36.928,18.96 C36.8053333,18.832 36.744,18.6426667 36.744,18.392 C36.744,17.816 37.1333333,17.528 37.912,17.528 L37.912,17.528 L38.464,17.528 L38.464,18.496 C38.224,18.9333333 37.8933333,19.152 37.472,19.152 Z M41.744,19.704 C42.208,19.704 42.6013333,19.5946667 42.924,19.376 C43.2466667,19.1573333 43.408,18.84 43.408,18.424 C43.408,18.072 43.292,17.7946667 43.06,17.592 C42.828,17.3893333 42.4773333,17.2293333 42.008,17.112 C41.6666667,17.0213333 41.4306667,16.928 41.3,16.832 C41.1693333,16.736 41.104,16.6026667 41.104,16.432 C41.104,16.2613333 41.1733333,16.1266667 41.312,16.028 C41.4506667,15.9293333 41.64,15.88 41.88,15.88 C42.072,15.88 42.2546667,15.9093333 42.428,15.968 C42.6013333,16.0266667 42.784,16.1173333 42.976,16.24 L42.976,16.24 L43.288,15.776 C43.08,15.616 42.8613333,15.496 42.632,15.416 C42.4026667,15.336 42.144,15.296 41.856,15.296 C41.568,15.296 41.308,15.3453333 41.076,15.444 C40.844,15.5426667 40.6626667,15.6813333 40.532,15.86 C40.4013333,16.0386667 40.336,16.2373333 40.336,16.456 C40.336,16.76 40.436,17.0106667 40.636,17.208 C40.836,17.4053333 41.16,17.5626667 41.608,17.68 C41.8853333,17.7546667 42.096,17.8253333 42.24,17.892 C42.384,17.9586667 42.4853333,18.036 42.544,18.124 C42.6026667,18.212 42.632,18.328 42.632,18.472 C42.632,18.6693333 42.5506667,18.8253333 42.388,18.94 C42.2253333,19.0546667 42.0053333,19.112 41.728,19.112 C41.296,19.112 40.9013333,18.976 40.544,18.704 L40.544,18.704 L40.152,19.152 C40.5733333,19.52 41.104,19.704 41.744,19.704 Z M45.632,19.704 C45.984,19.704 46.2986667,19.608 46.576,19.416 L46.576,19.416 L46.296,18.928 C46.088,19.04 45.9013333,19.096 45.736,19.096 C45.5546667,19.096 45.4253333,19.0466667 45.348,18.948 C45.2706667,18.8493333 45.232,18.6906667 45.232,18.472 L45.232,18.472 L45.232,15.96 L46.152,15.96 L46.232,15.392 L45.232,15.392 L45.232,14.352 L44.496,14.44 L44.496,15.392 L43.76,15.392 L43.76,15.96 L44.496,15.96 L44.496,18.504 C44.496,18.8933333 44.596,19.1906667 44.796,19.396 C44.996,19.6013333 45.2746667,19.704 45.632,19.704 Z M48.896,19.704 C49.4293333,19.704 49.92,19.528 50.368,19.176 L50.368,19.176 L50.048,18.736 C49.8613333,18.864 49.6826667,18.9573333 49.512,19.016 C49.3413333,19.0746667 49.1546667,19.104 48.952,19.104 C48.632,19.104 48.3706667,18.9946667 48.168,18.776 C47.9653333,18.5573333 47.848,18.216 47.816,17.752 L47.816,17.752 L50.504,17.752 C50.5146667,17.624 50.52,17.4986667 50.52,17.376 C50.52,16.7253333 50.3706667,16.216 50.072,15.848 C49.7733333,15.48 49.344,15.296 48.784,15.296 C48.4266667,15.296 48.116,15.392 47.852,15.584 C47.588,15.776 47.3853333,16.0413333 47.244,16.38 C47.1026667,16.7186667 47.032,17.1066667 47.032,17.544 C47.032,18.216 47.196,18.744 47.524,19.128 C47.852,19.512 48.3093333,19.704 48.896,19.704 Z M49.792,17.208 L47.816,17.208 C47.8693333,16.3226667 48.1973333,15.88 48.8,15.88 C49.1306667,15.88 49.3786667,15.9893333 49.544,16.208 C49.7093333,16.4266667 49.792,16.744 49.792,17.16 L49.792,17.16 L49.792,17.208 Z" id="Copy&amp;Paste" fill="#000000" fill-rule="nonzero"></path>
    </g>
</svg>