<?xml version="1.0" encoding="UTF-8"?>
<svg width="54px" height="54px" viewBox="0 0 54 54" version="1.1" xmlns="http://www.w3.org/2000/svg" xmlns:xlink="http://www.w3.org/1999/xlink">
    <title>BarItemLibraryIconNews</title>
    <g id="BarItemLibraryIconNews" stroke="none" stroke-width="1" fill="none" fill-rule="evenodd">
        <g id="Group" transform="translate(0.084802, 0.000000)">
            <path d="M27,0 C36.9411255,0 45,8.0588745 45,18 C45,20.8738745 44.326498,23.5904442 43.1287212,26.0004819 L54,26 L54,54 L0,54 L0,26 L10.8712788,26.0004819 C9.67350198,23.5904442 9,20.8738745 9,18 C9,8.0588745 17.0588745,0 27,0 Z" id="Shape" fill="#002957"></path>
            <path d="M27,1 C17.6111593,1 10,8.61115925 10,18 C10,27.3888407 17.6111593,35 27,35 C36.3888407,35 44,27.3888407 44,18 C44,8.61115925 36.3888407,1 27,1 Z" id="Path" fill="#FFFFFF"></path>
        </g>
        <path d="M36.1666667,11.3333333 L20.0555556,11.3333333 C19.5953125,11.3333333 19.2222222,11.7064236 19.2222222,12.1666667 L19.2222222,12.4444444 L17.8333333,12.4444444 C17.3730903,12.4444444 17,12.8175347 17,13.2777778 L17,22.7222222 C17,23.7961111 17.8705556,24.6666667 18.9444444,24.6666667 L35.3333333,24.6666667 C36.2538194,24.6666667 37,23.9204861 37,23 L37,12.1666667 C37,11.7064236 36.6269097,11.3333333 36.1666667,11.3333333 Z M18.9444444,23 C18.791032,23 18.6666667,22.8756347 18.6666667,22.7222222 L18.6666667,14.1111111 L19.2222222,14.1111111 L19.2222222,22.7222222 C19.2222222,22.8756347 19.0978569,23 18.9444444,23 Z M27.1388889,22.4444444 L21.8611111,22.4444444 C21.6310069,22.4444444 21.4444444,22.2578819 21.4444444,22.0277778 L21.4444444,21.75 C21.4444444,21.5198958 21.6310069,21.3333333 21.8611111,21.3333333 L27.1388889,21.3333333 C27.3689931,21.3333333 27.5555556,21.5198958 27.5555556,21.75 L27.5555556,22.0277778 C27.5555556,22.2578819 27.3689931,22.4444444 27.1388889,22.4444444 Z M34.3611111,22.4444444 L29.0833333,22.4444444 C28.8532292,22.4444444 28.6666667,22.2578819 28.6666667,22.0277778 L28.6666667,21.75 C28.6666667,21.5198958 28.8532292,21.3333333 29.0833333,21.3333333 L34.3611111,21.3333333 C34.5912153,21.3333333 34.7777778,21.5198958 34.7777778,21.75 L34.7777778,22.0277778 C34.7777778,22.2578819 34.5912153,22.4444444 34.3611111,22.4444444 Z M27.1388889,19.1111111 L21.8611111,19.1111111 C21.6310069,19.1111111 21.4444444,18.9245486 21.4444444,18.6944444 L21.4444444,18.4166667 C21.4444444,18.1865625 21.6310069,18 21.8611111,18 L27.1388889,18 C27.3689931,18 27.5555556,18.1865625 27.5555556,18.4166667 L27.5555556,18.6944444 C27.5555556,18.9245486 27.3689931,19.1111111 27.1388889,19.1111111 Z M34.3611111,19.1111111 L29.0833333,19.1111111 C28.8532292,19.1111111 28.6666667,18.9245486 28.6666667,18.6944444 L28.6666667,18.4166667 C28.6666667,18.1865625 28.8532292,18 29.0833333,18 L34.3611111,18 C34.5912153,18 34.7777778,18.1865625 34.7777778,18.4166667 L34.7777778,18.6944444 C34.7777778,18.9245486 34.5912153,19.1111111 34.3611111,19.1111111 Z M34.3611111,15.7777778 L21.8611111,15.7777778 C21.6310069,15.7777778 21.4444444,15.5912153 21.4444444,15.3611111 L21.4444444,13.9722222 C21.4444444,13.7421181 21.6310069,13.5555556 21.8611111,13.5555556 L34.3611111,13.5555556 C34.5912153,13.5555556 34.7777778,13.7421181 34.7777778,13.9722222 L34.7777778,15.3611111 C34.7777778,15.5912153 34.5912153,15.7777778 34.3611111,15.7777778 Z" id="Shape" fill="#002957" fill-rule="nonzero"></path>
    </g>
</svg>