<?xml version="1.0" encoding="UTF-8"?>
<svg width="54px" height="54px" viewBox="0 0 54 54" version="1.1" xmlns="http://www.w3.org/2000/svg" xmlns:xlink="http://www.w3.org/1999/xlink">
    <title>BarItemLibraryIconAmazon</title>
    <g id="BarItemLibraryIconAmazon" stroke="none" stroke-width="1" fill="none" fill-rule="evenodd">
        <g id="Group" transform="translate(0.084802, 0.000000)">
            <path d="M27,0 C36.9411255,0 45,8.0588745 45,18 C45,20.8738745 44.326498,23.5904442 43.1287212,26.0004819 L54,26 L54,54 L0,54 L0,26 L10.8712788,26.0004819 C9.67350198,23.5904442 9,20.8738745 9,18 C9,8.0588745 17.0588745,0 27,0 Z" id="Shape" fill="#002957"></path>
            <path d="M27,1 C17.6111593,1 10,8.61115925 10,18 C10,27.3888407 17.6111593,35 27,35 C36.3888407,35 44,27.3888407 44,18 C44,8.61115925 36.3888407,1 27,1 Z" id="Path" fill="#FFFFFF"></path>
        </g>
        <path d="M28.5669451,13.8348214 C26.392838,13.9151786 20.9999809,14.5267857 20.9999809,19.0803571 C20.9999809,23.96875 27.174088,24.1696429 29.1919451,21.0089286 C29.4821237,21.4642857 30.7723023,22.6830357 31.2142666,23.0982143 L33.7499809,20.5982143 C33.7499809,20.5982143 32.3080166,19.46875 32.3080166,18.2410714 L32.3080166,11.6741071 C32.3080166,10.5446429 31.2142666,8 27.2946237,8 C23.3660523,8 21.2812309,10.4553571 21.2812309,12.65625 L24.5624809,12.9598214 C25.2901594,10.75 26.9821237,10.75 26.9821237,10.75 C28.799088,10.7455357 28.5669451,12.0803571 28.5669451,13.8348214 Z M28.5669451,17.7098214 C28.5669451,21.28125 24.8080166,20.7455357 24.8080166,18.4776786 C24.8080166,16.3705357 27.0624809,15.9464286 28.5669451,15.8973214 L28.5669451,17.7098214 L28.5669451,17.7098214 Z M34.6383737,25.0089286 C34.2946237,25.4553571 31.5133737,28 26.8481951,28 C22.1830166,28 18.611588,24.8080357 17.517838,23.4910714 C17.2142666,23.1473214 17.5624809,22.9866071 17.7633737,23.1205357 C21.0356951,25.1071429 26.1473023,28.3794643 34.392838,24.4732143 C34.7276594,24.3080357 34.986588,24.5625 34.6383737,25.0089286 Z M36.4151594,25.1071429 C36.1249809,25.8125 35.7008737,26.3035714 35.4687309,26.4910714 C35.2231951,26.6919643 35.0446237,26.6116071 35.1785523,26.3214286 C35.3124809,26.03125 36.0401594,24.2455357 35.7455166,23.8660714 C35.455338,23.4955357 34.0937309,23.6741071 33.6026594,23.7232143 C33.1205166,23.7678571 33.0223023,23.8125 32.9776594,23.7098214 C32.8749809,23.4553571 33.9464094,23.0178571 34.6517666,22.9285714 C35.3526594,22.8482143 36.4821237,22.8928571 36.705338,23.1830357 C36.8705166,23.4107143 36.705338,24.3928571 36.4151594,25.1071429 Z" id="Shape" fill="#002957" fill-rule="nonzero"></path>
    </g>
</svg>