<?xml version="1.0" encoding="UTF-8"?>
<svg width="54px" height="54px" viewBox="0 0 54 54" version="1.1" xmlns="http://www.w3.org/2000/svg" xmlns:xlink="http://www.w3.org/1999/xlink">
    <title>BarItemLibraryIconVolume</title>
    <g id="BarItemLibraryIconVolume" stroke="none" stroke-width="1" fill="none" fill-rule="evenodd">
        <g id="Group">
            <rect id="Rectangle" stroke="#008145" fill="#FFFFFF" x="0.5" y="8.5" width="53" height="37"></rect>
            <polygon id="Shape" fill="#008145" points="26.5 26 26.5 46 0 46 0 26"></polygon>
            <polygon id="Shape-Copy" fill="#008145" points="54 26 54 46 27.5 46 27.5 26"></polygon>
        </g>
        <rect id="Rectangle" fill="#FFFFFF" x="13" y="31" width="2" height="9"></rect>
        <rect id="Rectangle-Copy" fill="#FFFFFF" transform="translate(14.000000, 35.500000) rotate(-270.000000) translate(-14.000000, -35.500000) " x="13" y="31" width="2" height="9"></rect>
        <rect id="Rectangle-Copy-2" fill="#FFFFFF" transform="translate(40.000000, 35.500000) rotate(-270.000000) translate(-40.000000, -35.500000) " x="39" y="31" width="2" height="9"></rect>
        <path d="M16.092,20 L17.852,14.488 L17.084,14.488 L15.7,19.176 L14.316,14.488 L13.5,14.488 L15.276,20 L16.092,20 Z M20.236,20.096 C20.6253333,20.096 20.9613333,20.004 21.244,19.82 C21.5266667,19.636 21.7426667,19.3773333 21.892,19.044 C22.0413333,18.7106667 22.116,18.3253333 22.116,17.888 C22.116,17.2106667 21.952,16.6746667 21.624,16.28 C21.296,15.8853333 20.836,15.688 20.244,15.688 C19.8493333,15.688 19.5106667,15.78 19.228,15.964 C18.9453333,16.148 18.7293333,16.4066667 18.58,16.74 C18.4306667,17.0733333 18.356,17.4586667 18.356,17.896 C18.356,18.5733333 18.5213333,19.1093333 18.852,19.504 C19.1826667,19.8986667 19.644,20.096 20.236,20.096 Z M20.236,19.504 C19.5106667,19.504 19.148,18.968 19.148,17.896 C19.148,16.8186667 19.5133333,16.28 20.244,16.28 C20.964,16.28 21.324,16.816 21.324,17.888 C21.324,18.9653333 20.9613333,19.504 20.236,19.504 Z M24.172,20.096 C24.3853333,20.096 24.58,20.048 24.756,19.952 L24.756,19.952 L24.564,19.44 C24.484,19.472 24.3933333,19.488 24.292,19.488 C24.196,19.488 24.128,19.4613333 24.088,19.408 C24.048,19.3546667 24.028,19.2693333 24.028,19.152 L24.028,19.152 L24.028,14 L23.292,14.088 L23.292,19.168 C23.292,19.4613333 23.3706667,19.6893333 23.528,19.852 C23.6853333,20.0146667 23.9,20.096 24.172,20.096 Z M26.812,20.096 C27.1106667,20.096 27.364,20.036 27.572,19.916 C27.78,19.796 27.964,19.6053333 28.124,19.344 L28.124,19.344 L28.18,20 L28.812,20 L28.812,15.784 L28.076,15.784 L28.076,18.792 C27.7826667,19.2773333 27.4306667,19.52 27.02,19.52 C26.7906667,19.52 26.6253333,19.46 26.524,19.34 C26.4226667,19.22 26.372,19.016 26.372,18.728 L26.372,18.728 L26.372,15.784 L25.636,15.784 L25.636,18.808 C25.636,19.2186667 25.74,19.536 25.948,19.76 C26.156,19.984 26.444,20.096 26.812,20.096 Z M31.068,20 L31.068,17.008 C31.228,16.7573333 31.38,16.5706667 31.524,16.448 C31.668,16.3253333 31.8466667,16.264 32.06,16.264 C32.4546667,16.264 32.652,16.536 32.652,17.08 L32.652,17.08 L32.652,20 L33.388,20 L33.388,17.008 C33.5533333,16.752 33.708,16.564 33.852,16.444 C33.996,16.324 34.172,16.264 34.38,16.264 C34.7746667,16.264 34.972,16.536 34.972,17.08 L34.972,17.08 L34.972,20 L35.708,20 L35.708,16.976 C35.708,16.5813333 35.604,16.268 35.396,16.036 C35.188,15.804 34.9106667,15.688 34.564,15.688 C34.292,15.688 34.056,15.7533333 33.856,15.884 C33.656,16.0146667 33.4733333,16.2026667 33.308,16.448 C33.228,16.208 33.096,16.0213333 32.912,15.888 C32.728,15.7546667 32.5053333,15.688 32.244,15.688 C31.748,15.688 31.3426667,15.9253333 31.028,16.4 L31.028,16.4 L30.964,15.784 L30.332,15.784 L30.332,20 L31.068,20 Z M38.748,20.096 C39.2813333,20.096 39.772,19.92 40.22,19.568 L40.22,19.568 L39.9,19.128 C39.7133333,19.256 39.5346667,19.3493333 39.364,19.408 C39.1933333,19.4666667 39.0066667,19.496 38.804,19.496 C38.484,19.496 38.2226667,19.3866667 38.02,19.168 C37.8173333,18.9493333 37.7,18.608 37.668,18.144 L37.668,18.144 L40.356,18.144 C40.3666667,18.016 40.372,17.8906667 40.372,17.768 C40.372,17.1173333 40.2226667,16.608 39.924,16.24 C39.6253333,15.872 39.196,15.688 38.636,15.688 C38.2786667,15.688 37.968,15.784 37.704,15.976 C37.44,16.168 37.2373333,16.4333333 37.096,16.772 C36.9546667,17.1106667 36.884,17.4986667 36.884,17.936 C36.884,18.608 37.048,19.136 37.376,19.52 C37.704,19.904 38.1613333,20.096 38.748,20.096 Z M39.644,17.6 L37.668,17.6 C37.7213333,16.7146667 38.0493333,16.272 38.652,16.272 C38.9826667,16.272 39.2306667,16.3813333 39.396,16.6 C39.5613333,16.8186667 39.644,17.136 39.644,17.552 L39.644,17.552 L39.644,17.6 Z" id="Volume" fill="#000000" fill-rule="nonzero"></path>
    </g>
</svg>