<?xml version="1.0" encoding="UTF-8"?>
<svg width="54px" height="54px" viewBox="0 0 54 54" version="1.1" xmlns="http://www.w3.org/2000/svg" xmlns:xlink="http://www.w3.org/1999/xlink">
    <title>BarItemLibraryIconScreenZoom</title>
    <g id="BarItemLibraryIconScreenZoom" stroke="none" stroke-width="1" fill="none" fill-rule="evenodd">
        <g id="Group">
            <rect id="Rectangle" stroke="#008145" fill="#FFFFFF" x="0.5" y="8.5" width="53" height="37"></rect>
            <polygon id="Shape" fill="#008145" points="26.5 26 26.5 46 0 46 0 26"></polygon>
            <polygon id="Shape-Copy" fill="#008145" points="54 26 54 46 27.5 46 27.5 26"></polygon>
        </g>
        <path d="M5.82880229,19.704 C6.23413562,19.704 6.58480229,19.6346667 6.88080229,19.496 C7.17680229,19.3573333 7.40346895,19.1653333 7.56080229,18.92 C7.71813562,18.6746667 7.79680229,18.392 7.79680229,18.072 C7.79680229,17.7413333 7.72613562,17.468 7.58480229,17.252 C7.44346895,17.036 7.25813562,16.8666667 7.02880229,16.744 C6.79946895,16.6213333 6.51146895,16.5066667 6.16480229,16.4 C5.83413562,16.2986667 5.58213562,16.2026667 5.40880229,16.112 C5.23546895,16.0213333 5.11680229,15.9213333 5.05280229,15.812 C4.98880229,15.7026667 4.95680229,15.568 4.95680229,15.408 C4.95680229,15.152 5.05013562,14.9573333 5.23680229,14.824 C5.42346895,14.6906667 5.66080229,14.624 5.94880229,14.624 C6.17813562,14.624 6.39280229,14.6626667 6.59280229,14.74 C6.79280229,14.8173333 6.99680229,14.9386667 7.20480229,15.104 L7.20480229,15.104 L7.62080229,14.64 C7.37546895,14.4213333 7.12213562,14.26 6.86080229,14.156 C6.59946895,14.052 6.28480229,14 5.91680229,14 C5.58080229,14 5.28080229,14.0613333 5.01680229,14.184 C4.75280229,14.3066667 4.54746895,14.4773333 4.40080229,14.696 C4.25413562,14.9146667 4.18080229,15.1626667 4.18080229,15.44 C4.18080229,15.8506667 4.31146895,16.176 4.57280229,16.416 C4.83413562,16.656 5.24746895,16.8613333 5.81280229,17.032 C6.13280229,17.128 6.37680229,17.224 6.54480229,17.32 C6.71280229,17.416 6.83146895,17.524 6.90080229,17.644 C6.97013562,17.764 7.00480229,17.9146667 7.00480229,18.096 C7.00480229,18.416 6.89280229,18.66 6.66880229,18.828 C6.44480229,18.996 6.16213562,19.08 5.82080229,19.08 C5.53813562,19.08 5.28213562,19.0333333 5.05280229,18.94 C4.82346895,18.8466667 4.59680229,18.7093333 4.37280229,18.528 L4.37280229,18.528 L3.95680229,18.992 C4.44213562,19.4666667 5.06613562,19.704 5.82880229,19.704 Z M10.4128023,19.704 C10.887469,19.704 11.3168023,19.5493333 11.7008023,19.24 L11.7008023,19.24 L11.3648023,18.76 C11.1941356,18.872 11.039469,18.9533333 10.9008023,19.004 C10.7621356,19.0546667 10.6101356,19.08 10.4448023,19.08 C10.0981356,19.08 9.83146895,18.9533333 9.64480229,18.7 C9.45813562,18.4466667 9.36480229,18.0533333 9.36480229,17.52 C9.36480229,16.9866667 9.45946895,16.584 9.64880229,16.312 C9.83813562,16.04 10.103469,15.904 10.4448023,15.904 C10.615469,15.904 10.771469,15.9293333 10.9128023,15.98 C11.0541356,16.0306667 11.199469,16.1093333 11.3488023,16.216 L11.3488023,16.216 L11.7008023,15.752 C11.5088023,15.592 11.3088023,15.476 11.1008023,15.404 C10.8928023,15.332 10.663469,15.296 10.4128023,15.296 C10.0341356,15.296 9.70746895,15.3893333 9.43280229,15.576 C9.15813562,15.7626667 8.94613562,16.024 8.79680229,16.36 C8.64746895,16.696 8.57280229,17.088 8.57280229,17.536 C8.57280229,18.2133333 8.73680229,18.744 9.06480229,19.128 C9.39280229,19.512 9.84213562,19.704 10.4128023,19.704 Z M13.4368023,19.608 L13.4368023,17.2 C13.527469,16.7946667 13.6528023,16.496 13.8128023,16.304 C13.9728023,16.112 14.183469,16.016 14.4448023,16.016 C14.5621356,16.016 14.6848023,16.032 14.8128023,16.064 L14.8128023,16.064 L14.9488023,15.344 C14.8208023,15.312 14.6821356,15.296 14.5328023,15.296 C14.2768023,15.296 14.0528023,15.376 13.8608023,15.536 C13.6688023,15.696 13.5168023,15.9333333 13.4048023,16.248 L13.4048023,16.248 L13.3328023,15.392 L12.7008023,15.392 L12.7008023,19.608 L13.4368023,19.608 Z M17.3488023,19.704 C17.8821356,19.704 18.3728023,19.528 18.8208023,19.176 L18.8208023,19.176 L18.5008023,18.736 C18.3141356,18.864 18.135469,18.9573333 17.9648023,19.016 C17.7941356,19.0746667 17.607469,19.104 17.4048023,19.104 C17.0848023,19.104 16.823469,18.9946667 16.6208023,18.776 C16.4181356,18.5573333 16.3008023,18.216 16.2688023,17.752 L16.2688023,17.752 L18.9568023,17.752 C18.967469,17.624 18.9728023,17.4986667 18.9728023,17.376 C18.9728023,16.7253333 18.823469,16.216 18.5248023,15.848 C18.2261356,15.48 17.7968023,15.296 17.2368023,15.296 C16.879469,15.296 16.5688023,15.392 16.3048023,15.584 C16.0408023,15.776 15.8381356,16.0413333 15.6968023,16.38 C15.555469,16.7186667 15.4848023,17.1066667 15.4848023,17.544 C15.4848023,18.216 15.6488023,18.744 15.9768023,19.128 C16.3048023,19.512 16.7621356,19.704 17.3488023,19.704 Z M18.2448023,17.208 L16.2688023,17.208 C16.3221356,16.3226667 16.6501356,15.88 17.2528023,15.88 C17.583469,15.88 17.831469,15.9893333 17.9968023,16.208 C18.1621356,16.4266667 18.2448023,16.744 18.2448023,17.16 L18.2448023,17.16 L18.2448023,17.208 Z M21.7088023,19.704 C22.2421356,19.704 22.7328023,19.528 23.1808023,19.176 L23.1808023,19.176 L22.8608023,18.736 C22.6741356,18.864 22.495469,18.9573333 22.3248023,19.016 C22.1541356,19.0746667 21.967469,19.104 21.7648023,19.104 C21.4448023,19.104 21.183469,18.9946667 20.9808023,18.776 C20.7781356,18.5573333 20.6608023,18.216 20.6288023,17.752 L20.6288023,17.752 L23.3168023,17.752 C23.327469,17.624 23.3328023,17.4986667 23.3328023,17.376 C23.3328023,16.7253333 23.183469,16.216 22.8848023,15.848 C22.5861356,15.48 22.1568023,15.296 21.5968023,15.296 C21.239469,15.296 20.9288023,15.392 20.6648023,15.584 C20.4008023,15.776 20.1981356,16.0413333 20.0568023,16.38 C19.915469,16.7186667 19.8448023,17.1066667 19.8448023,17.544 C19.8448023,18.216 20.0088023,18.744 20.3368023,19.128 C20.6648023,19.512 21.1221356,19.704 21.7088023,19.704 Z M22.6048023,17.208 L20.6288023,17.208 C20.6821356,16.3226667 21.0101356,15.88 21.6128023,15.88 C21.943469,15.88 22.191469,15.9893333 22.3568023,16.208 C22.5221356,16.4266667 22.6048023,16.744 22.6048023,17.16 L22.6048023,17.16 L22.6048023,17.208 Z M25.2448023,19.608 L25.2448023,16.616 C25.3941356,16.376 25.5541356,16.192 25.7248023,16.064 C25.895469,15.936 26.0928023,15.872 26.3168023,15.872 C26.535469,15.872 26.7008023,15.9333333 26.8128023,16.056 C26.9248023,16.1786667 26.9808023,16.3893333 26.9808023,16.688 L26.9808023,16.688 L26.9808023,19.608 L27.7168023,19.608 L27.7168023,16.584 C27.7168023,16.184 27.6088023,15.8693333 27.3928023,15.64 C27.1768023,15.4106667 26.8768023,15.296 26.4928023,15.296 C26.2261356,15.296 25.9821356,15.36 25.7608023,15.488 C25.539469,15.616 25.3541356,15.792 25.2048023,16.016 L25.2048023,16.016 L25.1408023,15.392 L24.5088023,15.392 L24.5088023,19.608 L25.2448023,19.608 Z M34.2848023,19.608 L34.3728023,18.96 L31.6448023,18.96 L34.3728023,14.712 L34.3728023,14.096 L31.0848023,14.096 L31.0848023,14.736 L33.5488023,14.736 L30.7968023,19 L30.7968023,19.608 L34.2848023,19.608 Z M37.0688023,19.704 C37.4581356,19.704 37.7941356,19.612 38.0768023,19.428 C38.359469,19.244 38.575469,18.9853333 38.7248023,18.652 C38.8741356,18.3186667 38.9488023,17.9333333 38.9488023,17.496 C38.9488023,16.8186667 38.7848023,16.2826667 38.4568023,15.888 C38.1288023,15.4933333 37.6688023,15.296 37.0768023,15.296 C36.6821356,15.296 36.343469,15.388 36.0608023,15.572 C35.7781356,15.756 35.5621356,16.0146667 35.4128023,16.348 C35.263469,16.6813333 35.1888023,17.0666667 35.1888023,17.504 C35.1888023,18.1813333 35.3541356,18.7173333 35.6848023,19.112 C36.015469,19.5066667 36.4768023,19.704 37.0688023,19.704 Z M37.0688023,19.112 C36.343469,19.112 35.9808023,18.576 35.9808023,17.504 C35.9808023,16.4266667 36.3461356,15.888 37.0768023,15.888 C37.7968023,15.888 38.1568023,16.424 38.1568023,17.496 C38.1568023,18.5733333 37.7941356,19.112 37.0688023,19.112 Z M41.7408023,19.704 C42.1301356,19.704 42.4661356,19.612 42.7488023,19.428 C43.031469,19.244 43.247469,18.9853333 43.3968023,18.652 C43.5461356,18.3186667 43.6208023,17.9333333 43.6208023,17.496 C43.6208023,16.8186667 43.4568023,16.2826667 43.1288023,15.888 C42.8008023,15.4933333 42.3408023,15.296 41.7488023,15.296 C41.3541356,15.296 41.015469,15.388 40.7328023,15.572 C40.4501356,15.756 40.2341356,16.0146667 40.0848023,16.348 C39.935469,16.6813333 39.8608023,17.0666667 39.8608023,17.504 C39.8608023,18.1813333 40.0261356,18.7173333 40.3568023,19.112 C40.687469,19.5066667 41.1488023,19.704 41.7408023,19.704 Z M41.7408023,19.112 C41.015469,19.112 40.6528023,18.576 40.6528023,17.504 C40.6528023,16.4266667 41.0181356,15.888 41.7488023,15.888 C42.4688023,15.888 42.8288023,16.424 42.8288023,17.496 C42.8288023,18.5733333 42.4661356,19.112 41.7408023,19.112 Z M45.5728023,19.608 L45.5728023,16.616 C45.7328023,16.3653333 45.8848023,16.1786667 46.0288023,16.056 C46.1728023,15.9333333 46.351469,15.872 46.5648023,15.872 C46.959469,15.872 47.1568023,16.144 47.1568023,16.688 L47.1568023,16.688 L47.1568023,19.608 L47.8928023,19.608 L47.8928023,16.616 C48.0581356,16.36 48.2128023,16.172 48.3568023,16.052 C48.5008023,15.932 48.6768023,15.872 48.8848023,15.872 C49.279469,15.872 49.4768023,16.144 49.4768023,16.688 L49.4768023,16.688 L49.4768023,19.608 L50.2128023,19.608 L50.2128023,16.584 C50.2128023,16.1893333 50.1088023,15.876 49.9008023,15.644 C49.6928023,15.412 49.415469,15.296 49.0688023,15.296 C48.7968023,15.296 48.5608023,15.3613333 48.3608023,15.492 C48.1608023,15.6226667 47.9781356,15.8106667 47.8128023,16.056 C47.7328023,15.816 47.6008023,15.6293333 47.4168023,15.496 C47.2328023,15.3626667 47.0101356,15.296 46.7488023,15.296 C46.2528023,15.296 45.847469,15.5333333 45.5328023,16.008 L45.5328023,16.008 L45.4688023,15.392 L44.8368023,15.392 L44.8368023,19.608 L45.5728023,19.608 Z" id="ScreenZoom" fill="#000000" fill-rule="nonzero"></path>
        <rect id="Rectangle" fill="#FFFFFF" x="13" y="31" width="2" height="9"></rect>
        <rect id="Rectangle-Copy" fill="#FFFFFF" transform="translate(14.000000, 35.500000) rotate(-270.000000) translate(-14.000000, -35.500000) " x="13" y="31" width="2" height="9"></rect>
        <rect id="Rectangle-Copy-2" fill="#FFFFFF" transform="translate(40.000000, 35.500000) rotate(-270.000000) translate(-40.000000, -35.500000) " x="39" y="31" width="2" height="9"></rect>
    </g>
</svg>