<?xml version="1.0" encoding="UTF-8"?>
<svg width="54px" height="54px" viewBox="0 0 54 54" version="1.1" xmlns="http://www.w3.org/2000/svg" xmlns:xlink="http://www.w3.org/1999/xlink">
    <title>BarItemLibraryIconHelp</title>
    <g id="BarItemLibraryIconHelp" stroke="none" stroke-width="1" fill="none" fill-rule="evenodd">
        <g id="Group" transform="translate(0.084802, 0.000000)">
            <path d="M27,0 C36.9411255,0 45,8.0588745 45,18 C45,20.8738745 44.326498,23.5904442 43.1287212,26.0004819 L54,26 L54,54 L0,54 L0,26 L10.8712788,26.0004819 C9.67350198,23.5904442 9,20.8738745 9,18 C9,8.0588745 17.0588745,0 27,0 Z" id="Shape" fill="#002957"></path>
            <path d="M27,1 C17.6111593,1 10,8.61115925 10,18 C10,27.3888407 17.6111593,35 27,35 C36.3888407,35 44,27.3888407 44,18 C44,8.61115925 36.3888407,1 27,1 Z" id="Path" fill="#FFFFFF"></path>
        </g>
        <path d="M26.9148828,8 C23.7969531,8 21.7774609,9.27746094 20.1919531,11.5557031 C19.9043359,11.9689844 19.9930078,12.535625 20.3942188,12.8398438 L22.0792969,14.1175391 C22.4844922,14.4247656 23.0610156,14.3529297 23.3782422,13.9555078 C24.3567188,12.7296875 25.0825391,12.0239062 26.6109375,12.0239062 C27.8126563,12.0239062 29.2990625,12.7973047 29.2990625,13.9626172 C29.2990625,14.8435547 28.5718359,15.2959766 27.3852734,15.9612109 C26.0015625,16.7369922 24.1704688,17.7024609 24.1704688,20.1176562 L24.1704688,20.5 C24.1704688,21.0177734 24.5901953,21.4375 25.1079688,21.4375 L27.9388672,21.4375 C28.4566406,21.4375 28.8763672,21.0177734 28.8763672,20.5 L28.8763672,20.2744922 C28.8763672,18.6002734 33.7696484,18.5305469 33.7696484,14 C33.7696484,10.588125 30.2305469,8 26.9148828,8 Z M26.5234375,22.5882422 C25.0314063,22.5882422 23.8175391,23.8021094 23.8175391,25.2941406 C23.8175391,26.7861328 25.0314063,28 26.5234375,28 C28.0154688,28 29.2293359,26.7861328 29.2293359,25.2941016 C29.2293359,23.8020703 28.0154688,22.5882422 26.5234375,22.5882422 Z" id="Shape" fill="#002957" fill-rule="nonzero"></path>
    </g>
</svg>