<?xml version="1.0" encoding="UTF-8"?>
<svg width="56px" height="54px" viewBox="0 0 56 54" version="1.1" xmlns="http://www.w3.org/2000/svg" xmlns:xlink="http://www.w3.org/1999/xlink">
    <title>BarItemIconSkype</title>
    <g id="Page-1" stroke="none" stroke-width="1" fill="none" fill-rule="evenodd">
        <g id="Community" transform="translate(-1007.000000, -65.000000)">
            <g id="Right-Pane" transform="translate(984.500000, 0.000000)">
                <g id="BarItemIconSkype" transform="translate(23.500000, 65.000000)">
                    <rect id="Rectangle" fill="#002957" x="0" y="26" width="54" height="28"></rect>
                    <circle id="Oval" stroke="#002957" fill="#FFFFFF" cx="27" cy="18" r="17.5"></circle>
                    <path d="M35.9639829,19.9579812 C36.0934756,19.332844 36.1738504,18.6675194 36.1738504,18.0021949 C36.1738504,12.9341185 32.0702713,8.83500466 27.0066601,8.83500466 C26.3413356,8.83500466 25.6804763,8.91091418 25.0508738,9.04487214 C24.2024734,8.3884781 23.1486707,8 22.0010974,8 C19.2415633,8 17,10.2415633 17,13.0010974 C17,14.1486707 17.3884781,15.2024734 18.0404069,16.0464086 C17.9109142,16.6715457 17.8305394,17.3368703 17.8305394,18.0021949 C17.8305394,23.0702713 21.9341185,27.1693851 26.9977296,27.1693851 C27.6630542,27.1693851 28.3239135,27.0934756 28.9535159,26.9595176 C29.8019164,27.6114464 30.8557191,27.9999245 31.998827,27.9999245 C34.7583612,27.9999245 36.9999626,25.7583612 36.9999626,22.998827 C37.0043897,21.8557191 36.6159116,20.8019164 35.9639829,19.9579812 L35.9639829,19.9579812 Z M27.2745761,24.0436992 C24.3453619,24.0436992 21.8939311,22.7398416 21.8939311,21.1412766 C21.8939311,20.4268341 22.295805,19.7749053 23.2111844,19.7749053 C24.6043473,19.7749053 24.73384,21.7798095 27.1450834,21.7798095 C28.2926566,21.7798095 29.0338907,21.2707693 29.0338907,20.6054447 C29.0338907,19.77044 28.3194482,19.6409473 27.1584792,19.3551703 C24.3676882,18.6675194 21.8983963,18.3728119 21.8983963,15.4614588 C21.8983963,12.8180215 24.515042,11.8401284 26.7700011,11.8401284 C29.2303624,11.8401284 31.7175153,12.8180215 31.7175153,14.3138855 C31.7175153,15.0685154 31.208475,15.73384 30.3645398,15.73384 C29.1008697,15.73384 29.0606823,14.237976 27.0155907,14.237976 C25.8680174,14.237976 25.1401791,14.5505446 25.1401791,15.2426608 C25.1401791,16.1267833 26.0689544,16.2160886 28.2256776,16.7161984 C30.0742976,17.1314681 32.2756735,17.9128896 32.2756735,20.1812445 C32.2756735,22.8202164 29.7260069,24.0436992 27.2745761,24.0436992 L27.2745761,24.0436992 Z" id="Shape" fill="#002957" fill-rule="nonzero"></path>
                </g>
            </g>
        </g>
    </g>
</svg>